  0
SECTION
  2
HEADER
  9
$ACADVER
  1
AC1024
  9
$ACADMAINTVER
 70
     6
  9
$DWGCODEPAGE
  3
ANSI_1251
  9
$INSBASE
 10
0.0
 20
0.0
 30
0.0
  9
$EXTMIN
 10
1.000000000000000E+20
 20
1.000000000000000E+20
 30
1.000000000000000E+20
  9
$EXTMAX
 10
-1.000000000000000E+20
 20
-1.000000000000000E+20
 30
-1.000000000000000E+20
  9
$LIMMIN
 10
0.0
 20
0.0
  9
$LIMMAX
 10
12.0
 20
9.0
  9
$ORTHOMODE
 70
     0
  9
$REGENMODE
 70
     1
  9
$FILLMODE
 70
     1
  9
$QTEXTMODE
 70
     0
  9
$MIRRTEXT
 70
     1
  9
$LTSCALE
 40
1.0
  9
$ATTMODE
 70
     1
  9
$TEXTSIZE
 40
0.2
  9
$TRACEWID
 40
0.05
  9
$TEXTSTYLE
  7
Standard
  9
$CLAYER
  8
0
  9
$CELTYPE
  6
ByLayer
  9
$CECOLOR
 62
   256
  9
$CELTSCALE
 40
1.0
  9
$DISPSILH
 70
     0
  9
$DIMSCALE
 40
1.0
  9
$DIMASZ
 40
0.18
  9
$DIMEXO
 40
0.0625
  9
$DIMDLI
 40
0.38
  9
$DIMRND
 40
0.0
  9
$DIMDLE
 40
0.0
  9
$DIMEXE
 40
0.18
  9
$DIMTP
 40
0.0
  9
$DIMTM
 40
0.0
  9
$DIMTXT
 40
0.18
  9
$DIMCEN
 40
0.09
  9
$DIMTSZ
 40
0.0
  9
$DIMTOL
 70
     0
  9
$DIMLIM
 70
     0
  9
$DIMTIH
 70
     1
  9
$DIMTOH
 70
     1
  9
$DIMSE1
 70
     0
  9
$DIMSE2
 70
     0
  9
$DIMTAD
 70
     0
  9
$DIMZIN
 70
     0
  9
$DIMBLK
  1

  9
$DIMASO
 70
     1
  9
$DIMSHO
 70
     1
  9
$DIMPOST
  1

  9
$DIMAPOST
  1

  9
$DIMALT
 70
     0
  9
$DIMALTD
 70
     2
  9
$DIMALTF
 40
25.4
  9
$DIMLFAC
 40
1.0
  9
$DIMTOFL
 70
     0
  9
$DIMTVP
 40
0.0
  9
$DIMTIX
 70
     0
  9
$DIMSOXD
 70
     0
  9
$DIMSAH
 70
     0
  9
$DIMBLK1
  1

  9
$DIMBLK2
  1

  9
$DIMSTYLE
  2
Standard
  9
$DIMCLRD
 70
     0
  9
$DIMCLRE
 70
     0
  9
$DIMCLRT
 70
     0
  9
$DIMTFAC
 40
1.0
  9
$DIMGAP
 40
0.09
  9
$DIMJUST
 70
     0
  9
$DIMSD1
 70
     0
  9
$DIMSD2
 70
     0
  9
$DIMTOLJ
 70
     1
  9
$DIMTZIN
 70
     0
  9
$DIMALTZ
 70
     0
  9
$DIMALTTZ
 70
     0
  9
$DIMUPT
 70
     0
  9
$DIMDEC
 70
     4
  9
$DIMTDEC
 70
     4
  9
$DIMALTU
 70
     2
  9
$DIMALTTD
 70
     2
  9
$DIMTXSTY
  7
Standard
  9
$DIMAUNIT
 70
     0
  9
$DIMADEC
 70
     0
  9
$DIMALTRND
 40
0.0
  9
$DIMAZIN
 70
     0
  9
$DIMDSEP
 70
    46
  9
$DIMATFIT
 70
     3
  9
$DIMFRAC
 70
     0
  9
$DIMLDRBLK
  1

  9
$DIMLUNIT
 70
     2
  9
$DIMLWD
 70
    -2
  9
$DIMLWE
 70
    -2
  9
$DIMTMOVE
 70
     0
  9
$DIMFXL
 40
1.0
  9
$DIMFXLON
 70
     0
  9
$DIMJOGANG
 40
0.7853981633974483
  9
$DIMTFILL
 70
     0
  9
$DIMTFILLCLR
 70
     0
  9
$DIMARCSYM
 70
     0
  9
$DIMLTYPE
  6

  9
$DIMLTEX1
  6

  9
$DIMLTEX2
  6

  9
$DIMTXTDIRECTION
 70
     0
  9
$LUNITS
 70
     2
  9
$LUPREC
 70
     4
  9
$SKETCHINC
 40
0.1
  9
$FILLETRAD
 40
0.5
  9
$AUNITS
 70
     0
  9
$AUPREC
 70
     0
  9
$MENU
  1
.
  9
$ELEVATION
 40
0.0
  9
$PELEVATION
 40
0.0
  9
$THICKNESS
 40
0.0
  9
$LIMCHECK
 70
     0
  9
$CHAMFERA
 40
0.5
  9
$CHAMFERB
 40
0.5
  9
$CHAMFERC
 40
1.0
  9
$CHAMFERD
 40
0.0
  9
$SKPOLY
 70
     0
  9
$TDCREATE
 40
2458900.428059861
  9
$TDUCREATE
 40
2458900.303059861
  9
$TDUPDATE
 40
2458900.428059884
  9
$TDUUPDATE
 40
2458900.303059884
  9
$TDINDWG
 40
0.0000000116
  9
$TDUSRTIMER
 40
0.0000000116
  9
$USRTIMER
 70
     1
  9
$ANGBASE
 50
0.0
  9
$ANGDIR
 70
     0
  9
$PDMODE
 70
     0
  9
$PDSIZE
 40
0.0
  9
$PLINEWID
 40
0.0
  9
$SPLFRAME
 70
     0
  9
$SPLINETYPE
 70
     6
  9
$SPLINESEGS
 70
     8
  9
$HANDSEED
  5
67
  9
$SURFTAB1
 70
     6
  9
$SURFTAB2
 70
     6
  9
$SURFTYPE
 70
     6
  9
$SURFU
 70
     6
  9
$SURFV
 70
     6
  9
$UCSBASE
  2

  9
$UCSNAME
  2

  9
$UCSORG
 10
0.0
 20
0.0
 30
0.0
  9
$UCSXDIR
 10
1.0
 20
0.0
 30
0.0
  9
$UCSYDIR
 10
0.0
 20
1.0
 30
0.0
  9
$UCSORTHOREF
  2

  9
$UCSORTHOVIEW
 70
     0
  9
$UCSORGTOP
 10
0.0
 20
0.0
 30
0.0
  9
$UCSORGBOTTOM
 10
0.0
 20
0.0
 30
0.0
  9
$UCSORGLEFT
 10
0.0
 20
0.0
 30
0.0
  9
$UCSORGRIGHT
 10
0.0
 20
0.0
 30
0.0
  9
$UCSORGFRONT
 10
0.0
 20
0.0
 30
0.0
  9
$UCSORGBACK
 10
0.0
 20
0.0
 30
0.0
  9
$PUCSBASE
  2

  9
$PUCSNAME
  2

  9
$PUCSORG
 10
0.0
 20
0.0
 30
0.0
  9
$PUCSXDIR
 10
1.0
 20
0.0
 30
0.0
  9
$PUCSYDIR
 10
0.0
 20
1.0
 30
0.0
  9
$PUCSORTHOREF
  2

  9
$PUCSORTHOVIEW
 70
     0
  9
$PUCSORGTOP
 10
0.0
 20
0.0
 30
0.0
  9
$PUCSORGBOTTOM
 10
0.0
 20
0.0
 30
0.0
  9
$PUCSORGLEFT
 10
0.0
 20
0.0
 30
0.0
  9
$PUCSORGRIGHT
 10
0.0
 20
0.0
 30
0.0
  9
$PUCSORGFRONT
 10
0.0
 20
0.0
 30
0.0
  9
$PUCSORGBACK
 10
0.0
 20
0.0
 30
0.0
  9
$USERI1
 70
     0
  9
$USERI2
 70
     0
  9
$USERI3
 70
     0
  9
$USERI4
 70
     0
  9
$USERI5
 70
     0
  9
$USERR1
 40
0.0
  9
$USERR2
 40
0.0
  9
$USERR3
 40
0.0
  9
$USERR4
 40
0.0
  9
$USERR5
 40
0.0
  9
$WORLDVIEW
 70
     1
  9
$SHADEDGE
 70
     3
  9
$SHADEDIF
 70
    70
  9
$TILEMODE
 70
     1
  9
$MAXACTVP
 70
    64
  9
$PINSBASE
 10
0.0
 20
0.0
 30
0.0
  9
$PLIMCHECK
 70
     0
  9
$PEXTMIN
 10
1.000000000000000E+20
 20
1.000000000000000E+20
 30
1.000000000000000E+20
  9
$PEXTMAX
 10
-1.000000000000000E+20
 20
-1.000000000000000E+20
 30
-1.000000000000000E+20
  9
$PLIMMIN
 10
0.0
 20
0.0
  9
$PLIMMAX
 10
12.0
 20
9.0
  9
$UNITMODE
 70
     0
  9
$VISRETAIN
 70
     1
  9
$PLINEGEN
 70
     0
  9
$PSLTSCALE
 70
     1
  9
$TREEDEPTH
 70
  3020
  9
$CMLSTYLE
  2
Standard
  9
$CMLJUST
 70
     0
  9
$CMLSCALE
 40
1.0
  9
$PROXYGRAPHICS
 70
     1
  9
$MEASUREMENT
 70
     0
  9
$CELWEIGHT
370
    -1
  9
$ENDCAPS
280
     0
  9
$JOINSTYLE
280
     0
  9
$LWDISPLAY
290
     1
  9
$INSUNITS
 70
     1
  9
$HYPERLINKBASE
  1

  9
$STYLESHEET
  1

  9
$XEDIT
290
     1
  9
$CEPSNTYPE
380
     0
  9
$PSTYLEMODE
290
     1
  9
$FINGERPRINTGUID
  2
{8D68DA39-EB2F-4C7B-AAAF-3F7097806DAB}
  9
$VERSIONGUID
  2
{FAEB1C32-E019-11D5-929B-00C0DF256EC4}
  9
$EXTNAMES
290
     1
  9
$PSVPSCALE
 40
0.0
  9
$OLESTARTUP
290
     0
  9
$SORTENTS
280
   127
  9
$INDEXCTL
280
     0
  9
$HIDETEXT
280
     1
  9
$XCLIPFRAME
280
     2
  9
$HALOGAP
280
     0
  9
$OBSCOLOR
 70
   257
  9
$OBSLTYPE
280
     0
  9
$INTERSECTIONDISPLAY
280
     0
  9
$INTERSECTIONCOLOR
 70
   257
  9
$DIMASSOC
280
     2
  9
$PROJECTNAME
  1

  9
$CAMERADISPLAY
290
     0
  9
$LENSLENGTH
 40
50.0
  9
$CAMERAHEIGHT
 40
0.0
  9
$STEPSPERSEC
 40
2.0
  9
$STEPSIZE
 40
6.0
  9
$3DDWFPREC
 40
2.0
  9
$PSOLWIDTH
 40
0.25
  9
$PSOLHEIGHT
 40
4.0
  9
$LOFTANG1
 40
1.570796326794897
  9
$LOFTANG2
 40
1.570796326794897
  9
$LOFTMAG1
 40
0.0
  9
$LOFTMAG2
 40
0.0
  9
$LOFTPARAM
 70
     7
  9
$LOFTNORMALS
280
     1
  9
$LATITUDE
 40
37.795
  9
$LONGITUDE
 40
-122.394
  9
$NORTHDIRECTION
 40
0.0
  9
$TIMEZONE
 70
 -8000
  9
$LIGHTGLYPHDISPLAY
280
     1
  9
$TILEMODELIGHTSYNCH
280
     1
  9
$CMATERIAL
347
3C
  9
$SOLIDHIST
280
     1
  9
$SHOWHIST
280
     1
  9
$DWFFRAME
280
     2
  9
$DGNFRAME
280
     2
  9
$REALWORLDSCALE
290
     1
  9
$INTERFERECOLOR
 62
   256
  9
$CSHADOW
280
     0
  9
$SHADOWPLANELOCATION
 40
0.0
  0
ENDSEC
  0
SECTION
  2
CLASSES
  0
CLASS
  1
ACDBDICTIONARYWDFLT
  2
AcDbDictionaryWithDefault
  3
ObjectDBX Classes
 90
        0
 91
        4
280
     0
281
     0
  0
CLASS
  1
VISUALSTYLE
  2
AcDbVisualStyle
  3
ObjectDBX Classes
 90
     4095
 91
        4
280
     0
281
     0
  0
CLASS
  1
MATERIAL
  2
AcDbMaterial
  3
ObjectDBX Classes
 90
     1153
 91
        4
280
     0
281
     0
  0
CLASS
  1
SUN
  2
AcDbSun
  3
SCENEOE
 90
     1024
 91
        4
280
     0
281
     0
  0
ENDSEC
  0
SECTION
  2
TABLES
  0
TABLE
  2
VPORT
  5
8
330
0
100
AcDbSymbolTable
 70
     1
  0
VPORT
  5
29
330
8
100
AcDbSymbolTableRecord
100
AcDbViewportTableRecord
  2
*Active
 70
     0
 10
0.0
 20
0.0
 11
1.0
 21
1.0
 12
0.0
 22
0.0
 13
0.0
 23
0.0
 14
0.5
 24
0.5
 15
0.5
 25
0.5
 16
0.0
 26
0.0
 36
1.0
 17
375.0
 27
-375.0
 37
0.0
 40
750.0
 41
1.0
 42
50.0
 43
0.0
 44
0.0
 50
0.0
 51
0.0
 71
     0
 72
   100
 73
     1
 74
     3
 75
     0
 76
     0
 77
     0
 78
     0
281
     0
 65
     1
110
0.0
120
0.0
130
0.0
111
1.0
121
0.0
131
0.0
112
0.0
122
1.0
132
0.0
 79
     0
146
0.0
 60
     3
 61
     5
292
     1
282
     1
141
0.0
142
0.0
 63
   250
361
3F
  0
ENDTAB
  0
TABLE
  2
LTYPE
  5
5
330
0
100
AcDbSymbolTable
 70
     1
  0
LTYPE
  5
14
330
5
100
AcDbSymbolTableRecord
100
AcDbLinetypeTableRecord
  2
ByBlock
 70
     0
  3

 72
    65
 73
     0
 40
0.0
  0
LTYPE
  5
15
330
5
100
AcDbSymbolTableRecord
100
AcDbLinetypeTableRecord
  2
ByLayer
 70
     0
  3

 72
    65
 73
     0
 40
0.0
  0
LTYPE
  5
16
330
5
100
AcDbSymbolTableRecord
100
AcDbLinetypeTableRecord
  2
Continuous
 70
     0
  3
Solid line
 72
    65
 73
     0
 40
0.0
  0
ENDTAB
  0
TABLE
  2
LAYER
  5
2
330
0
100
AcDbSymbolTable
 70
     2
  0
LAYER
  5
10
330
2
100
AcDbSymbolTableRecord
100
AcDbLayerTableRecord
  2
0
 70
     0
 62
     7
  6
Continuous
370
    -3
390
F
347
3E
  0
LAYER
  5
40
330
2
100
AcDbSymbolTableRecord
100
AcDbLayerTableRecord
  2
Layer 1
 70
     0
 62
     7
  6
Continuous
370
    -3
390
F
347
3E
  0
ENDTAB
  0
TABLE
  2
STYLE
  5
3
330
0
100
AcDbSymbolTable
 70
     1
  0
STYLE
  5
11
330
3
100
AcDbSymbolTableRecord
100
AcDbTextStyleTableRecord
  2
Standard
 70
     0
 40
0.0
 41
1.0
 50
0.0
 71
     0
 42
0.2
  3
txt
  4

  0
ENDTAB
  0
TABLE
  2
VIEW
  5
6
330
0
100
AcDbSymbolTable
 70
     0
  0
ENDTAB
  0
TABLE
  2
UCS
  5
7
330
0
100
AcDbSymbolTable
 70
     0
  0
ENDTAB
  0
TABLE
  2
APPID
  5
9
330
0
100
AcDbSymbolTable
 70
     1
  0
APPID
  5
12
330
9
100
AcDbSymbolTableRecord
100
AcDbRegAppTableRecord
  2
ACAD
 70
     0
  0
ENDTAB
  0
TABLE
  2
DIMSTYLE
  5
A
330
0
100
AcDbSymbolTable
 70
     1
100
AcDbDimStyleTable
  0
DIMSTYLE
105
27
330
A
100
AcDbSymbolTableRecord
100
AcDbDimStyleTableRecord
  2
Standard
 70
     0
178
     0
340
11
  0
ENDTAB
  0
TABLE
  2
BLOCK_RECORD
  5
1
330
0
100
AcDbSymbolTable
 70
     3
  0
BLOCK_RECORD
  5
1F
330
1
100
AcDbSymbolTableRecord
100
AcDbBlockTableRecord
  2
*Model_Space
340
22
 70
     0
280
     1
281
     0
  0
BLOCK_RECORD
  5
1B
330
1
100
AcDbSymbolTableRecord
100
AcDbBlockTableRecord
  2
*Paper_Space
340
1E
 70
     0
280
     1
281
     0
  0
BLOCK_RECORD
  5
23
330
1
100
AcDbSymbolTableRecord
100
AcDbBlockTableRecord
  2
*Paper_Space0
340
26
 70
     0
280
     1
281
     0
  0
BLOCK_RECORD
  5
41
330
1
100
AcDbSymbolTableRecord
100
AcDbBlockTableRecord
  2
block 2
340
0
102
{BLKREFS
331
42
102
}
 70
     0
280
     1
281
     0
  0
BLOCK_RECORD
  5
50
330
1
100
AcDbSymbolTableRecord
100
AcDbBlockTableRecord
  2
block 3
340
0
102
{BLKREFS
331
51
102
}
 70
     0
280
     1
281
     0
  0
ENDTAB
  0
ENDSEC
  0
SECTION
  2
BLOCKS
  0
BLOCK
  5
20
330
1F
100
AcDbEntity
  8
0
100
AcDbBlockBegin
  2
*Model_Space
 70
     0
 10
0.0
 20
0.0
 30
0.0
  3
*Model_Space
  1

  0
ENDBLK
  5
21
330
1F
100
AcDbEntity
  8
0
100
AcDbBlockEnd
  0
BLOCK
  5
1C
330
1B
100
AcDbEntity
 67
     1
  8
0
100
AcDbBlockBegin
  2
*Paper_Space
 70
     0
 10
0.0
 20
0.0
 30
0.0
  3
*Paper_Space
  1

  0
ENDBLK
  5
1D
330
1B
100
AcDbEntity
 67
     1
  8
0
100
AcDbBlockEnd
  0
BLOCK
  5
24
330
23
100
AcDbEntity
  8
0
100
AcDbBlockBegin
  2
*Paper_Space0
 70
     0
 10
0.0
 20
0.0
 30
0.0
  3
*Paper_Space0
  1

  0
ENDBLK
  5
25
330
23
100
AcDbEntity
  8
0
100
AcDbBlockEnd
  0
BLOCK
  5
43
330
41
100
AcDbEntity
  8
0
100
AcDbBlockBegin
  2
block 2
 70
     0
 10
0.0
 20
0.0
 30
0.0
  3
block 2
  1

  0
SPLINE
  5
45
330
41
100
AcDbEntity
  8
Layer 1
370
     0
100
AcDbSpline
210
0.0
220
0.0
230
1.0
 70
    11
 71
     3
 72
   329
 73
   325
 74
     0
 42
0.0000000001
 43
0.0000000001
 12
1.0
 22
0.0
 32
0.0
 13
1.0
 23
0.0
 33
0.0
 40
0.0
 40
0.0
 40
0.0
 40
0.0
 40
1.0
 40
1.0
 40
1.0
 40
2.0
 40
2.0
 40
2.0
 40
3.0
 40
3.0
 40
3.0
 40
4.0
 40
4.0
 40
4.0
 40
5.0
 40
5.0
 40
5.0
 40
6.0
 40
6.0
 40
6.0
 40
7.0
 40
7.0
 40
7.0
 40
8.0
 40
8.0
 40
8.0
 40
9.0
 40
9.0
 40
9.0
 40
10.0
 40
10.0
 40
10.0
 40
11.0
 40
11.0
 40
11.0
 40
12.0
 40
12.0
 40
12.0
 40
13.0
 40
13.0
 40
13.0
 40
14.0
 40
14.0
 40
14.0
 40
15.0
 40
15.0
 40
15.0
 40
16.0
 40
16.0
 40
16.0
 40
17.0
 40
17.0
 40
17.0
 40
18.0
 40
18.0
 40
18.0
 40
19.0
 40
19.0
 40
19.0
 40
20.0
 40
20.0
 40
20.0
 40
21.0
 40
21.0
 40
21.0
 40
22.0
 40
22.0
 40
22.0
 40
23.0
 40
23.0
 40
23.0
 40
24.0
 40
24.0
 40
24.0
 40
25.0
 40
25.0
 40
25.0
 40
26.0
 40
26.0
 40
26.0
 40
27.0
 40
27.0
 40
27.0
 40
28.0
 40
28.0
 40
28.0
 40
29.0
 40
29.0
 40
29.0
 40
30.0
 40
30.0
 40
30.0
 40
31.0
 40
31.0
 40
31.0
 40
32.0
 40
32.0
 40
32.0
 40
33.0
 40
33.0
 40
33.0
 40
34.0
 40
34.0
 40
34.0
 40
35.0
 40
35.0
 40
35.0
 40
36.0
 40
36.0
 40
36.0
 40
37.0
 40
37.0
 40
37.0
 40
38.0
 40
38.0
 40
38.0
 40
39.0
 40
39.0
 40
39.0
 40
40.0
 40
40.0
 40
40.0
 40
41.0
 40
41.0
 40
41.0
 40
42.0
 40
42.0
 40
42.0
 40
43.0
 40
43.0
 40
43.0
 40
44.0
 40
44.0
 40
44.0
 40
45.0
 40
45.0
 40
45.0
 40
46.0
 40
46.0
 40
46.0
 40
47.0
 40
47.0
 40
47.0
 40
48.0
 40
48.0
 40
48.0
 40
49.0
 40
49.0
 40
49.0
 40
50.0
 40
50.0
 40
50.0
 40
51.0
 40
51.0
 40
51.0
 40
52.0
 40
52.0
 40
52.0
 40
53.0
 40
53.0
 40
53.0
 40
54.0
 40
54.0
 40
54.0
 40
55.0
 40
55.0
 40
55.0
 40
56.0
 40
56.0
 40
56.0
 40
57.0
 40
57.0
 40
57.0
 40
58.0
 40
58.0
 40
58.0
 40
59.0
 40
59.0
 40
59.0
 40
60.0
 40
60.0
 40
60.0
 40
61.0
 40
61.0
 40
61.0
 40
62.0
 40
62.0
 40
62.0
 40
63.0
 40
63.0
 40
63.0
 40
64.0
 40
64.0
 40
64.0
 40
65.0
 40
65.0
 40
65.0
 40
66.0
 40
66.0
 40
66.0
 40
67.0
 40
67.0
 40
67.0
 40
68.0
 40
68.0
 40
68.0
 40
69.0
 40
69.0
 40
69.0
 40
70.0
 40
70.0
 40
70.0
 40
71.0
 40
71.0
 40
71.0
 40
72.0
 40
72.0
 40
72.0
 40
73.0
 40
73.0
 40
73.0
 40
74.0
 40
74.0
 40
74.0
 40
75.0
 40
75.0
 40
75.0
 40
76.0
 40
76.0
 40
76.0
 40
77.0
 40
77.0
 40
77.0
 40
78.0
 40
78.0
 40
78.0
 40
79.0
 40
79.0
 40
79.0
 40
80.0
 40
80.0
 40
80.0
 40
81.0
 40
81.0
 40
81.0
 40
82.0
 40
82.0
 40
82.0
 40
83.0
 40
83.0
 40
83.0
 40
84.0
 40
84.0
 40
84.0
 40
85.0
 40
85.0
 40
85.0
 40
86.0
 40
86.0
 40
86.0
 40
87.0
 40
87.0
 40
87.0
 40
88.0
 40
88.0
 40
88.0
 40
89.0
 40
89.0
 40
89.0
 40
90.0
 40
90.0
 40
90.0
 40
91.0
 40
91.0
 40
91.0
 40
92.0
 40
92.0
 40
92.0
 40
93.0
 40
93.0
 40
93.0
 40
94.0
 40
94.0
 40
94.0
 40
95.0
 40
95.0
 40
95.0
 40
96.0
 40
96.0
 40
96.0
 40
97.0
 40
97.0
 40
97.0
 40
98.0
 40
98.0
 40
98.0
 40
99.0
 40
99.0
 40
99.0
 40
100.0
 40
100.0
 40
100.0
 40
101.0
 40
101.0
 40
101.0
 40
102.0
 40
102.0
 40
102.0
 40
103.0
 40
103.0
 40
103.0
 40
104.0
 40
104.0
 40
104.0
 40
105.0
 40
105.0
 40
105.0
 40
106.0
 40
106.0
 40
106.0
 40
107.0
 40
107.0
 40
107.0
 40
108.0
 40
108.0
 40
108.0
 40
108.0
 10
703.9117822176922
 20
-561.0167000000001
 30
0.0
 10
696.4864824052711
 20
-541.0653999999995
 30
0.0
 10
681.8493827750353
 20
-529.4483
 30
0.0
 10
660.4660000000003
 20
-526.8588
 30
0.0
 10
659.268083345487
 20
-526.7137999999995
 30
0.0
 10
658.442183366351
 20
-526.3953999999994
 30
0.0
 10
657.6305833868537
 20
-525.4315000000006
 30
0.0
 10
653.7545834847697
 20
-520.8281999999999
 30
0.0
 10
649.3220000000001
 20
-516.7975000000006
 30
0.0
 10
644.2814837240803
 20
-513.5077999999994
 30
0.0
 10
633.7728839895499
 20
-506.6491999999998
 30
0.0
 10
622.6483842705784
 20
-503.8493999999992
 30
0.0
 10
610.5691845757246
 20
-509.0740999999998
 30
0.0
 10
608.6115846251778
 20
-509.9208999999992
 30
0.0
 10
607.2174846603957
 20
-509.8875000000007
 30
0.0
 10
605.3634847072317
 20
-508.7613999999994
 30
0.0
 10
598.3703848838923
 20
-504.5141999999996
 30
0.0
 10
590.9012850725776
 20
-502.1349000000009
 30
0.0
 10
582.5740852829404
 20
-503.8335000000006
 30
0.0
 10
579.5888853583529
 20
-504.4423999999999
 30
0.0
 10
576.9716854244689
 20
-505.9117000000006
 30
0.0
 10
574.4215854888898
 20
-507.3289999999997
 30
0.0
 10
566.1380856981486
 20
-466.5609999999997
 30
0.0
 10
543.3768862731449
 20
-435.0751
 30
0.0
 10
512.1787870612752
 20
-408.3112999999994
 30
0.0
 10
520.3330868552803
 20
-408.1401000000005
 30
0.0
 10
527.8396866656476
 20
-407.5746999999992
 30
0.0
 10
535.2214864791677
 20
-405.9082999999991
 30
0.0
 10
559.0472858772773
 20
-400.5298999999995
 30
0.0
 10
577.8864854013591
 20
-387.9734000000008
 30
0.0
 10
590.4172850848045
 20
-366.7984999999999
 30
0.0
 10
601.4396848063552
 20
-348.1724999999997
 30
0.0
 10
605.0091847161821
 20
-327.9186
 30
0.0
 10
602.3723847827932
 20
-306.5029000000004
 30
0.0
 10
599.7667848486162
 20
-285.3402999999998
 30
0.0
 10
591.8442850487554
 20
-266.2961999999998
 30
0.0
 10
577.3866854139851
 20
-250.7231000000002
 30
0.0
 10
548.0252861557165
 20
-219.0965999999999
 30
0.0
 10
512.0591870642966
 20
-205.3510999999999
 30
0.0
 10
468.8587881556305
 20
-213.1688000000004
 30
0.0
 10
467.010388202325
 20
-213.5033999999996
 30
0.0
 10
466.4354882168482
 20
-213.0375000000004
 30
0.0
 10
466.3077882200741
 20
-211.1939000000002
 30
0.0
 10
465.8701882311289
 20
-204.8800000000001
 30
0.0
 10
464.9127882553148
 20
-198.6264000000001
 30
0.0
 10
463.6173882880394
 20
-192.4339
 30
0.0
 10
460.757388360289
 20
-178.7624999999998
 30
0.0
 10
456.393
 20
-165.7079000000003
 30
0.0
 10
448.0378886816106
 20
-154.2582000000002
 30
0.0
 10
436.4330000000009
 20
-138.3549999999996
 30
0.0
 10
418.4045894302108
 20
-132.8001999999997
 30
0.0
 10
399.9358898967694
 20
-139.5028000000002
 30
0.0
 10
388.9770901736119
 20
-143.4799000000003
 30
0.0
 10
379.9315904021205
 20
-150.2656999999999
 30
0.0
 10
372.4040905922811
 20
-158.9660000000003
 30
0.0
 10
350.8402911370285
 20
-183.8892999999998
 30
0.0
 10
339.3609999999999
 20
-213.3125
 30
0.0
 10
334.4502915510748
 20
-245.5636000000004
 30
0.0
 10
332.0659999999998
 20
-261.2219000000005
 30
0.0
 10
331.6237916224782
 20
-276.9938000000002
 30
0.0
 10
331.9025916154351
 20
-292.8024000000005
 30
0.0
 10
332.0202916124617
 20
-299.4794000000002
 30
0.0
 10
331.9630916139067
 20
-299.5645000000004
 30
0.0
 10
325.4333917788608
 20
-298.2390999999998
 30
0.0
 10
317.737791973268
 20
-296.6769000000004
 30
0.0
 10
310.7987921485619
 20
-297.9628000000002
 30
0.0
 10
304.7522923013094
 20
-303.1823999999997
 30
0.0
 10
303.1110923427696
 20
-304.5991000000004
 30
0.0
 10
301.3602923869985
 20
-305.8922000000002
 30
0.0
 10
299.7608924274027
 20
-307.3526000000002
 30
0.0
 10
298.7671924525057
 20
-308.2600000000002
 30
0.0
 10
298.0727924700477
 20
-308.3732
 30
0.0
 10
297.3194924890777
 20
-307.1482999999998
 30
0.0
 10
296.9591924981796
 20
-306.5623999999998
 30
0.0
 10
296.4489999999996
 20
-306.0699000000004
 30
0.0
 10
296.0156925220144
 20
-305.5277999999998
 30
0.0
 10
282.514192863091
 20
-288.6318000000001
 30
0.0
 10
268.5294932163742
 20
-272.1826000000001
 30
0.0
 10
252.0418936328861
 20
-258.0532999999996
 30
0.0
 10
234.3665940794017
 20
-242.9062000000004
 30
0.0
 10
214.7967945737764
 20
-231.2843000000003
 30
0.0
 10
191.9040951520947
 20
-225.9125000000004
 30
0.0
 10
178.6045954880683
 20
-222.7918
 30
0.0
 10
165.1968958267753
 20
-221.5311000000002
 30
0.0
 10
151.7326961669096
 20
-224.6903000000002
 30
0.0
 10
136.3012965567395
 20
-228.3110999999999
 30
0.0
 10
125.942
 20
-237.3289000000004
 30
0.0
 10
122.6666969011785
 20
-253.3099000000002
 30
0.0
 10
120.8307969475572
 20
-262.2674999999999
 30
0.0
 10
121.2633969366289
 20
-271.2385999999997
 30
0.0
 10
123.225496887062
 20
-280.1580999999996
 30
0.0
 10
126.1113968141581
 20
-293.2762999999995
 30
0.0
 10
132.0927966630552
 20
-305.0698000000002
 30
0.0
 10
138.8656964919574
 20
-316.4970999999996
 30
0.0
 10
140.0692964615519
 20
-318.5279
 30
0.0
 10
139.6358964725005
 20
-318.9904999999999
 30
0.0
 10
137.7001965214004
 20
-319.7993999999999
 30
0.0
 10
118.3498970102301
 20
-327.8847999999998
 30
0.0
 10
103.868297376066
 20
-341.3949000000002
 30
0.0
 10
94.57420000000002
 20
-360.0983999999999
 30
0.0
 10
82.00540000000001
 20
-385.3917999999994
 30
0.0
 10
79.29659999999967
 20
-412.1280000000006
 30
0.0
 10
85.16439999999966
 20
-439.5809000000008
 30
0.0
 10
90.4348
 20
-464.2384999999995
 30
0.0
 10
103.3485973891948
 20
-484.3083000000006
 30
0.0
 10
123.536396879208
 20
-499.5843000000004
 30
0.0
 10
127.2538967852961
 20
-502.3973999999998
 30
0.0
 10
131.265796683947
 20
-504.7623999999996
 30
0.0
 10
135.1717965852731
 20
-507.4033999999992
 30
0.0
 10
130.7805966962042
 20
-506.3004999999994
 30
0.0
 10
126.3853968072362
 20
-506.0457999999999
 30
0.0
 10
121.9874969183365
 20
-506.7425999999996
 30
0.0
 10
111.900797173148
 20
-508.3407000000007
 30
0.0
 10
103.6482973816237
 20
-513.5357000000004
 30
0.0
 10
96.66510000000017
 20
-520.6458000000002
 30
0.0
 10
92.94380000000001
 20
-524.4347999999991
 30
0.0
 10
89.2493000000004
 20
-526.8382999999994
 30
0.0
 10
83.69650000000001
 20
-527.7875999999997
 30
0.0
 10
68.97410000000036
 20
-530.3044000000009
 30
0.0
 10
58.04749999999967
 20
-539.0254000000004
 30
0.0
 10
50.05680000000029
 20
-551.4449000000004
 30
0.0
 10
46.59569999999985
 20
-556.8241999999991
 30
0.0
 10
44.34609999999975
 20
-562.5290999999997
 30
0.0
 10
44.72999999999956
 20
-569.2667999999994
 30
0.0
 10
45.55580000000009
 20
-583.7613000000001
 30
0.0
 10
58.45859999999993
 20
-592.8377
 30
0.0
 10
72.15520000000015
 20
-588.1088
 30
0.0
 10
73.56869999999981
 20
-587.6206999999995
 30
0.0
 10
74.1877000000004
 20
-587.7916000000005
 30
0.0
 10
75.05699999999979
 20
-589.0028000000002
 30
0.0
 10
78.70719999999983
 20
-594.0890999999992
 30
0.0
 10
83.47000000000025
 20
-597.6831999999995
 30
0.0
 10
89.6292999999996
 20
-599.2535000000007
 30
0.0
 10
97.11200000000008
 20
-601.1612000000005
 30
0.0
 10
104.0298973719837
 20
-599.5462000000007
 30
0.0
 10
110.6454972048596
 20
-595.9431999999997
 30
0.0
 10
111.5401971822575
 20
-595.4559000000008
 30
0.0
 10
112.402697160469
 20
-594.3063999999995
 30
0.0
 10
113.4947971328802
 20
-595.7821999999996
 30
0.0
 10
118.134
 20
-602.0521000000008
 30
0.0
 10
125.0111968419515
 20
-604.6924999999992
 30
0.0
 10
132.1478966616633
 20
-606.1882999999998
 30
0.0
 10
139.0296964878144
 20
-607.6306999999997
 30
0.0
 10
146.0313963109365
 20
-607.3816999999999
 30
0.0
 10
151.7244961671167
 20
-602.1313000000009
 30
0.0
 10
152.6729999999998
 20
-601.2564000000002
 30
0.0
 10
153.0183961344301
 20
-601.8505999999998
 30
0.0
 10
153.4965961223497
 20
-602.5218999999997
 30
0.0
 10
155.0691960826225
 20
-604.7296000000006
 30
0.0
 10
156.9294960356274
 20
-606.6556
 30
0.0
 10
159.1324959799749
 20
-608.2440999999999
 30
0.0
 10
168.9304957324566
 20
-615.3096000000005
 30
0.0
 10
187.7681952565763
 20
-616.3224000000009
 30
0.0
 10
198.8187949774147
 20
-602.1281999999992
 30
0.0
 10
206.4353947850032
 20
-592.3448000000008
 30
0.0
 10
211.348
 20
-581.2091999999993
 30
0.0
 10
215.0744945667611
 20
-569.5298999999995
 30
0.0
 10
216.9945945182553
 20
-563.5118000000002
 30
0.0
 10
215.702394550899
 20
-557.6501000000007
 30
0.0
 10
212.7280946260362
 20
-551.5951999999997
 30
0.0
 10
212.2002946393695
 20
-552.9351000000006
 30
0.0
 10
211.8388946484993
 20
-553.7978999999996
 30
0.0
 10
211.5180946566034
 20
-554.6756000000005
 30
0.0
 10
209.5880947053593
 20
-559.9572000000007
 30
0.0
 10
207.7554947516546
 20
-565.2764000000006
 30
0.0
 10
205.7242948029671
 20
-570.5187000000005
 30
0.0
 10
202.0567948956159
 20
-579.9843999999994
 30
0.0
 10
198.2157949926477
 20
-589.3917999999994
 30
0.0
 10
191.5690951605575
 20
-597.2682999999997
 30
0.0
 10
185.902
 20
-603.9838999999993
 30
0.0
 10
177.3561955196055
 20
-606.2916000000005
 30
0.0
 10
168.9593957317265
 20
-603.5815000000002
 30
0.0
 10
161.7060000000001
 20
-601.2404999999999
 30
0.0
 10
157.3140960259116
 20
-594.7628000000004
 30
0.0
 10
156.812496038583
 20
-585.9526000000005
 30
0.0
 10
156.3562960501076
 20
-577.9411
 30
0.0
 10
157.7825960140763
 20
-570.2471000000005
 30
0.0
 10
160.5184959449616
 20
-562.7772000000004
 30
0.0
 10
165.1335958283744
 20
-550.1761000000006
 30
0.0
 10
171.8650956583224
 20
-538.9984000000004
 30
0.0
 10
182.8450000000003
 20
-530.8644999999997
 30
0.0
 10
188.3532952417954
 20
-526.7841000000008
 30
0.0
 10
194.4868950868477
 20
-524.4439999999995
 30
0.0
 10
201.5133949093433
 20
-525.0602999999992
 30
0.0
 10
210.2938946875292
 20
-525.8302999999996
 30
0.0
 10
216.875494521264
 20
-530.5601000000006
 30
0.0
 10
222.5110000000004
 20
-536.8418000000001
 30
0.0
 10
231.4620000000004
 20
-546.8194000000003
 30
0.0
 10
236.9608940138642
 20
-558.7800000000007
 30
0.0
 10
241.674793894781
 20
-571.1334999999999
 30
0.0
 10
242.4183938759961
 20
-573.0823
 30
0.0
 10
243.2681938545284
 20
-573.7222000000002
 30
0.0
 10
245.3722938013743
 20
-573.7098000000005
 30
0.0
 10
262.3007933737244
 20
-573.6101999999992
 30
0.0
 10
279.2301929460518
 20
-573.6710000000003
 30
0.0
 10
296.1591925183893
 20
-573.6257999999998
 30
0.0
 10
297.4690924852985
 20
-573.6222999999991
 30
0.0
 10
299.4008924364971
 20
-574.4025999999994
 30
0.0
 10
299.9915924215748
 20
-573.0987999999998
 30
0.0
 10
300.7930924013272
 20
-571.3297999999995
 30
0.0
 10
298.6410924556913
 20
-570.5265999999992
 30
0.0
 10
297.6103924817289
 20
-569.5226000000002
 30
0.0
 10
264.5633933165664
 20
-537.3304000000007
 30
0.0
 10
254.8604935616822
 20
-498.8233999999993
 30
0.0
 10
267.4203932443925
 20
-454.8305
 30
0.0
 10
273.3648930942218
 20
-434.0089000000007
 30
0.0
 10
284.7121928075649
 20
-416.3335999999999
 30
0.0
 10
302.6875923534681
 20
-403.5077999999994
 30
0.0
 10
308.7462922004124
 20
-399.1849000000002
 30
0.0
 10
315.2397920363728
 20
-395.8561000000009
 30
0.0
 10
322.7774918459545
 20
-394.9725999999991
 30
0.0
 10
333.7692915682783
 20
-393.6844000000001
 30
0.0
 10
343.2288913293087
 20
-397.4313000000002
 30
0.0
 10
351.8155911123904
 20
-403.8793000000005
 30
0.0
 10
354.7642910379
 20
-406.0933999999997
 30
0.0
 10
357.4826909692274
 20
-408.6142999999993
 30
0.0
 10
360.3983908955706
 20
-411.0727000000006
 30
0.0
 10
360.8102908851652
 20
-408.4099999999999
 30
0.0
 10
361.0462908792033
 20
-405.8996999999999
 30
0.0
 10
361.6003908652056
 20
-403.4619999999995
 30
0.0
 10
365.222790773696
 20
-387.5241999999998
 30
0.0
 10
374.201
 20
-376.5352000000003
 30
0.0
 10
390.5747901332506
 20
-372.5654000000004
 30
0.0
 10
411.1772896127877
 20
-367.5702000000001
 30
0.0
 10
430.3242891290938
 20
-371.7947999999997
 30
0.0
 10
447.6550000000007
 20
-383.1972999999998
 30
0.0
 10
470.5083881139581
 20
-398.2332000000006
 30
0.0
 10
485.4300000000003
 20
-419.5966000000008
 30
0.0
 10
493.8538875242011
 20
-445.4796999999999
 30
0.0
 10
499.7734873746595
 20
-463.6681000000008
 30
0.0
 10
500.7827873491624
 20
-482.1422999999995
 30
0.0
 10
495.982
 20
-500.8004000000001
 30
0.0
 10
494.8682874985752
 20
-505.1290000000008
 30
0.0
 10
493.1988875407478
 20
-509.2749000000003
 30
0.0
 10
491.5625875820842
 20
-514.0776000000005
 30
0.0
 10
501.8453873223189
 20
-507.3237000000008
 30
0.0
 10
512.6265870499628
 20
-504.4866000000002
 30
0.0
 10
524.2763867556641
 20
-505.1506000000008
 30
0.0
 10
535.8448864634192
 20
-505.8099999999995
 30
0.0
 10
546.384586197164
 20
-509.384
 30
0.0
 10
556.2087859489839
 20
-516.7340999999997
 30
0.0
 10
554.4413859936321
 20
-516.5728999999992
 30
0.0
 10
553.3397860214609
 20
-516.4410000000007
 30
0.0
 10
552.2342860493882
 20
-516.3765000000003
 30
0.0
 10
540.6991863407893
 20
-515.7024000000001
 30
0.0
 10
531.3481865770154
 20
-520.4264999999996
 30
0.0
 10
523.3450867791908
 20
-528.2644
 30
0.0
 10
514.1984870102533
 20
-537.2221000000009
 30
0.0
 10
508.2523871604644
 20
-548.2595999999994
 30
0.0
 10
503.16668728894
 20
-559.8340000000007
 30
0.0
 10
501.4601873320498
 20
-563.7178999999996
 30
0.0
 10
499.8019999999997
 20
-567.6170000000002
 30
0.0
 10
498.8033873991662
 20
-571.7554
 30
0.0
 10
498.6272874036149
 20
-572.4853000000003
 30
0.0
 10
497.9188874215106
 20
-573.5977000000003
 30
0.0
 10
499.4885873818566
 20
-573.6450999999997
 30
0.0
 10
501.8300873227054
 20
-573.7157000000007
 30
0.0
 10
504.1759999999995
 20
-573.6277000000009
 30
0.0
 10
506.5192872042462
 20
-573.6614000000009
 30
0.0
 10
507.5485871782439
 20
-573.6762999999992
 30
0.0
 10
507.5590871779787
 20
-572.8534999999993
 30
0.0
 10
507.7307871736411
 20
-572.2595000000001
 30
0.0
 10
508.9851871419523
 20
-567.9192999999996
 30
0.0
 10
510.7760870967104
 20
-563.7918000000009
 30
0.0
 10
512.6955870482197
 20
-559.7211000000007
 30
0.0
 10
517.1160869365485
 20
-550.3464999999997
 30
0.0
 10
522.0994868106573
 20
-541.3029000000006
 30
0.0
 10
529.741686617599
 20
-534.1049999999996
 30
0.0
 10
542.0940863055512
 20
-522.4707999999991
 30
0.0
 10
555.2540000000008
 20
-521.7904999999992
 30
0.0
 10
568.5462856373124
 20
-532.2603999999992
 30
0.0
 10
577.9223854004522
 20
-539.6457000000009
 30
0.0
 10
583.9330000000009
 20
-549.5491999999995
 30
0.0
 10
588.2151851404342
 20
-560.5352999999996
 30
0.0
 10
591.8123850495613
 20
-569.7646000000004
 30
0.0
 10
593.9920000000002
 20
-579.2358999999997
 30
0.0
 10
592.3214850367003
 20
-589.2427000000007
 30
0.0
 10
590.9934850702484
 20
-597.1988000000001
 30
0.0
 10
586.5012851837309
 20
-602.3410000000003
 30
0.0
 10
578.9021853757004
 20
-603.9598999999998
 30
0.0
 10
570.0752855986866
 20
-605.8402999999998
 30
0.0
 10
562.6406857865004
 20
-603.4649000000009
 30
0.0
 10
557.0330859281603
 20
-596.0998999999993
 30
0.0
 10
550.2156861003823
 20
-587.1457000000009
 30
0.0
 10
546.2275862011302
 20
-576.8003000000008
 30
0.0
 10
542.321586299804
 20
-566.4132000000009
 30
0.0
 10
540.5214863452784
 20
-561.6262000000006
 30
0.0
 10
538.8125863884488
 20
-556.8048999999992
 30
0.0
 10
536.8662864376165
 20
-551.4608000000007
 30
0.0
 10
534.4528864985841
 20
-556.6749
 30
0.0
 10
533.1994865302477
 20
-561.4292999999998
 30
0.0
 10
533.9207865120261
 20
-566.5956000000006
 30
0.0
 10
534.6257864942163
 20
-571.6440000000002
 30
0.0
 10
536.7320864410067
 20
-576.2191999999995
 30
0.0
 10
538.7058863911443
 20
-580.8230999999996
 30
0.0
 10
542.6458862916115
 20
-590.0131999999994
 30
0.0
 10
547.0368861806855
 20
-598.9364999999998
 30
0.0
 10
554.4471859934856
 20
-605.9763999999996
 30
0.0
 10
565.6114857114517
 20
-616.5825000000004
 30
0.0
 10
585.7718852021571
 20
-615.5027000000009
 30
0.0
 10
595.2208849634553
 20
-603.6769000000004
 30
0.0
 10
596.4608849321303
 20
-602.1250999999993
 30
0.0
 10
597.1721849141613
 20
-601.1170999999995
 30
0.0
 10
598.9786848685253
 20
-603.0961000000007
 30
0.0
 10
599.9724848434198
 20
-604.1846999999998
 30
0.0
 10
601.5671848031343
 20
-604.8353000000006
 30
0.0
 10
603.0040847668351
 20
-605.3914000000004
 30
0.0
 10
614.06788448734
 20
-609.6731
 30
0.0
 10
629.8034840898254
 20
-603.7031000000006
 30
0.0
 10
635.3838839488526
 20
-596.6828999999998
 30
0.0
 10
636.6131839177979
 20
-595.1363999999994
 30
0.0
 10
637.3469999999998
 20
-594.9652000000006
 30
0.0
 10
639.1000000000004
 20
-595.9665000000005
 30
0.0
 10
652.2473835228448
 20
-603.4758000000002
 30
0.0
 10
665.7848831808587
 20
-600.7075999999997
 30
0.0
 10
674.7716829538331
 20
-588.7055999999993
 30
0.0
 10
675.6505829316302
 20
-587.5316999999995
 30
0.0
 10
676.2318829169453
 20
-587.7435000000005
 30
0.0
 10
677.3072828897784
 20
-588.1072000000004
 30
0.0
 10
685.4245826847182
 20
-590.8521000000001
 30
0.0
 10
692.8866824962097
 20
-589.4614000000001
 30
0.0
 10
698.9171823438664
 20
-583.4380000000001
 30
0.0
 10
705.1796821856624
 20
-577.1830000000009
 30
0.0
 10
706.8392821437374
 20
-568.8829000000005
 30
0.0
 10
703.9117822176922
 20
-561.0167000000001
 30
0.0
  0
SPLINE
  5
46
330
41
100
AcDbEntity
  8
Layer 1
370
     0
100
AcDbSpline
210
0.0
220
0.0
230
1.0
 70
    11
 71
     3
 72
    32
 73
    28
 74
     0
 42
0.0000000001
 43
0.0000000001
 12
1.0
 22
0.0
 32
0.0
 13
1.0
 23
0.0
 33
0.0
 40
0.0
 40
0.0
 40
0.0
 40
0.0
 40
1.0
 40
1.0
 40
1.0
 40
2.0
 40
2.0
 40
2.0
 40
3.0
 40
3.0
 40
3.0
 40
4.0
 40
4.0
 40
4.0
 40
5.0
 40
5.0
 40
5.0
 40
6.0
 40
6.0
 40
6.0
 40
7.0
 40
7.0
 40
7.0
 40
8.0
 40
8.0
 40
8.0
 40
9.0
 40
9.0
 40
9.0
 40
9.0
 10
72.96010000000024
 20
-571.6157000000003
 30
0.0
 10
72.80149999999958
 20
-572.6417000000001
 30
0.0
 10
72.59500000000025
 20
-573.6615999999995
 30
0.0
 10
72.47059999999965
 20
-574.6915000000008
 30
0.0
 10
71.9351999999999
 20
-579.1211999999996
 30
0.0
 10
71.31670000000031
 20
-579.7828000000009
 30
0.0
 10
66.83669999999984
 20
-580.6244999999999
 30
0.0
 10
61.85069999999996
 20
-581.5612000000001
 30
0.0
 10
56.10310000000027
 20
-578.5097999999998
 30
0.0
 10
54.46550000000025
 20
-573.7556000000004
 30
0.0
 10
53.03099999999995
 20
-569.5912000000008
 30
0.0
 10
52.6220000000003
 20
-565.3788000000004
 30
0.0
 10
54.67399999999998
 20
-561.1476000000002
 30
0.0
 10
61.15940000000046
 20
-547.7741999999998
 30
0.0
 10
71.36340000000018
 20
-539.0827000000008
 30
0.0
 10
86.01450000000023
 20
-535.8732
 30
0.0
 10
86.51820000000043
 20
-535.7628000000004
 30
0.0
 10
87.03830000000016
 20
-535.7103000000006
 30
0.0
 10
87.55379999999968
 20
-535.6779999999999
 30
0.0
 10
87.77310000000034
 20
-535.6641999999993
 30
0.0
 10
88.0001000000002
 20
-535.7718000000004
 30
0.0
 10
88.38960000000043
 20
-535.8631999999998
 30
0.0
 10
86.70970000000034
 20
-538.1000000000004
 30
0.0
 10
85.06620000000021
 20
-540.1983
 30
0.0
 10
83.51839999999993
 20
-542.3649000000005
 30
0.0
 10
77.26180000000022
 20
-551.1224000000002
 30
0.0
 10
74.57399999999961
 20
-561.1772000000001
 30
0.0
 10
72.96010000000024
 20
-571.6157000000003
 30
0.0
  0
SPLINE
  5
47
330
41
100
AcDbEntity
  8
Layer 1
370
     0
100
AcDbSpline
210
0.0
220
0.0
230
1.0
 70
    11
 71
     3
 72
    38
 73
    34
 74
     0
 42
0.0000000001
 43
0.0000000001
 12
1.0
 22
0.0
 32
0.0
 13
1.0
 23
0.0
 33
0.0
 40
0.0
 40
0.0
 40
0.0
 40
0.0
 40
1.0
 40
1.0
 40
1.0
 40
2.0
 40
2.0
 40
2.0
 40
3.0
 40
3.0
 40
3.0
 40
4.0
 40
4.0
 40
4.0
 40
5.0
 40
5.0
 40
5.0
 40
6.0
 40
6.0
 40
6.0
 40
7.0
 40
7.0
 40
7.0
 40
8.0
 40
8.0
 40
8.0
 40
9.0
 40
9.0
 40
9.0
 40
10.0
 40
10.0
 40
10.0
 40
11.0
 40
11.0
 40
11.0
 40
11.0
 10
108.024797271064
 20
-579.5393999999997
 30
0.0
 10
108.0915972693765
 20
-580.8387000000002
 30
0.0
 10
108.045697270536
 20
-582.1797999999999
 30
0.0
 10
108.3607972625759
 20
-583.4233000000004
 30
0.0
 10
109.1811972418509
 20
-586.6599000000006
 30
0.0
 10
107.4027972867771
 20
-588.0926
 30
0.0
 10
104.8205973520089
 20
-589.3091000000004
 30
0.0
 10
96.97569999999996
 20
-593.0048999999999
 30
0.0
 10
89.13780000000042
 20
-591.7548000000006
 30
0.0
 10
83.6259
 20
-585.8655999999992
 30
0.0
 10
81.03480000000036
 20
-583.0972000000002
 30
0.0
 10
80.98329999999987
 20
-579.5998
 30
0.0
 10
80.64339999999993
 20
-576.1705000000002
 30
0.0
 10
80.54929999999968
 20
-575.2217
 30
0.0
 10
80.53750000000036
 20
-574.2648000000008
 30
0.0
 10
80.47119999999995
 20
-572.9876999999997
 30
0.0
 10
81.14120000000003
 20
-558.9536000000007
 30
0.0
 10
86.73250000000007
 20
-546.4688999999998
 30
0.0
 10
95.15170000000035
 20
-535.1178999999993
 30
0.0
 10
100.4254974630385
 20
-528.0077000000001
 30
0.0
 10
106.6845973049203
 20
-521.9380999999994
 30
0.0
 10
114.775497100527
 20
-518.0280999999995
 30
0.0
 10
120.6707969515992
 20
-515.1792000000005
 30
0.0
 10
126.7879999999996
 20
-514.2927
 30
0.0
 10
133.1999999999998
 20
-516.0069999999996
 30
0.0
 10
135.1524965857607
 20
-516.5290999999997
 30
0.0
 10
135.6815965723945
 20
-517.0854999999992
 30
0.0
 10
134.1538966109874
 20
-518.9681
 30
0.0
 10
128.4237967557419
 20
-526.0292000000009
 30
0.0
 10
122.5117969050916
 20
-532.9472999999998
 30
0.0
 10
117.5327970308717
 20
-540.6034
 30
0.0
 10
109.7956972263273
 20
-552.5010000000002
 30
0.0
 10
107.3092972891391
 20
-565.6139000000003
 30
0.0
 10
108.024797271064
 20
-579.5393999999997
 30
0.0
  0
SPLINE
  5
48
330
41
100
AcDbEntity
  8
Layer 1
370
     0
100
AcDbSpline
210
0.0
220
0.0
230
1.0
 70
    11
 71
     3
 72
    32
 73
    28
 74
     0
 42
0.0000000001
 43
0.0000000001
 12
1.0
 22
0.0
 32
0.0
 13
1.0
 23
0.0
 33
0.0
 40
0.0
 40
0.0
 40
0.0
 40
0.0
 40
1.0
 40
1.0
 40
1.0
 40
2.0
 40
2.0
 40
2.0
 40
3.0
 40
3.0
 40
3.0
 40
4.0
 40
4.0
 40
4.0
 40
5.0
 40
5.0
 40
5.0
 40
6.0
 40
6.0
 40
6.0
 40
7.0
 40
7.0
 40
7.0
 40
8.0
 40
8.0
 40
8.0
 40
9.0
 40
9.0
 40
9.0
 40
9.0
 10
175.0780000000004
 20
-525.3745999999992
 30
0.0
 10
167.0308957804446
 20
-533.4722999999994
 30
0.0
 10
159.9575959591311
 20
-542.3065000000006
 30
0.0
 10
154.665
 20
-552.4675000000007
 30
0.0
 10
148.3006962536092
 20
-564.6859999999997
 30
0.0
 10
144.738096343608
 20
-577.5097999999998
 30
0.0
 10
146.3466963029714
 20
-591.4544999999998
 30
0.0
 10
146.8466962903403
 20
-595.7878000000001
 30
0.0
 10
145.8611963152362
 20
-596.8767000000007
 30
0.0
 10
141.5670964237142
 20
-597.8683999999994
 30
0.0
 10
134.5702966004683
 20
-599.4842000000008
 30
0.0
 10
120.0786969665569
 20
-595.0051000000003
 30
0.0
 10
117.9853970194381
 20
-585.9634999999998
 30
0.0
 10
117.1778970398373
 20
-582.4755999999998
 30
0.0
 10
116.826197048722
 20
-578.9714000000004
 30
0.0
 10
116.6693970526831
 20
-575.3726000000006
 30
0.0
 10
117.9708970198044
 20
-552.1435000000001
 30
0.0
 10
126.9218967936831
 20
-532.6980999999996
 30
0.0
 10
145.5092963241259
 20
-518.2325999999994
 30
0.0
 10
150.9783961859648
 20
-513.9763999999996
 30
0.0
 10
157.1940000000004
 20
-511.0779999999995
 30
0.0
 10
164.5217958438298
 20
-512.1754999999994
 30
0.0
 10
169.5823957159882
 20
-512.9334999999992
 30
0.0
 10
175.2982955715925
 20
-518.2801
 30
0.0
 10
176.3676955445771
 20
-523.0915999999997
 30
0.0
 10
176.6612955371602
 20
-524.4125999999997
 30
0.0
 10
175.6832955618665
 20
-524.7654999999995
 30
0.0
 10
175.0780000000004
 20
-525.3745999999992
 30
0.0
  0
SPLINE
  5
49
330
41
100
AcDbEntity
  8
Layer 1
370
     0
100
AcDbSpline
210
0.0
220
0.0
230
1.0
 70
    11
 71
     3
 72
    14
 73
    10
 74
     0
 42
0.0000000001
 43
0.0000000001
 12
1.0
 22
0.0
 32
0.0
 13
1.0
 23
0.0
 33
0.0
 40
0.0
 40
0.0
 40
0.0
 40
0.0
 40
1.0
 40
1.0
 40
1.0
 40
2.0
 40
2.0
 40
2.0
 40
3.0
 40
3.0
 40
3.0
 40
3.0
 10
232.2121941338264
 20
-534.8292999999994
 30
0.0
 10
224.3040943336018
 20
-525.1651999999995
 30
0.0
 10
215.4482945573181
 20
-518.0151000000005
 30
0.0
 10
203.1843948671303
 20
-516.2484000000004
 30
0.0
 10
215.8923945460992
 20
-512.5012999999999
 30
0.0
 10
227.0606942639643
 20
-506.3202000000001
 30
0.0
 10
236.9076940152081
 20
-497.4501
 30
0.0
 10
233.9152940908025
 20
-509.5285999999996
 30
0.0
 10
232.5926941242142
 20
-521.7639999999992
 30
0.0
 10
232.2121941338264
 20
-534.8292999999994
 30
0.0
  0
SPLINE
  5
4A
330
41
100
AcDbEntity
  8
Layer 1
370
     0
100
AcDbSpline
210
0.0
220
0.0
230
1.0
 70
    11
 71
     3
 72
    92
 73
    88
 74
     0
 42
0.0000000001
 43
0.0000000001
 12
1.0
 22
0.0
 32
0.0
 13
1.0
 23
0.0
 33
0.0
 40
0.0
 40
0.0
 40
0.0
 40
0.0
 40
1.0
 40
1.0
 40
1.0
 40
2.0
 40
2.0
 40
2.0
 40
3.0
 40
3.0
 40
3.0
 40
4.0
 40
4.0
 40
4.0
 40
5.0
 40
5.0
 40
5.0
 40
6.0
 40
6.0
 40
6.0
 40
7.0
 40
7.0
 40
7.0
 40
8.0
 40
8.0
 40
8.0
 40
9.0
 40
9.0
 40
9.0
 40
10.0
 40
10.0
 40
10.0
 40
11.0
 40
11.0
 40
11.0
 40
12.0
 40
12.0
 40
12.0
 40
13.0
 40
13.0
 40
13.0
 40
14.0
 40
14.0
 40
14.0
 40
15.0
 40
15.0
 40
15.0
 40
16.0
 40
16.0
 40
16.0
 40
17.0
 40
17.0
 40
17.0
 40
18.0
 40
18.0
 40
18.0
 40
19.0
 40
19.0
 40
19.0
 40
20.0
 40
20.0
 40
20.0
 40
21.0
 40
21.0
 40
21.0
 40
22.0
 40
22.0
 40
22.0
 40
23.0
 40
23.0
 40
23.0
 40
24.0
 40
24.0
 40
24.0
 40
25.0
 40
25.0
 40
25.0
 40
26.0
 40
26.0
 40
26.0
 40
27.0
 40
27.0
 40
27.0
 40
28.0
 40
28.0
 40
28.0
 40
29.0
 40
29.0
 40
29.0
 40
29.0
 10
305.316392287059
 20
-393.9474000000009
 30
0.0
 10
283.1549999999997
 20
-409.4719999999998
 30
0.0
 10
266.3338932718398
 20
-429.7270000000008
 30
0.0
 10
253.723
 20
-453.5701000000008
 30
0.0
 10
253.2304936028595
 20
-454.5012999999999
 30
0.0
 10
252.7671936145634
 20
-455.3881999999994
 30
0.0
 10
251.7383936405531
 20
-455.8747999999996
 30
0.0
 10
241.1634939076976
 20
-460.8765000000003
 30
0.0
 10
230.2950000000001
 20
-464.7839999999997
 30
0.0
 10
218.3912944829717
 20
-464.7950000000001
 30
0.0
 10
203.0534948704371
 20
-464.8093000000008
 30
0.0
 10
192.5811951349897
 20
-457.8888000000006
 30
0.0
 10
186.5620952870449
 20
-443.7271999999994
 30
0.0
 10
181.4415954163997
 20
-431.6798999999992
 30
0.0
 10
180.0990954503141
 20
-419.0064999999995
 30
0.0
 10
180.5180954397292
 20
-406.0681999999997
 30
0.0
 10
180.6583954361849
 20
-401.7356999999993
 30
0.0
 10
181.0362954266384
 20
-397.4174000000003
 30
0.0
 10
181.8092954071108
 20
-393.1422000000002
 30
0.0
 10
181.9167954043951
 20
-392.5473999999995
 30
0.0
 10
181.8623954057693
 20
-391.9110999999994
 30
0.0
 10
182.5272953889726
 20
-391.4943999999996
 30
0.0
 10
183.9438953531862
 20
-392.3325000000004
 30
0.0
 10
184.9040953289295
 20
-393.7021000000004
 30
0.0
 10
186.0678952995295
 20
-394.8449999999993
 30
0.0
 10
187.1859999999997
 20
-395.9431999999997
 30
0.0
 10
188.3078952429423
 20
-397.0048999999999
 30
0.0
 10
189.7606952062415
 20
-397.6713999999993
 30
0.0
 10
190.3123951923044
 20
-397.9246000000003
 30
0.0
 10
190.907295177276
 20
-398.4591
 30
0.0
 10
191.4293951640866
 20
-398.1463000000003
 30
0.0
 10
192.1210951466128
 20
-397.7317000000003
 30
0.0
 10
191.7747951553611
 20
-396.8672999999999
 30
0.0
 10
191.6784951577938
 20
-396.2420000000002
 30
0.0
 10
191.0559999999996
 20
-392.2034999999996
 30
0.0
 10
189.7981952052942
 20
-388.3351000000002
 30
0.0
 10
188.2804952436345
 20
-384.5588000000007
 30
0.0
 10
181.5031954148435
 20
-367.6958999999997
 30
0.0
 10
172.1973956499278
 20
-352.1552000000001
 30
0.0
 10
163.1088958795226
 20
-336.4994999999999
 30
0.0
 10
155.634
 20
-323.6233000000002
 30
0.0
 10
147.2071962812333
 20
-311.2819
 30
0.0
 10
140.9331964397279
 20
-297.7308000000003
 30
0.0
 10
135.7974965694666
 20
-286.6385
 30
0.0
 10
132.2205966598267
 20
-275.1333999999997
 30
0.0
 10
132.7810966456673
 20
-262.6815999999999
 30
0.0
 10
133.4751966281328
 20
-247.2638999999999
 30
0.0
 10
142.901196390012
 20
-236.9789000000001
 30
0.0
 10
158.2821960014553
 20
-235.0589
 30
0.0
 10
174.9696955798936
 20
-232.9758000000002
 30
0.0
 10
190.8805951779505
 20
-236.1154999999999
 30
0.0
 10
206.2082947907402
 20
-242.6048000000001
 30
0.0
 10
223.0891943642928
 20
-249.7515999999996
 30
0.0
 10
237.6778939957512
 20
-260.4925999999996
 30
0.0
 10
251.3742936497511
 20
-272.4272000000001
 30
0.0
 10
265.4740932935601
 20
-284.7132000000001
 30
0.0
 10
278.1525929732743
 20
-298.3485000000001
 30
0.0
 10
288.8000000000002
 20
-313.8199999999997
 30
0.0
 10
293.0474925969975
 20
-319.9919
 30
0.0
 10
295.2127925422974
 20
-326.5972000000002
 30
0.0
 10
294.8982925502423
 20
-334.0676000000003
 30
0.0
 10
294.7631925536552
 20
-337.2740999999996
 30
0.0
 10
294.8111925524427
 20
-340.4881999999998
 30
0.0
 10
294.7621925536805
 20
-343.6988000000001
 30
0.0
 10
294.7366925543247
 20
-345.3766999999998
 30
0.0
 10
294.0905925706465
 20
-345.7172
 30
0.0
 10
292.4818926112857
 20
-345.0361000000003
 30
0.0
 10
286.3537927660946
 20
-342.4417000000003
 30
0.0
 10
280.3881929167983
 20
-339.4281000000001
 30
0.0
 10
273.8175930827856
 20
-337.9641000000001
 30
0.0
 10
265.3389999999999
 20
-336.0748000000003
 30
0.0
 10
257.1226935045343
 20
-336.6228000000001
 30
0.0
 10
249.2244937040596
 20
-340.3541000000005
 30
0.0
 10
246.8639999999996
 20
-341.4694
 30
0.0
 10
244.7664938166781
 20
-342.9897000000001
 30
0.0
 10
243.3405938526994
 20
-345.5147999999999
 30
0.0
 10
245.537493797201
 20
-346.4191000000001
 30
0.0
 10
247.7410937415334
 20
-346.1995999999999
 30
0.0
 10
249.8032936894379
 20
-345.8734000000004
 30
0.0
 10
265.3422932968897
 20
-343.4159
 30
0.0
 10
279.3972929418305
 20
-347.4937
 30
0.0
 10
292.3660926142111
 20
-355.7374
 30
0.0
 10
303.1766923411124
 20
-362.6090999999997
 30
0.0
 10
309.1803921894461
 20
-372.4898000000003
 30
0.0
 10
309.400292183891
 20
-385.5403000000006
 30
0.0
 10
309.4588921824106
 20
-389.0213999999996
 30
0.0
 10
308.6196922036106
 20
-391.6334000000006
 30
0.0
 10
305.316392287059
 20
-393.9474000000009
 30
0.0
  0
SPLINE
  5
4B
330
41
100
AcDbEntity
  8
Layer 1
370
     0
100
AcDbSpline
210
0.0
220
0.0
230
1.0
 70
    11
 71
     3
 72
    47
 73
    43
 74
     0
 42
0.0000000001
 43
0.0000000001
 12
1.0
 22
0.0
 32
0.0
 13
1.0
 23
0.0
 33
0.0
 40
0.0
 40
0.0
 40
0.0
 40
0.0
 40
1.0
 40
1.0
 40
1.0
 40
2.0
 40
2.0
 40
2.0
 40
3.0
 40
3.0
 40
3.0
 40
4.0
 40
4.0
 40
4.0
 40
5.0
 40
5.0
 40
5.0
 40
6.0
 40
6.0
 40
6.0
 40
7.0
 40
7.0
 40
7.0
 40
8.0
 40
8.0
 40
8.0
 40
9.0
 40
9.0
 40
9.0
 40
10.0
 40
10.0
 40
10.0
 40
11.0
 40
11.0
 40
11.0
 40
12.0
 40
12.0
 40
12.0
 40
13.0
 40
13.0
 40
13.0
 40
14.0
 40
14.0
 40
14.0
 40
14.0
 10
357.3570909724003
 20
-367.9943000000003
 30
0.0
 10
356.7030909889218
 20
-369.2110000000002
 30
0.0
 10
355.839891010728
 20
-369.9575999999997
 30
0.0
 10
354.4646910454685
 20
-370.3217999999997
 30
0.0
 10
346.1710912549825
 20
-372.5181000000002
 30
0.0
 10
338.1773914569203
 20
-375.5528000000004
 30
0.0
 10
330.4252916527548
 20
-379.2121999999999
 30
0.0
 10
329.0210916882279
 20
-379.8752000000004
 30
0.0
 10
327.883691716961
 20
-379.8217000000004
 30
0.0
 10
326.5672917502161
 20
-379.0267999999996
 30
0.0
 10
324.7758917954707
 20
-377.9451000000008
 30
0.0
 10
322.9790918408617
 20
-376.8520000000008
 30
0.0
 10
321.5678918765116
 20
-375.3239999999996
 30
0.0
 10
314.0901920654142
 20
-367.2273999999998
 30
0.0
 10
308.0238922186618
 20
-358.1257999999998
 30
0.0
 10
304.6820923030828
 20
-347.6332000000002
 30
0.0
 10
301.8593923743902
 20
-338.7705999999998
 30
0.0
 10
302.3812923612059
 20
-329.6368000000002
 30
0.0
 10
305.7734922755117
 20
-320.8671999999997
 30
0.0
 10
310.1466921650353
 20
-309.5618999999997
 30
0.0
 10
320.0021919160645
 20
-305.8181999999997
 30
0.0
 10
330.7856916436504
 20
-311.3098
 30
0.0
 10
333.602491572492
 20
-312.7442000000001
 30
0.0
 10
336.2822915047946
 20
-314.4459999999999
 30
0.0
 10
338.7262914430539
 20
-317.4358000000002
 30
0.0
 10
332.629691597067
 20
-316.5933000000005
 30
0.0
 10
327.8061917189189
 20
-318.2492000000002
 30
0.0
 10
323.7764918207176
 20
-322.1055999999999
 30
0.0
 10
320.3320000000003
 20
-325.402
 30
0.0
 10
317.6418919756907
 20
-329.2066000000004
 30
0.0
 10
316.7526919981538
 20
-333.9844000000003
 30
0.0
 10
315.2401920363627
 20
-342.1124
 30
0.0
 10
319.3756919318912
 20
-349.6424999999999
 30
0.0
 10
327.3055917315651
 20
-353.4188000000004
 30
0.0
 10
334.2920000000004
 20
-356.7457999999997
 30
0.0
 10
343.832391314063
 20
-356.7978999999996
 30
0.0
 10
352.4113910973392
 20
-345.8567000000003
 30
0.0
 10
353.2330910765813
 20
-348.5472
 30
0.0
 10
355.084491029811
 20
-350.335
 30
0.0
 10
356.3513909978064
 20
-352.4830000000002
 30
0.0
 10
359.3096909230735
 20
-357.4988000000003
 30
0.0
 10
360.2558908991705
 20
-362.6009999999997
 30
0.0
 10
357.3570909724003
 20
-367.9943000000003
 30
0.0
  0
SPLINE
  5
4C
330
41
100
AcDbEntity
  8
Layer 1
370
     0
100
AcDbSpline
210
0.0
220
0.0
230
1.0
 70
    11
 71
     3
 72
    89
 73
    85
 74
     0
 42
0.0000000001
 43
0.0000000001
 12
1.0
 22
0.0
 32
0.0
 13
1.0
 23
0.0
 33
0.0
 40
0.0
 40
0.0
 40
0.0
 40
0.0
 40
1.0
 40
1.0
 40
1.0
 40
2.0
 40
2.0
 40
2.0
 40
3.0
 40
3.0
 40
3.0
 40
4.0
 40
4.0
 40
4.0
 40
5.0
 40
5.0
 40
5.0
 40
6.0
 40
6.0
 40
6.0
 40
7.0
 40
7.0
 40
7.0
 40
8.0
 40
8.0
 40
8.0
 40
9.0
 40
9.0
 40
9.0
 40
10.0
 40
10.0
 40
10.0
 40
11.0
 40
11.0
 40
11.0
 40
12.0
 40
12.0
 40
12.0
 40
13.0
 40
13.0
 40
13.0
 40
14.0
 40
14.0
 40
14.0
 40
15.0
 40
15.0
 40
15.0
 40
16.0
 40
16.0
 40
16.0
 40
17.0
 40
17.0
 40
17.0
 40
18.0
 40
18.0
 40
18.0
 40
19.0
 40
19.0
 40
19.0
 40
20.0
 40
20.0
 40
20.0
 40
21.0
 40
21.0
 40
21.0
 40
22.0
 40
22.0
 40
22.0
 40
23.0
 40
23.0
 40
23.0
 40
24.0
 40
24.0
 40
24.0
 40
25.0
 40
25.0
 40
25.0
 40
26.0
 40
26.0
 40
26.0
 40
27.0
 40
27.0
 40
27.0
 40
28.0
 40
28.0
 40
28.0
 40
28.0
 10
494.4001875104004
 20
-358.9472999999998
 30
0.0
 10
490.5789999999997
 20
-363.9175999999998
 30
0.0
 10
485.2255877421703
 20
-366.8312999999998
 30
0.0
 10
479.6651878826378
 20
-369.3325000000004
 30
0.0
 10
474.0648880241133
 20
-371.8518000000004
 30
0.0
 10
468.280588170237
 20
-373.9178000000002
 30
0.0
 10
462.4326883179674
 20
-375.8096999999998
 30
0.0
 10
460.9213883561461
 20
-376.2986000000001
 30
0.0
 10
459.6298883887721
 20
-376.2383000000009
 30
0.0
 10
458.1751884255209
 20
-375.6764000000003
 30
0.0
 10
437.3107889526
 20
-367.6163999999999
 30
0.0
 10
415.6896894987949
 20
-363.7811000000002
 30
0.0
 10
393.3263900637394
 20
-364.3387000000002
 30
0.0
 10
388.4765901862556
 20
-364.4597000000003
 30
0.0
 10
383.6332903086077
 20
-364.973
 30
0.0
 10
378.7971904307778
 20
-365.4169000000002
 30
0.0
 10
377.5949999999993
 20
-365.5271000000002
 30
0.0
 10
376.6463904851116
 20
-365.3982999999998
 30
0.0
 10
375.6601905100251
 20
-364.6587
 30
0.0
 10
371.8904906052558
 20
-361.8316999999997
 30
0.0
 10
368.4508906921474
 20
-358.6881999999996
 30
0.0
 10
365.6167907637428
 20
-354.8977000000004
 30
0.0
 10
362.4081908447988
 20
-350.6063000000004
 30
0.0
 10
361.2091908750881
 20
-345.7443000000003
 30
0.0
 10
361.3935908704298
 20
-340.4755000000005
 30
0.0
 10
362.0754908532035
 20
-320.9961999999996
 30
0.0
 10
367.0268907281206
 20
-303.0684000000001
 30
0.0
 10
380.1710000000003
 20
-288.0190000000002
 30
0.0
 10
382.884290327529
 20
-284.9123
 30
0.0
 10
385.5390902604631
 20
-281.6540999999997
 30
0.0
 10
387.0038902234592
 20
-276.9309999999996
 30
0.0
 10
379.7028904078979
 20
-280.1489000000001
 30
0.0
 10
374.3704905426057
 20
-284.799
 30
0.0
 10
370.0020906529608
 20
-290.6630999999998
 30
0.0
 10
364.3400907959949
 20
-298.2635
 30
0.0
 10
361.1587908763613
 20
-307.0977999999996
 30
0.0
 10
357.4853909691592
 20
-315.6900999999998
 30
0.0
 10
356.547790992845
 20
-317.8833999999997
 30
0.0
 10
355.549
 20
-320.0504000000001
 30
0.0
 10
354.4790000000003
 20
-322.4522999999999
 30
0.0
 10
348.570391194371
 20
-315.2726000000002
 30
0.0
 10
343.8170913144495
 20
-308.0334999999995
 30
0.0
 10
343.3599999999997
 20
-298.6673000000001
 30
0.0
 10
342.9075913374254
 20
-289.3969999999999
 30
0.0
 10
342.121291357289
 20
-280.1612000000005
 30
0.0
 10
342.6366913442689
 20
-270.8469000000005
 30
0.0
 10
343.6048913198101
 20
-253.3490000000002
 30
0.0
 10
347.0334912331964
 20
-236.3334999999997
 30
0.0
 10
352.376091098231
 20
-219.7115000000003
 30
0.0
 10
357.835090960325
 20
-202.7273000000005
 30
0.0
 10
365.0413907782786
 20
-186.5383000000002
 30
0.0
 10
375.9501905026991
 20
-172.2412999999997
 30
0.0
 10
382.653590333357
 20
-163.4558999999999
 30
0.0
 10
390.3066901400234
 20
-155.7380000000003
 30
0.0
 10
400.8325898741168
 20
-151.5402999999997
 30
0.0
 10
410.2351896365872
 20
-147.7906999999996
 30
0.0
 10
419.7255893968395
 20
-146.9321
 30
0.0
 10
428.9683891633467
 20
-151.8245999999999
 30
0.0
 10
435.9434889871409
 20
-155.5168000000003
 30
0.0
 10
440.5589999999993
 20
-161.6400999999996
 30
0.0
 10
444.2951887761592
 20
-168.4096
 30
0.0
 10
449.720788639097
 20
-178.2401
 30
0.0
 10
452.5375885679387
 20
-188.9318000000003
 30
0.0
 10
454.2604885244145
 20
-199.9373999999998
 30
0.0
 10
457.1467884515005
 20
-218.3752000000004
 30
0.0
 10
457.1993884501717
 20
-236.8963999999996
 30
0.0
 10
455.9831884808955
 20
-255.4786000000004
 30
0.0
 10
455.3432884970607
 20
-265.2554
 30
0.0
 10
454.7124885129961
 20
-275.0640000000003
 30
0.0
 10
455.8310884847378
 20
-284.8622999999998
 30
0.0
 10
456.1427884768636
 20
-287.5918000000001
 30
0.0
 10
456.4747884684766
 20
-290.3278
 30
0.0
 10
458.0231884293607
 20
-293.0084999999999
 30
0.0
 10
462.109888326122
 20
-289.0999000000002
 30
0.0
 10
461.7562883350547
 20
-283.9233999999997
 30
0.0
 10
462.7517883099063
 20
-279.0149000000001
 30
0.0
 10
464.5987882632471
 20
-279.3535000000002
 30
0.0
 10
466.1067882251518
 20
-280.3433000000005
 30
0.0
 10
467.5014881899187
 20
-281.3852999999999
 30
0.0
 10
484.6357877570699
 20
-294.1868999999997
 30
0.0
 10
496.0832874678817
 20
-310.7713999999996
 30
0.0
 10
499.9313873706706
 20
-331.9763999999996
 30
0.0
 10
501.6573873270681
 20
-341.4875000000002
 30
0.0
 10
500.6063873536186
 20
-350.8746000000001
 30
0.0
 10
494.4001875104004
 20
-358.9472999999998
 30
0.0
  0
SPLINE
  5
4D
330
41
100
AcDbEntity
  8
Layer 1
370
     0
100
AcDbSpline
210
0.0
220
0.0
230
1.0
 70
    11
 71
     3
 72
    38
 73
    34
 74
     0
 42
0.0000000001
 43
0.0000000001
 12
1.0
 22
0.0
 32
0.0
 13
1.0
 23
0.0
 33
0.0
 40
0.0
 40
0.0
 40
0.0
 40
0.0
 40
1.0
 40
1.0
 40
1.0
 40
2.0
 40
2.0
 40
2.0
 40
3.0
 40
3.0
 40
3.0
 40
4.0
 40
4.0
 40
4.0
 40
5.0
 40
5.0
 40
5.0
 40
6.0
 40
6.0
 40
6.0
 40
7.0
 40
7.0
 40
7.0
 40
8.0
 40
8.0
 40
8.0
 40
9.0
 40
9.0
 40
9.0
 40
10.0
 40
10.0
 40
10.0
 40
11.0
 40
11.0
 40
11.0
 40
11.0
 10
632.3335840259097
 20
-582.6280999999999
 30
0.0
 10
631.4753840475896
 20
-588.8922000000002
 30
0.0
 10
628.1841841307323
 20
-593.2819
 30
0.0
 10
622.1886842821914
 20
-595.6412
 30
0.0
 10
617.446384401992
 20
-597.5074000000004
 30
0.0
 10
612.7133845215576
 20
-598.9951999999994
 30
0.0
 10
607.5430846521704
 20
-597.7027999999991
 30
0.0
 10
603.7088847490304
 20
-596.7443999999996
 30
0.0
 10
602.8541847706219
 20
-595.6612999999998
 30
0.0
 10
603.2786847598982
 20
-591.723
 30
0.0
 10
605.0607847148785
 20
-575.1893
 30
0.0
 10
600.0950848403227
 20
-560.4022999999997
 30
0.0
 10
591.5708850556621
 20
-546.5612999999994
 30
0.0
 10
586.7280851780015
 20
-538.6977999999999
 30
0.0
 10
580.8781853257824
 20
-531.6177000000007
 30
0.0
 10
574.2478854932779
 20
-525.1970000000001
 30
0.0
 10
573.2055855196086
 20
-524.1877000000004
 30
0.0
 10
573.0284855240825
 20
-523.4058999999997
 30
0.0
 10
573.6565855082154
 20
-522.0730000000003
 30
0.0
 10
577.9340854001566
 20
-512.9966000000004
 30
0.0
 10
585.0711852198583
 20
-509.8737999999994
 30
0.0
 10
594.607684978946
 20
-513.1923000000006
 30
0.0
 10
603.2547847605019
 20
-516.2013000000006
 30
0.0
 10
609.7535845963284
 20
-522.1378000000004
 30
0.0
 10
615.4466844525086
 20
-529.0542000000005
 30
0.0
 10
624.6386842202992
 20
-540.2211000000007
 30
0.0
 10
630.2468840786241
 20
-552.9930000000004
 30
0.0
 10
632.2688840275441
 20
-567.3114000000005
 30
0.0
 10
632.6319999999996
 20
-569.8827000000001
 30
0.0
 10
632.6696840174191
 20
-572.4999000000007
 30
0.0
 10
632.8757840122125
 20
-575.3457999999991
 30
0.0
 10
632.715484016262
 20
-577.6124999999993
 30
0.0
 10
632.6742840173029
 20
-580.1409000000003
 30
0.0
 10
632.3335840259097
 20
-582.6280999999999
 30
0.0
  0
SPLINE
  5
4E
330
41
100
AcDbEntity
  8
Layer 1
370
     0
100
AcDbSpline
210
0.0
220
0.0
230
1.0
 70
    11
 71
     3
 72
    35
 73
    31
 74
     0
 42
0.0000000001
 43
0.0000000001
 12
1.0
 22
0.0
 32
0.0
 13
1.0
 23
0.0
 33
0.0
 40
0.0
 40
0.0
 40
0.0
 40
0.0
 40
1.0
 40
1.0
 40
1.0
 40
2.0
 40
2.0
 40
2.0
 40
3.0
 40
3.0
 40
3.0
 40
4.0
 40
4.0
 40
4.0
 40
5.0
 40
5.0
 40
5.0
 40
6.0
 40
6.0
 40
6.0
 40
7.0
 40
7.0
 40
7.0
 40
8.0
 40
8.0
 40
8.0
 40
9.0
 40
9.0
 40
9.0
 40
10.0
 40
10.0
 40
10.0
 40
10.0
 10
668.5271831115824
 20
-579.5871999999999
 30
0.0
 10
667.2841831429832
 20
-586.4107999999997
 30
0.0
 10
661.4590832901376
 20
-591.1767
 30
0.0
 10
654.4877834662475
 20
-591.4123999999993
 30
0.0
 10
650.1739999999991
 20
-591.5583000000006
 30
0.0
 10
646.3109999999997
 20
-590.2891
 30
0.0
 10
642.6660837648888
 20
-588.101200000001
 30
0.0
 10
641.5235837937507
 20
-587.4153999999999
 30
0.0
 10
640.9185838090343
 20
-586.6913000000004
 30
0.0
 10
641.1527838031179
 20
-585.1947999999993
 30
0.0
 10
641.473
 20
-583.1476999999995
 30
0.0
 10
641.4546837954913
 20
-581.0476999999992
 30
0.0
 10
641.6114837915302
 20
-578.4781999999996
 30
0.0
 10
642.6280837658487
 20
-562.3600999999999
 30
0.0
 10
638.081583880703
 20
-547.4655999999995
 30
0.0
 10
627.7618841414005
 20
-534.3762000000006
 30
0.0
 10
623.6298842457836
 20
-529.1353999999992
 30
0.0
 10
619.4924843503031
 20
-523.8974999999991
 30
0.0
 10
615.2672844570407
 20
-518.7322000000004
 30
0.0
 10
614.106084486375
 20
-517.3125
 30
0.0
 10
614.1194844860365
 20
-516.7608999999993
 30
0.0
 10
615.9918844387357
 20
-516.1983999999993
 30
0.0
 10
624.6898842190058
 20
-513.5859
 30
0.0
 10
632.511384021418
 20
-515.8485000000001
 30
0.0
 10
639.5866838426809
 20
-520.8017
 30
0.0
 10
654.5183834654745
 20
-531.2548000000006
 30
0.0
 10
663.4018832410584
 20
-545.8706000000002
 30
0.0
 10
667.8314831291573
 20
-563.3453000000009
 30
0.0
 10
669.1851830949599
 20
-568.6859000000004
 30
0.0
 10
669.5184830865401
 20
-574.1450000000004
 30
0.0
 10
668.5271831115824
 20
-579.5871999999999
 30
0.0
  0
SPLINE
  5
4F
330
41
100
AcDbEntity
  8
Layer 1
370
     0
100
AcDbSpline
210
0.0
220
0.0
230
1.0
 70
    11
 71
     3
 72
    26
 73
    22
 74
     0
 42
0.0000000001
 43
0.0000000001
 12
1.0
 22
0.0
 32
0.0
 13
1.0
 23
0.0
 33
0.0
 40
0.0
 40
0.0
 40
0.0
 40
0.0
 40
1.0
 40
1.0
 40
1.0
 40
2.0
 40
2.0
 40
2.0
 40
3.0
 40
3.0
 40
3.0
 40
4.0
 40
4.0
 40
4.0
 40
5.0
 40
5.0
 40
5.0
 40
6.0
 40
6.0
 40
6.0
 40
7.0
 40
7.0
 40
7.0
 40
7.0
 10
695.5840000000007
 20
-572.2122999999992
 30
0.0
 10
693.9597824691009
 20
-578.7410999999993
 30
0.0
 10
687.1485826411663
 20
-582.3065999999999
 30
0.0
 10
680.795882801649
 20
-580.1623999999993
 30
0.0
 10
678.606082856968
 20
-579.4231999999993
 30
0.0
 10
677.5196828844128
 20
-578.2176999999992
 30
0.0
 10
677.1996828924966
 20
-575.7844999999998
 30
0.0
 10
675.9353829244355
 20
-566.1679000000004
 30
0.0
 10
674.1940829684245
 20
-556.6556
 30
0.0
 10
669.513183086674
 20
-547.9611000000004
 30
0.0
 10
667.210883144835
 20
-543.6846000000005
 30
0.0
 10
664.3244832177515
 20
-539.8168000000005
 30
0.0
 10
660.8692833050372
 20
-535.5601000000006
 30
0.0
 10
665.7575831815484
 20
-536.0508000000009
 30
0.0
 10
669.7739999999994
 20
-537.2849000000006
 30
0.0
 10
673.5855829837965
 20
-539.1975999999995
 30
0.0
 10
682.9566827470626
 20
-543.9001000000007
 30
0.0
 10
689.9528825703237
 20
-550.9274000000005
 30
0.0
 10
694.6100000000006
 20
-560.3637999999992
 30
0.0
 10
696.5348824040484
 20
-564.2641999999996
 30
0.0
 10
696.5849999999991
 20
-568.1888999999992
 30
0.0
 10
695.5840000000007
 20
-572.2122999999992
 30
0.0
  0
ENDBLK
  5
44
330
41
100
AcDbEntity
  8
0
100
AcDbBlockEnd
  0
BLOCK
  5
52
330
50
100
AcDbEntity
  8
0
100
AcDbBlockBegin
  2
block 3
 70
     0
 10
0.0
 20
0.0
 30
0.0
  3
block 3
  1

  0
SPLINE
  5
54
330
50
100
AcDbEntity
  8
Layer 1
370
     0
100
AcDbSpline
210
0.0
220
0.0
230
1.0
 70
    11
 71
     3
 72
   221
 73
   217
 74
     0
 42
0.0000000001
 43
0.0000000001
 12
1.0
 22
0.0
 32
0.0
 13
1.0
 23
0.0
 33
0.0
 40
0.0
 40
0.0
 40
0.0
 40
0.0
 40
1.0
 40
1.0
 40
1.0
 40
2.0
 40
2.0
 40
2.0
 40
3.0
 40
3.0
 40
3.0
 40
4.0
 40
4.0
 40
4.0
 40
5.0
 40
5.0
 40
5.0
 40
6.0
 40
6.0
 40
6.0
 40
7.0
 40
7.0
 40
7.0
 40
8.0
 40
8.0
 40
8.0
 40
9.0
 40
9.0
 40
9.0
 40
10.0
 40
10.0
 40
10.0
 40
11.0
 40
11.0
 40
11.0
 40
12.0
 40
12.0
 40
12.0
 40
13.0
 40
13.0
 40
13.0
 40
14.0
 40
14.0
 40
14.0
 40
15.0
 40
15.0
 40
15.0
 40
16.0
 40
16.0
 40
16.0
 40
17.0
 40
17.0
 40
17.0
 40
18.0
 40
18.0
 40
18.0
 40
19.0
 40
19.0
 40
19.0
 40
20.0
 40
20.0
 40
20.0
 40
21.0
 40
21.0
 40
21.0
 40
22.0
 40
22.0
 40
22.0
 40
23.0
 40
23.0
 40
23.0
 40
24.0
 40
24.0
 40
24.0
 40
25.0
 40
25.0
 40
25.0
 40
26.0
 40
26.0
 40
26.0
 40
27.0
 40
27.0
 40
27.0
 40
28.0
 40
28.0
 40
28.0
 40
29.0
 40
29.0
 40
29.0
 40
30.0
 40
30.0
 40
30.0
 40
31.0
 40
31.0
 40
31.0
 40
32.0
 40
32.0
 40
32.0
 40
33.0
 40
33.0
 40
33.0
 40
34.0
 40
34.0
 40
34.0
 40
35.0
 40
35.0
 40
35.0
 40
36.0
 40
36.0
 40
36.0
 40
37.0
 40
37.0
 40
37.0
 40
38.0
 40
38.0
 40
38.0
 40
39.0
 40
39.0
 40
39.0
 40
40.0
 40
40.0
 40
40.0
 40
41.0
 40
41.0
 40
41.0
 40
42.0
 40
42.0
 40
42.0
 40
43.0
 40
43.0
 40
43.0
 40
44.0
 40
44.0
 40
44.0
 40
45.0
 40
45.0
 40
45.0
 40
46.0
 40
46.0
 40
46.0
 40
47.0
 40
47.0
 40
47.0
 40
48.0
 40
48.0
 40
48.0
 40
49.0
 40
49.0
 40
49.0
 40
50.0
 40
50.0
 40
50.0
 40
51.0
 40
51.0
 40
51.0
 40
52.0
 40
52.0
 40
52.0
 40
53.0
 40
53.0
 40
53.0
 40
54.0
 40
54.0
 40
54.0
 40
55.0
 40
55.0
 40
55.0
 40
56.0
 40
56.0
 40
56.0
 40
57.0
 40
57.0
 40
57.0
 40
58.0
 40
58.0
 40
58.0
 40
59.0
 40
59.0
 40
59.0
 40
60.0
 40
60.0
 40
60.0
 40
61.0
 40
61.0
 40
61.0
 40
62.0
 40
62.0
 40
62.0
 40
63.0
 40
63.0
 40
63.0
 40
64.0
 40
64.0
 40
64.0
 40
65.0
 40
65.0
 40
65.0
 40
66.0
 40
66.0
 40
66.0
 40
67.0
 40
67.0
 40
67.0
 40
68.0
 40
68.0
 40
68.0
 40
69.0
 40
69.0
 40
69.0
 40
70.0
 40
70.0
 40
70.0
 40
71.0
 40
71.0
 40
71.0
 40
72.0
 40
72.0
 40
72.0
 40
72.0
 10
457.0255884545622
 20
-535.6241000000009
 30
0.0
 10
458.1447884262889
 20
-535.8469000000005
 30
0.0
 10
459.4868883923846
 20
-536.6005999999998
 30
0.0
 10
460.1738883750295
 20
-534.9650999999994
 30
0.0
 10
460.8501883579447
 20
-533.3552
 30
0.0
 10
459.3761883951811
 20
-532.8600000000006
 30
0.0
 10
458.4638884182277
 20
-532.1988999999994
 30
0.0
 10
457.4896884428381
 20
-531.4928999999993
 30
0.0
 10
456.4077884701692
 20
-530.9164999999994
 30
0.0
 10
455.3224884975862
 20
-530.3865999999998
 30
0.0
 10
450.8400886108211
 20
-528.1977999999999
 30
0.0
 10
446.0031887330115
 20
-527.1445999999996
 30
0.0
 10
441.1396888558738
 20
-526.3567999999996
 30
0.0
 10
439.029488909182
 20
-526.0151000000005
 30
0.0
 10
438.8062889148205
 20
-525.1507000000001
 30
0.0
 10
439.2575889034197
 20
-523.4372999999996
 30
0.0
 10
440.297788877142
 20
-519.4884999999995
 30
0.0
 10
440.8465888632782
 20
-515.4438000000009
 30
0.0
 10
441.2024888542874
 20
-511.3937000000005
 30
0.0
 10
442.8317888131278
 20
-492.8579000000009
 30
0.0
 10
440.1096888818938
 20
-474.9107999999997
 30
0.0
 10
433.3426890528426
 20
-457.6206999999995
 30
0.0
 10
429.0831891604466
 20
-446.7374
 30
0.0
 10
423.746689295258
 20
-436.4285
 30
0.0
 10
414.9470000000001
 20
-428.3860000000004
 30
0.0
 10
413.4831895545358
 20
-427.0481999999993
 30
0.0
 10
413.7534895477074
 20
-426.6057000000001
 30
0.0
 10
415.1052895135581
 20
-425.4164999999994
 30
0.0
 10
426.6664892214976
 20
-415.2463000000007
 30
0.0
 10
431.174489107616
 20
-402.3840999999993
 30
0.0
 10
429.3790891529716
 20
-387.1918000000005
 30
0.0
 10
429.2177891570464
 20
-385.8269
 30
0.0
 10
429.0267891618714
 20
-384.4871000000003
 30
0.0
 10
427.2558892066081
 20
-384.4909000000007
 30
0.0
 10
425.3271892553312
 20
-384.4950000000008
 30
0.0
 10
425.2395892575441
 20
-385.9743999999992
 30
0.0
 10
425.0395892625966
 20
-387.4037000000008
 30
0.0
 10
424.0772892869063
 20
-394.2810000000009
 30
0.0
 10
422.6028893241528
 20
-401.0311000000002
 30
0.0
 10
419.9033893923479
 20
-407.4660999999996
 30
0.0
 10
417.591189450759
 20
-412.9778000000006
 30
0.0
 10
414.5115895285562
 20
-417.9547000000002
 30
0.0
 10
409.7733896482532
 20
-421.7271000000001
 30
0.0
 10
408.8900896705672
 20
-422.4302000000007
 30
0.0
 10
408.0249999999996
 20
-423.5115000000005
 30
0.0
 10
406.3422897349301
 20
-422.8824999999997
 30
0.0
 10
412.6301895760844
 20
-411.8433999999997
 30
0.0
 10
413.5228895535329
 20
-400.2317000000003
 30
0.0
 10
410.9818896177239
 20
-388.2494999999999
 30
0.0
 10
409.759
 20
-382.4832000000006
 30
0.0
 10
407.4542897068386
 20
-377.1900999999998
 30
0.0
 10
402.491389832212
 20
-373.4893000000002
 30
0.0
 10
401.4505898585048
 20
-372.7133000000003
 30
0.0
 10
400.4580000000005
 20
-372.0749999999998
 30
0.0
 10
399.2473899141623
 20
-373.0779000000002
 30
0.0
 10
398.0188899451969
 20
-374.0955999999996
 30
0.0
 10
398.5324899322222
 20
-375.2483000000002
 30
0.0
 10
399.0769999999993
 20
-376.3654000000006
 30
0.0
 10
402.4885898322827
 20
-383.366
 30
0.0
 10
404.5815897794091
 20
-390.7363999999998
 30
0.0
 10
405.1430897652244
 20
-398.5064000000002
 30
0.0
 10
405.7026897510877
 20
-406.2499000000007
 30
0.0
 10
404.3678897848076
 20
-413.6823999999997
 30
0.0
 10
401.2984898623472
 20
-420.8235000000004
 30
0.0
 10
400.7520898761504
 20
-422.0946999999996
 30
0.0
 10
399.773289900877
 20
-422.6599000000006
 30
0.0
 10
398.6804899284834
 20
-422.4688999999998
 30
0.0
 10
397.5367899573757
 20
-422.2690999999995
 30
0.0
 10
398.1039999999994
 20
-421.0210999999999
 30
0.0
 10
398.0850899435245
 20
-420.2543000000005
 30
0.0
 10
397.8502899494561
 20
-410.6913999999997
 30
0.0
 10
395.6726900044669
 20
-401.5694000000003
 30
0.0
 10
391.9038900996748
 20
-392.8116000000009
 30
0.0
 10
390.4290000000001
 20
-389.3842000000004
 30
0.0
 10
388.7978901781389
 20
-386.0288999999993
 30
0.0
 10
386.0976902463517
 20
-383.3469999999998
 30
0.0
 10
385.1224902709873
 20
-382.3783999999996
 30
0.0
 10
383.9981902993895
 20
-381.6162999999997
 30
0.0
 10
382.6605903331802
 20
-382.5967000000001
 30
0.0
 10
381.4108903647502
 20
-383.5126999999993
 30
0.0
 10
381.8540903535541
 20
-384.7098000000005
 30
0.0
 10
382.3852903401348
 20
-385.8744999999999
 30
0.0
 10
388.103090195691
 20
-398.4112999999998
 30
0.0
 10
391.0582901210364
 20
-411.5876000000007
 30
0.0
 10
391.540490108855
 20
-425.3430000000008
 30
0.0
 10
391.5840000000007
 20
-426.5830000000005
 30
0.0
 10
391.5365901089535
 20
-427.6805000000004
 30
0.0
 10
390.802190127506
 20
-428.7914999999994
 30
0.0
 10
388.2120901929375
 20
-432.7099999999991
 30
0.0
 10
387.1287902203039
 20
-437.1615999999995
 30
0.0
 10
386.5669999999991
 20
-441.7512000000006
 30
0.0
 10
385.0840000000007
 20
-453.8665000000001
 30
0.0
 10
386.5120000000006
 20
-465.8081000000002
 30
0.0
 10
388.9413901745138
 20
-477.6571000000004
 30
0.0
 10
392.5540000000001
 20
-495.2764999999999
 30
0.0
 10
398.094489943287
 20
-512.2546999999995
 30
0.0
 10
406.2672897368248
 20
-528.3197999999993
 30
0.0
 10
406.8743897214881
 20
-529.5131000000001
 30
0.0
 10
406.8775897214073
 20
-530.0444000000007
 30
0.0
 10
405.4055897585931
 20
-530.4905999999992
 30
0.0
 10
400.6817898779263
 20
-531.9225999999999
 30
0.0
 10
396.1446899925431
 20
-533.8786999999993
 30
0.0
 10
391.7184901043584
 20
-536.0421000000006
 30
0.0
 10
389.9200000000001
 20
-536.9210999999996
 30
0.0
 10
389.6106901576059
 20
-536.4791999999998
 30
0.0
 10
389.465090161284
 20
-534.7209999999995
 30
0.0
 10
388.5460000000003
 20
-523.6152000000002
 30
0.0
 10
385.8548902524853
 20
-512.8778999999995
 30
0.0
 10
382.4217903392127
 20
-502.3205999999991
 30
0.0
 10
377.1506904723719
 20
-486.1111999999994
 30
0.0
 10
370.5786906383946
 20
-470.5020000000004
 30
0.0
 10
360.5119999999997
 20
-456.5936999999994
 30
0.0
 10
356.9250000000002
 20
-451.6378999999997
 30
0.0
 10
352.8383910865523
 20
-447.1363999999994
 30
0.0
 10
347.0581912325724
 20
-444.6470000000008
 30
0.0
 10
345.8803912623262
 20
-444.1396999999997
 30
0.0
 10
344.9962912846604
 20
-443.4822000000004
 30
0.0
 10
344.2186913043042
 20
-442.5136000000002
 30
0.0
 10
337.8307914656762
 20
-434.5565999999999
 30
0.0
 10
332.5472915991486
 20
-425.9451000000008
 30
0.0
 10
328.8443916926917
 20
-416.4166999999998
 30
0.0
 10
327.5928917243073
 20
-413.1962999999996
 30
0.0
 10
326.5585917504359
 20
-409.8911000000007
 30
0.0
 10
325.4370917787674
 20
-406.6205000000009
 30
0.0
 10
325.0725917879754
 20
-405.5576000000001
 30
0.0
 10
324.5336918015892
 20
-404.7464999999993
 30
0.0
 10
323.2471918340889
 20
-404.7908000000007
 30
0.0
 10
321.9437918670155
 20
-404.8358000000007
 30
0.0
 10
321.5265918775549
 20
-405.6906999999992
 30
0.0
 10
321.2457918846485
 20
-406.7940999999992
 30
0.0
 10
320.8940918935332
 20
-408.1758000000009
 30
0.0
 10
320.9343918925151
 20
-409.5409
 30
0.0
 10
321.1630918867377
 20
-410.9205000000002
 30
0.0
 10
323.1522918364863
 20
-422.9223999999995
 30
0.0
 10
328.4832917018139
 20
-433.3925999999992
 30
0.0
 10
335.7996915169861
 20
-442.9658999999992
 30
0.0
 10
336.2349999999997
 20
-443.5355999999992
 30
0.0
 10
337.6037914714107
 20
-443.9856999999993
 30
0.0
 10
336.6380914958063
 20
-444.9853000000003
 30
0.0
 10
335.8903915146948
 20
-445.7592000000004
 30
0.0
 10
334.9160915393077
 20
-446.4182000000001
 30
0.0
 10
333.6407915715245
 20
-445.6131999999998
 30
0.0
 10
332.0323916121561
 20
-444.598
 30
0.0
 10
330.2683916567184
 20
-443.8240000000005
 30
0.0
 10
328.6860916966907
 20
-442.7734999999993
 30
0.0
 10
317.2171919864195
 20
-435.1587999999992
 30
0.0
 10
310.5573921546602
 20
-424.1970999999994
 30
0.0
 10
306.8514922482791
 20
-411.2029999999995
 30
0.0
 10
306.4735922578257
 20
-409.8780999999999
 30
0.0
 10
306.299
 20
-408.2819999999992
 30
0.0
 10
304.4202923096964
 20
-408.3786999999993
 30
0.0
 10
302.6292923549408
 20
-408.4709000000003
 30
0.0
 10
302.4154923603419
 20
-409.9429
 30
0.0
 10
302.1413923672662
 20
-411.3572000000004
 30
0.0
 10
301.0595923945948
 20
-416.9382000000005
 30
0.0
 10
302.6130000000003
 20
-422.0499999999993
 30
0.0
 10
305.1411922914849
 20
-426.8690000000006
 30
0.0
 10
310.5816921540463
 20
-437.2396000000008
 30
0.0
 10
318.2936919592248
 20
-445.2957999999999
 30
0.0
 10
329.3385916802072
 20
-449.8068000000003
 30
0.0
 10
329.8001916685462
 20
-449.9953999999998
 30
0.0
 10
330.7055916456738
 20
-449.9351999999999
 30
0.0
 10
330.5556916494606
 20
-450.8246999999992
 30
0.0
 10
330.4262916527296
 20
-451.5928000000004
 30
0.0
 10
329.8188916680738
 20
-451.9783000000007
 30
0.0
 10
329.0625916871795
 20
-452.0429999999997
 30
0.0
 10
328.2862917067905
 20
-452.1095000000005
 30
0.0
 10
327.5026917265859
 20
-452.1707000000006
 30
0.0
 10
326.7260917462045
 20
-452.1399000000001
 30
0.0
 10
321.0852918887031
 20
-451.9164000000001
 30
0.0
 10
315.8542920208492
 20
-450.2304999999997
 30
0.0
 10
310.8568921470942
 20
-447.6885000000002
 30
0.0
 10
304.6241923045454
 20
-444.5182000000004
 30
0.0
 10
299.1148924437221
 20
-440.3299999999999
 30
0.0
 10
293.9009999999998
 20
-435.7217000000001
 30
0.0
 10
292.9255926000769
 20
-434.8597000000009
 30
0.0
 10
291.9150926256043
 20
-434.1625000000004
 30
0.0
 10
290.7126926559795
 20
-435.2464999999993
 30
0.0
 10
289.5636926850057
 20
-436.2823000000008
 30
0.0
 10
289.9719999999998
 20
-437.4174999999996
 30
0.0
 10
290.6890000000003
 20
-438.5152999999991
 30
0.0
 10
290.9735926493886
 20
-438.9508000000005
 30
0.0
 10
291.2268926429897
 20
-439.4081000000006
 30
0.0
 10
291.5307926353125
 20
-439.8292999999994
 30
0.0
 10
299.8582924249422
 20
-451.3718000000008
 30
0.0
 10
311.0397921424737
 20
-457.7530999999999
 30
0.0
 10
325.3343917813618
 20
-458.4390000000003
 30
0.0
 10
326.7013917468284
 20
-458.5046000000002
 30
0.0
 10
327.3541917303373
 20
-458.5565999999999
 30
0.0
 10
326.9143917414476
 20
-460.3214000000007
 30
0.0
 10
326.0348917636657
 20
-463.8505000000005
 30
0.0
 10
325.6632917730531
 20
-467.4752000000008
 30
0.0
 10
325.5839999999998
 20
-471.1345999999994
 30
0.0
 10
325.3852917800759
 20
-480.3055999999997
 30
0.0
 10
326.5698917501504
 20
-489.3232000000007
 30
0.0
 10
328.9735916894278
 20
-498.1278000000002
 30
0.0
 10
334.9802915376858
 20
-520.1308000000008
 30
0.0
 10
344.5955912947829
 20
-540.0018
 30
0.0
 10
363.273390822942
 20
-554.2903000000006
 30
0.0
 10
364.2395907985338
 20
-555.0295000000006
 30
0.0
 10
364.1760000000004
 20
-555.5483000000004
 30
0.0
 10
363.4103908194811
 20
-556.3341
 30
0.0
 10
361.7146908623181
 20
-558.0743999999995
 30
0.0
 10
360.0371909046953
 20
-559.8346999999994
 30
0.0
 10
358.4088909458296
 20
-561.6380000000008
 30
0.0
 10
354.9514910331709
 20
-565.4668999999994
 30
0.0
 10
351.5302911195977
 20
-569.3282999999992
 30
0.0
 10
347.8010000000004
 20
-573.5048999999999
 30
0.0
 10
352.0397911067266
 20
-573.8356000000003
 30
0.0
 10
355.1810910273707
 20
-573.7731000000003
 30
0.0
 10
358.3073909483937
 20
-570.6213000000007
 30
0.0
 10
367.0620907272314
 20
-561.7952999999998
 30
0.0
 10
376.9026904786369
 20
-554.2361999999994
 30
0.0
 10
387.7720000000008
 20
-548.0931999999993
 30
0.0
 10
409.4062896575269
 20
-535.866
 30
0.0
 10
432.3038890790849
 20
-530.7005000000008
 30
0.0
 10
457.0255884545622
 20
-535.6241000000009
 30
0.0
  0
SPLINE
  5
55
330
50
100
AcDbEntity
  8
Layer 1
370
     0
100
AcDbSpline
210
0.0
220
0.0
230
1.0
 70
    11
 71
     3
 72
    47
 73
    43
 74
     0
 42
0.0000000001
 43
0.0000000001
 12
1.0
 22
0.0
 32
0.0
 13
1.0
 23
0.0
 33
0.0
 40
0.0
 40
0.0
 40
0.0
 40
0.0
 40
1.0
 40
1.0
 40
1.0
 40
2.0
 40
2.0
 40
2.0
 40
3.0
 40
3.0
 40
3.0
 40
4.0
 40
4.0
 40
4.0
 40
5.0
 40
5.0
 40
5.0
 40
6.0
 40
6.0
 40
6.0
 40
7.0
 40
7.0
 40
7.0
 40
8.0
 40
8.0
 40
8.0
 40
9.0
 40
9.0
 40
9.0
 40
10.0
 40
10.0
 40
10.0
 40
11.0
 40
11.0
 40
11.0
 40
12.0
 40
12.0
 40
12.0
 40
13.0
 40
13.0
 40
13.0
 40
14.0
 40
14.0
 40
14.0
 40
14.0
 10
406.25678973709
 20
-497.0105999999996
 30
0.0
 10
405.3182897607985
 20
-498.8974999999991
 30
0.0
 10
404.7422897753495
 20
-500.8801999999996
 30
0.0
 10
404.7177897759684
 20
-502.9964999999993
 30
0.0
 10
404.694689776552
 20
-504.9868999999999
 30
0.0
 10
404.7127897760947
 20
-506.9776999999995
 30
0.0
 10
404.7127897760947
 20
-508.9683999999997
 30
0.0
 10
402.5584898305169
 20
-505.0427999999993
 30
0.0
 10
401.1817898652953
 20
-500.8901000000005
 30
0.0
 10
399.9910898953749
 20
-496.6715999999997
 30
0.0
 10
395.3123900135688
 20
-480.0928999999996
 30
0.0
 10
392.2417900911387
 20
-463.2821000000004
 30
0.0
 10
392.8162900766256
 20
-445.9640999999992
 30
0.0
 10
392.9633900729095
 20
-441.5329999999994
 30
0.0
 10
393.4941900595004
 20
-437.1375000000007
 30
0.0
 10
395.3551900124876
 20
-433.0457000000006
 30
0.0
 10
397.9885899459623
 20
-427.2559000000001
 30
0.0
 10
402.0404898436027
 20
-426.1573000000008
 30
0.0
 10
407.256189711843
 20
-429.7844000000005
 30
0.0
 10
410.9441896186763
 20
-432.3490000000002
 30
0.0
 10
413.7385895480838
 20
-435.7870000000003
 30
0.0
 10
416.2567894844688
 20
-439.4361000000008
 30
0.0
 10
426.2717892314686
 20
-453.9483999999993
 30
0.0
 10
432.0951890843571
 20
-470.1321000000007
 30
0.0
 10
434.9426890124232
 20
-487.4171000000006
 30
0.0
 10
436.9468889617929
 20
-499.5828999999994
 30
0.0
 10
436.9222889624143
 20
-511.7576000000008
 30
0.0
 10
433.9072890385796
 20
-523.8042999999998
 30
0.0
 10
433.6326890455166
 20
-524.9017000000003
 30
0.0
 10
433.8031890412094
 20
-526.3340000000007
 30
0.0
 10
432.4784890746741
 20
-526.9460999999992
 30
0.0
 10
430.2468891310491
 20
-527.9773999999998
 30
0.0
 10
428.9323891642562
 20
-527.1206000000002
 30
0.0
 10
428.8942891652187
 20
-524.6270999999997
 30
0.0
 10
428.7754891682198
 20
-516.858400000001
 30
0.0
 10
427.8008891928403
 20
-509.2466000000004
 30
0.0
 10
424.5200892757202
 20
-502.1077000000005
 30
0.0
 10
422.9497893153894
 20
-498.6908000000003
 30
0.0
 10
420.9447893660399
 20
-495.5486999999994
 30
0.0
 10
417.5674894513577
 20
-493.5777999999991
 30
0.0
 10
413.1004895642036
 20
-490.9709000000003
 30
0.0
 10
408.5717896786082
 20
-492.3562999999995
 30
0.0
 10
406.25678973709
 20
-497.0105999999996
 30
0.0
  0
SPLINE
  5
56
330
50
100
AcDbEntity
  8
Layer 1
370
     0
100
AcDbSpline
210
0.0
220
0.0
230
1.0
 70
    11
 71
     3
 72
    47
 73
    43
 74
     0
 42
0.0000000001
 43
0.0000000001
 12
1.0
 22
0.0
 32
0.0
 13
1.0
 23
0.0
 33
0.0
 40
0.0
 40
0.0
 40
0.0
 40
0.0
 40
1.0
 40
1.0
 40
1.0
 40
2.0
 40
2.0
 40
2.0
 40
3.0
 40
3.0
 40
3.0
 40
4.0
 40
4.0
 40
4.0
 40
5.0
 40
5.0
 40
5.0
 40
6.0
 40
6.0
 40
6.0
 40
7.0
 40
7.0
 40
7.0
 40
8.0
 40
8.0
 40
8.0
 40
9.0
 40
9.0
 40
9.0
 40
10.0
 40
10.0
 40
10.0
 40
11.0
 40
11.0
 40
11.0
 40
12.0
 40
12.0
 40
12.0
 40
13.0
 40
13.0
 40
13.0
 40
14.0
 40
14.0
 40
14.0
 40
14.0
 10
374.0941905495856
 20
-509.9171000000006
 30
0.0
 10
369.4334906673248
 20
-505.7484999999997
 30
0.0
 10
364.5567907905206
 20
-506.5715
 30
0.0
 10
361.8326908593372
 20
-512.2050999999992
 30
0.0
 10
358.7756909365635
 20
-518.5270999999993
 30
0.0
 10
359.0067909307254
 20
-525.1126999999997
 30
0.0
 10
360.8593908839248
 20
-531.7219999999998
 30
0.0
 10
362.6604908384252
 20
-538.1478000000006
 30
0.0
 10
366.0741907521879
 20
-543.5571
 30
0.0
 10
371.1118906249249
 20
-547.9560000000001
 30
0.0
 10
371.634090611733
 20
-548.4118999999992
 30
0.0
 10
373.1898905724302
 20
-548.8513999999996
 30
0.0
 10
372.1121905996552
 20
-549.7965999999997
 30
0.0
 10
371.1263906245586
 20
-550.6612000000005
 30
0.0
 10
370.1987906479917
 20
-552.6031000000003
 30
0.0
 10
368.2577906970255
 20
-551.2556999999997
 30
0.0
 10
364.4627907928952
 20
-548.6213000000007
 30
0.0
 10
361.0621908788016
 20
-545.5414000000001
 30
0.0
 10
358.0576909547017
 20
-542.0388999999996
 30
0.0
 10
345.8140000000003
 20
-527.7656999999999
 30
0.0
 10
338.8162914407803
 20
-510.9526000000005
 30
0.0
 10
334.5036915497258
 20
-492.8922999999995
 30
0.0
 10
332.2021916078666
 20
-483.2546000000002
 30
0.0
 10
330.8053916431527
 20
-473.4974000000002
 30
0.0
 10
331.8406916169988
 20
-463.5347000000002
 30
0.0
 10
332.1556916090412
 20
-460.5035000000007
 30
0.0
 10
332.7415915942402
 20
-457.5414999999994
 30
0.0
 10
334.0187915619754
 20
-454.7664000000004
 30
0.0
 10
336.7282914935276
 20
-448.8786
 30
0.0
 10
341.623391369867
 20
-447.5673000000006
 30
0.0
 10
346.9712912347677
 20
-451.2085000000006
 30
0.0
 10
350.2515911519004
 20
-453.4418999999998
 30
0.0
 10
352.8772910855696
 20
-456.3413999999993
 30
0.0
 10
355.0943910295609
 20
-459.5552000000007
 30
0.0
 10
366.9158907309247
 20
-476.6913000000004
 30
0.0
 10
375.0297905259504
 20
-495.4966000000004
 30
0.0
 10
380.0679999999993
 20
-515.6602999999996
 30
0.0
 10
380.2110903950597
 20
-516.2332999999999
 30
0.0
 10
380.2197903948399
 20
-516.8397999999997
 30
0.0
 10
380.2910903930388
 20
-517.4307000000008
 30
0.0
 10
378.1622904468168
 20
-514.8207000000002
 30
0.0
 10
376.5083904885978
 20
-512.0763999999999
 30
0.0
 10
374.0941905495856
 20
-509.9171000000006
 30
0.0
  0
ENDBLK
  5
53
330
50
100
AcDbEntity
  8
0
100
AcDbBlockEnd
  0
ENDSEC
  0
SECTION
  2
ENTITIES
  0
INSERT
  5
42
330
1F
100
AcDbEntity
  8
Layer 1
100
AcDbBlockReference
  2
block 2
 10
0.0
 20
0.0
 30
0.0
  0
INSERT
  5
51
330
1F
100
AcDbEntity
  8
Layer 1
100
AcDbBlockReference
  2
block 3
 10
0.0
 20
0.0
 30
0.0
  0
SPLINE
  5
57
330
1F
100
AcDbEntity
  8
Layer 1
370
     0
100
AcDbSpline
210
0.0
220
0.0
230
1.0
 70
    11
 71
     3
 72
    29
 73
    25
 74
     0
 42
0.0000000001
 43
0.0000000001
 12
1.0
 22
0.0
 32
0.0
 13
1.0
 23
0.0
 33
0.0
 40
0.0
 40
0.0
 40
0.0
 40
0.0
 40
1.0
 40
1.0
 40
1.0
 40
2.0
 40
2.0
 40
2.0
 40
3.0
 40
3.0
 40
3.0
 40
4.0
 40
4.0
 40
4.0
 40
5.0
 40
5.0
 40
5.0
 40
6.0
 40
6.0
 40
6.0
 40
7.0
 40
7.0
 40
7.0
 40
8.0
 40
8.0
 40
8.0
 40
8.0
 10
462.584788314125
 20
-572.0748000000003
 30
0.0
 10
462.8381883077236
 20
-574.2489999999998
 30
0.0
 10
461.2818883470391
 20
-573.6458999999995
 30
0.0
 10
460.2162883739584
 20
-573.6471999999994
 30
0.0
 10
443.4802887967453
 20
-573.667300000001
 30
0.0
 10
426.7441892195347
 20
-573.6602000000003
 30
0.0
 10
410.0080896423242
 20
-573.6597999999994
 30
0.0
 10
397.7810899512042
 20
-573.6594999999998
 30
0.0
 10
385.5540902600842
 20
-573.6597000000002
 30
0.0
 10
373.3270905689642
 20
-573.6597000000002
 30
0.0
 10
372.4973905899242
 20
-573.6597000000002
 30
0.0
 10
371.6675906108867
 20
-573.6597000000002
 30
0.0
 10
370.327390644743
 20
-573.6597000000002
 30
0.0
 10
374.0073905517784
 20
-568.8135000000002
 30
0.0
 10
377.4760904641516
 20
-564.5303999999996
 30
0.0
 10
381.9890903501437
 20
-561.2544999999991
 30
0.0
 10
397.4107899605588
 20
-550.0601000000006
 30
0.0
 10
414.485589529213
 20
-543.5202000000008
 30
0.0
 10
433.7250890431824
 20
-544.0769999999993
 30
0.0
 10
444.0414887825682
 20
-544.3755000000001
 30
0.0
 10
453.0346885553809
 20
-548.0514999999996
 30
0.0
 10
458.741488411215
 20
-557.3899000000001
 30
0.0
 10
461.4860000000008
 20
-561.8809000000001
 30
0.0
 10
461.9927883290802
 20
-566.9951000000001
 30
0.0
 10
462.584788314125
 20
-572.0748000000003
 30
0.0
  0
SPLINE
  5
58
330
1F
100
AcDbEntity
  8
Layer 1
370
     0
100
AcDbSpline
210
0.0
220
0.0
230
1.0
 70
    11
 71
     3
 72
    17
 73
    13
 74
     0
 42
0.0000000001
 43
0.0000000001
 12
1.0
 22
0.0
 32
0.0
 13
1.0
 23
0.0
 33
0.0
 40
0.0
 40
0.0
 40
0.0
 40
0.0
 40
1.0
 40
1.0
 40
1.0
 40
2.0
 40
2.0
 40
2.0
 40
3.0
 40
3.0
 40
3.0
 40
4.0
 40
4.0
 40
4.0
 40
4.0
 10
165.714795813692
 20
-285.6234000000004
 30
0.0
 10
154.7847960898071
 20
-285.6089000000002
 30
0.0
 10
147.3342962780225
 20
-277.8397000000004
 30
0.0
 10
147.3610962773455
 20
-266.4843000000001
 30
0.0
 10
147.3866962766988
 20
-255.6565000000001
 30
0.0
 10
154.5022960969436
 20
-248.1041000000005
 30
0.0
 10
164.6268958411747
 20
-248.1589000000004
 30
0.0
 10
176.7280955354727
 20
-248.2244000000001
 30
0.0
 10
184.9849999999997
 20
-255.6041000000005
 30
0.0
 10
184.9801953270071
 20
-266.3501999999999
 30
0.0
 10
184.9752953271309
 20
-277.1619000000001
 30
0.0
 10
176.5031955411541
 20
-285.6374999999998
 30
0.0
 10
165.714795813692
 20
-285.6234000000004
 30
0.0
  0
SPLINE
  5
59
330
1F
100
AcDbEntity
  8
Layer 1
370
     0
100
AcDbSpline
210
0.0
220
0.0
230
1.0
 70
    11
 71
     3
 72
    17
 73
    13
 74
     0
 42
0.0000000001
 43
0.0000000001
 12
1.0
 22
0.0
 32
0.0
 13
1.0
 23
0.0
 33
0.0
 40
0.0
 40
0.0
 40
0.0
 40
0.0
 40
1.0
 40
1.0
 40
1.0
 40
2.0
 40
2.0
 40
2.0
 40
3.0
 40
3.0
 40
3.0
 40
4.0
 40
4.0
 40
4.0
 40
4.0
 10
184.6784953346287
 20
-336.616
 30
0.0
 10
173.9312956061258
 20
-336.5531000000001
 30
0.0
 10
166.1742958020841
 20
-328.4304000000002
 30
0.0
 10
166.2680957997145
 20
-317.3375999999998
 30
0.0
 10
166.3586957974258
 20
-306.6301999999996
 30
0.0
 10
173.6228956139166
 20
-299.0803999999998
 30
0.0
 10
183.7852953571928
 20
-299.1315000000004
 30
0.0
 10
195.6333950578846
 20
-299.1909999999998
 30
0.0
 10
204.2111948411912
 20
-306.7812999999996
 30
0.0
 10
204.1358948430934
 20
-317.1392999999998
 30
0.0
 10
204.0566948450942
 20
-328.0496999999996
 30
0.0
 10
195.4360950628688
 20
-336.6787999999997
 30
0.0
 10
184.6784953346287
 20
-336.616
 30
0.0
  0
SPLINE
  5
5A
330
1F
100
AcDbEntity
  8
Layer 1
370
     0
100
AcDbSpline
210
0.0
220
0.0
230
1.0
 70
    11
 71
     3
 72
    17
 73
    13
 74
     0
 42
0.0000000001
 43
0.0000000001
 12
1.0
 22
0.0
 32
0.0
 13
1.0
 23
0.0
 33
0.0
 40
0.0
 40
0.0
 40
0.0
 40
0.0
 40
1.0
 40
1.0
 40
1.0
 40
2.0
 40
2.0
 40
2.0
 40
3.0
 40
3.0
 40
3.0
 40
4.0
 40
4.0
 40
4.0
 40
4.0
 10
239.1963939573907
 20
-426.1291000000001
 30
0.0
 10
239.0841939602251
 20
-437.1646999999994
 30
0.0
 10
230.5857941749127
 20
-445.5813999999991
 30
0.0
 10
219.6491944511945
 20
-445.4886000000006
 30
0.0
 10
209.0020947201629
 20
-445.3981999999996
 30
0.0
 10
201.5184949092145
 20
-437.4107000000004
 30
0.0
 10
201.5799999999999
 20
-426.2029000000002
 30
0.0
 10
201.6402949061376
 20
-415.1988000000001
 30
0.0
 10
208.7005947277794
 20
-407.9483
 30
0.0
 10
219.2833944604354
 20
-408.0226999999995
 30
0.0
 10
230.9979999999996
 20
-408.1049999999996
 30
0.0
 10
239.3028939547003
 20
-415.6564999999991
 30
0.0
 10
239.1963939573907
 20
-426.1291000000001
 30
0.0
  0
SPLINE
  5
5B
330
1F
100
AcDbEntity
  8
Layer 1
370
     0
100
AcDbSpline
210
0.0
220
0.0
230
1.0
 70
    11
 71
     3
 72
    17
 73
    13
 74
     0
 42
0.0000000001
 43
0.0000000001
 12
1.0
 22
0.0
 32
0.0
 13
1.0
 23
0.0
 33
0.0
 40
0.0
 40
0.0
 40
0.0
 40
0.0
 40
1.0
 40
1.0
 40
1.0
 40
2.0
 40
2.0
 40
2.0
 40
3.0
 40
3.0
 40
3.0
 40
4.0
 40
4.0
 40
4.0
 40
4.0
 10
216.1515945395513
 20
-299.1641
 30
0.0
 10
216.112494540539
 20
-288.5051999999996
 30
0.0
 10
223.1783943620394
 20
-280.9315999999999
 30
0.0
 10
233.1858941092287
 20
-280.9058999999997
 30
0.0
 10
245.167693806543
 20
-280.8752000000004
 30
0.0
 10
253.692
 20
-288.1885000000002
 30
0.0
 10
253.7780000000002
 20
-298.5727999999999
 30
0.0
 10
253.8693935867195
 20
-309.5978999999998
 30
0.0
 10
245.4837937985576
 20
-318.3271000000004
 30
0.0
 10
234.7432940698855
 20
-318.3878999999997
 30
0.0
 10
223.7238943482589
 20
-318.4502000000002
 30
0.0
 10
216.1936945384878
 20
-310.6638999999996
 30
0.0
 10
216.1515945395513
 20
-299.1641
 30
0.0
  0
SPLINE
  5
5C
330
1F
100
AcDbEntity
  8
Layer 1
370
     0
100
AcDbSpline
210
0.0
220
0.0
230
1.0
 70
    11
 71
     3
 72
    17
 73
    13
 74
     0
 42
0.0000000001
 43
0.0000000001
 12
1.0
 22
0.0
 32
0.0
 13
1.0
 23
0.0
 33
0.0
 40
0.0
 40
0.0
 40
0.0
 40
0.0
 40
1.0
 40
1.0
 40
1.0
 40
2.0
 40
2.0
 40
2.0
 40
3.0
 40
3.0
 40
3.0
 40
4.0
 40
4.0
 40
4.0
 40
4.0
 10
214.5852945791194
 20
-384.2723999999998
 30
0.0
 10
203.9691948473046
 20
-384.2108000000007
 30
0.0
 10
196.419695038021
 20
-376.2101000000002
 30
0.0
 10
196.4393950375234
 20
-365.0416999999998
 30
0.0
 10
196.4583950370434
 20
-354.2903999999999
 30
0.0
 10
203.6087948564091
 20
-346.9156000000003
 30
0.0
 10
213.9820945943575
 20
-346.9486999999999
 30
0.0
 10
225.9532942919395
 20
-346.9867999999997
 30
0.0
 10
234.3547940796998
 20
-354.4789000000001
 30
0.0
 10
234.2218940830571
 20
-364.9974000000002
 30
0.0
 10
234.0824940865787
 20
-376.0175999999992
 30
0.0
 10
225.6077943006676
 20
-384.3361999999997
 30
0.0
 10
214.5852945791194
 20
-384.2723999999998
 30
0.0
  0
SPLINE
  5
5D
330
1F
100
AcDbEntity
  8
Layer 1
370
     0
100
AcDbSpline
210
0.0
220
0.0
230
1.0
 70
    11
 71
     3
 72
    17
 73
    13
 74
     0
 42
0.0000000001
 43
0.0000000001
 12
1.0
 22
0.0
 32
0.0
 13
1.0
 23
0.0
 33
0.0
 40
0.0
 40
0.0
 40
0.0
 40
0.0
 40
1.0
 40
1.0
 40
1.0
 40
2.0
 40
2.0
 40
2.0
 40
3.0
 40
3.0
 40
3.0
 40
4.0
 40
4.0
 40
4.0
 40
4.0
 10
290.5644926597233
 20
-391.6478000000006
 30
0.0
 10
290.29
 20
-402.5776999999998
 30
0.0
 10
281.642692885107
 20
-411.1393000000007
 30
0.0
 10
271.103793151342
 20
-410.9156999999996
 30
0.0
 10
260.0860934296725
 20
-410.6818999999996
 30
0.0
 10
252.4440936227256
 20
-402.5303000000004
 30
0.0
 10
252.7113936159731
 20
-391.2970999999998
 30
0.0
 10
252.9632936096095
 20
-380.7072000000007
 30
0.0
 10
260.2718934249788
 20
-373.3657000000003
 30
0.0
 10
270.3716931698364
 20
-373.5573999999997
 30
0.0
 10
282.5042928633411
 20
-373.7875999999997
 30
0.0
 10
290.8256926531249
 20
-381.2428
 30
0.0
 10
290.5644926597233
 20
-391.6478000000006
 30
0.0
  0
SPLINE
  5
5E
330
1F
100
AcDbEntity
  8
Layer 1
370
     0
100
AcDbSpline
210
0.0
220
0.0
230
1.0
 70
    11
 71
     3
 72
    17
 73
    13
 74
     0
 42
0.0000000001
 43
0.0000000001
 12
1.0
 22
0.0
 32
0.0
 13
1.0
 23
0.0
 33
0.0
 40
0.0
 40
0.0
 40
0.0
 40
0.0
 40
1.0
 40
1.0
 40
1.0
 40
2.0
 40
2.0
 40
2.0
 40
3.0
 40
3.0
 40
3.0
 40
4.0
 40
4.0
 40
4.0
 40
4.0
 10
386.6035902335716
 20
-185.9177
 30
0.0
 10
386.7745902292518
 20
-176.0801000000001
 30
0.0
 10
396.5480899823524
 20
-166.0316999999995
 30
0.0
 10
405.8360897477178
 20
-166.1441999999997
 30
0.0
 10
415.8560894945913
 20
-166.2655999999997
 30
0.0
 10
425.0069999999996
 20
-175.8666000000003
 30
0.0
 10
424.8886892664086
 20
-186.134
 30
0.0
 10
424.7758892692582
 20
-195.9324999999999
 30
0.0
 10
415.7020894984817
 20
-204.4336999999996
 30
0.0
 10
405.497589756269
 20
-204.3017
 30
0.0
 10
395.3529999999992
 20
-204.1705000000002
 30
0.0
 10
386.4370902377777
 20
-195.4952000000003
 30
0.0
 10
386.6035902335716
 20
-185.9177
 30
0.0
  0
SPLINE
  5
5F
330
1F
100
AcDbEntity
  8
Layer 1
370
     0
100
AcDbSpline
210
0.0
220
0.0
230
1.0
 70
    11
 71
     3
 72
    17
 73
    13
 74
     0
 42
0.0000000001
 43
0.0000000001
 12
1.0
 22
0.0
 32
0.0
 13
1.0
 23
0.0
 33
0.0
 40
0.0
 40
0.0
 40
0.0
 40
0.0
 40
1.0
 40
1.0
 40
1.0
 40
2.0
 40
2.0
 40
2.0
 40
3.0
 40
3.0
 40
3.0
 40
4.0
 40
4.0
 40
4.0
 40
4.0
 10
422.1320893360462
 20
-342.4282000000003
 30
0.0
 10
422.2673893326282
 20
-351.9691999999995
 30
0.0
 10
413.6958895491625
 20
-360.5551999999998
 30
0.0
 10
403.8480897979389
 20
-360.7430000000004
 30
0.0
 10
393.1851900673064
 20
-360.9463999999998
 30
0.0
 10
384.1134902964768
 20
-352.7970999999998
 30
0.0
 10
383.9831902997685
 20
-342.8977999999997
 30
0.0
 10
383.8535903030424
 20
-333.0546000000004
 30
0.0
 10
393.5692900576032
 20
-322.6509999999998
 30
0.0
 10
402.9560000000001
 20
-322.5816999999997
 30
0.0
 10
412.8733895699406
 20
-322.5084999999999
 30
0.0
 10
421.9834893398001
 20
-331.9369999999999
 30
0.0
 10
422.1320893360462
 20
-342.4282000000003
 30
0.0
  0
SPLINE
  5
60
330
1F
100
AcDbEntity
  8
Layer 1
370
     0
100
AcDbSpline
210
0.0
220
0.0
230
1.0
 70
    11
 71
     3
 72
    17
 73
    13
 74
     0
 42
0.0000000001
 43
0.0000000001
 12
1.0
 22
0.0
 32
0.0
 13
1.0
 23
0.0
 33
0.0
 40
0.0
 40
0.0
 40
0.0
 40
0.0
 40
1.0
 40
1.0
 40
1.0
 40
2.0
 40
2.0
 40
2.0
 40
3.0
 40
3.0
 40
3.0
 40
4.0
 40
4.0
 40
4.0
 40
4.0
 10
375.2195905211556
 20
-261.6936999999998
 30
0.0
 10
364.904290781742
 20
-261.6648000000005
 30
0.0
 10
356.2931909992767
 20
-253.3962000000001
 30
0.0
 10
356.3051909989736
 20
-243.5316999999995
 30
0.0
 10
356.3173909986654
 20
-233.5288
 30
0.0
 10
365.9414907555401
 20
-223.5405000000001
 30
0.0
 10
375.5244905134532
 20
-223.5851000000002
 30
0.0
 10
385.2950902666271
 20
-223.6305000000002
 30
0.0
 10
394.4154900362264
 20
-233.2354999999998
 30
0.0
 10
394.3960000000006
 20
-243.4588999999996
 30
0.0
 10
394.3768900372015
 20
-253.4018999999998
 30
0.0
 10
385.6262902582603
 20
-261.7227999999996
 30
0.0
 10
375.2195905211556
 20
-261.6936999999998
 30
0.0
  0
SPLINE
  5
61
330
1F
100
AcDbEntity
  8
Layer 1
370
     0
100
AcDbSpline
210
0.0
220
0.0
230
1.0
 70
    11
 71
     3
 72
    17
 73
    13
 74
     0
 42
0.0000000001
 43
0.0000000001
 12
1.0
 22
0.0
 32
0.0
 13
1.0
 23
0.0
 33
0.0
 40
0.0
 40
0.0
 40
0.0
 40
0.0
 40
1.0
 40
1.0
 40
1.0
 40
2.0
 40
2.0
 40
2.0
 40
3.0
 40
3.0
 40
3.0
 40
4.0
 40
4.0
 40
4.0
 40
4.0
 10
429.8458891411792
 20
-214.1405999999997
 30
0.0
 10
439.8198888892148
 20
-214.1248999999998
 30
0.0
 10
448.9738886579653
 20
-223.5748000000003
 30
0.0
 10
449.0412886562626
 20
-233.9564
 30
0.0
 10
449.1036886546863
 20
-243.5695999999998
 30
0.0
 10
440.0960888822374
 20
-252.2425999999996
 30
0.0
 10
430.0514891359853
 20
-252.2407000000003
 30
0.0
 10
419.6810893979637
 20
-252.2388000000001
 30
0.0
 10
410.8817896202527
 20
-244.0005000000001
 30
0.0
 10
410.8774896203613
 20
-234.2892000000002
 30
0.0
 10
410.8728896204775
 20
-224.1068999999998
 30
0.0
 10
420.2410893838169
 20
-214.1556
 30
0.0
 10
429.8458891411792
 20
-214.1405999999997
 30
0.0
  0
SPLINE
  5
62
330
1F
100
AcDbEntity
  8
Layer 1
370
     0
100
AcDbSpline
210
0.0
220
0.0
230
1.0
 70
    11
 71
     3
 72
    17
 73
    13
 74
     0
 42
0.0000000001
 43
0.0000000001
 12
1.0
 22
0.0
 32
0.0
 13
1.0
 23
0.0
 33
0.0
 40
0.0
 40
0.0
 40
0.0
 40
0.0
 40
1.0
 40
1.0
 40
1.0
 40
2.0
 40
2.0
 40
2.0
 40
3.0
 40
3.0
 40
3.0
 40
4.0
 40
4.0
 40
4.0
 40
4.0
 10
439.1682889056756
 20
-287.5861000000004
 30
0.0
 10
439.1893889051426
 20
-297.2119999999995
 30
0.0
 10
430.1942891323779
 20
-305.8960999999999
 30
0.0
 10
420.1991893848754
 20
-305.8994999999995
 30
0.0
 10
409.9196896445574
 20
-305.9030000000002
 30
0.0
 10
401.0705898681044
 20
-297.5934999999999
 30
0.0
 10
401.0329999999994
 20
-287.9022000000004
 30
0.0
 10
400.9935898700496
 20
-277.7699000000002
 30
0.0
 10
410.4356896315221
 20
-267.7179999999998
 30
0.0
 10
419.9868893902385
 20
-267.7241999999997
 30
0.0
 10
429.9750891379153
 20
-267.7307000000001
 30
0.0
 10
439.1456889062465
 20
-277.2267000000002
 30
0.0
 10
439.1682889056756
 20
-287.5861000000004
 30
0.0
  0
SPLINE
  5
63
330
1F
100
AcDbEntity
  8
Layer 1
370
     0
100
AcDbSpline
210
0.0
220
0.0
230
1.0
 70
    11
 71
     3
 72
    17
 73
    13
 74
     0
 42
0.0000000001
 43
0.0000000001
 12
1.0
 22
0.0
 32
0.0
 13
1.0
 23
0.0
 33
0.0
 40
0.0
 40
0.0
 40
0.0
 40
0.0
 40
1.0
 40
1.0
 40
1.0
 40
2.0
 40
2.0
 40
2.0
 40
3.0
 40
3.0
 40
3.0
 40
4.0
 40
4.0
 40
4.0
 40
4.0
 10
481.1480878451766
 20
-337.3707999999997
 30
0.0
 10
481.0373878479732
 20
-347.0196999999998
 30
0.0
 10
471.9923880764691
 20
-355.4854999999998
 30
0.0
 10
461.8988883314523
 20
-355.3870999999999
 30
0.0
 10
451.704788588977
 20
-355.2880000000005
 30
0.0
 10
442.7063888162957
 20
-346.6373999999996
 30
0.0
 10
442.8968888114832
 20
-337.1196
 30
0.0
 10
443.098188806398
 20
-327.0576000000001
 30
0.0
 10
452.7999999999993
 20
-317.0994000000001
 30
0.0
 10
462.2623883222695
 20
-317.2425000000003
 30
0.0
 10
472.2060880710706
 20
-317.3928999999998
 30
0.0
 10
481.2665878421831
 20
-327.0496000000003
 30
0.0
 10
481.1480878451766
 20
-337.3707999999997
 30
0.0
  0
HATCH
  5
64
330
1F
100
AcDbEntity
  8
Layer 1
 62
     7
420
 16777215
100
AcDbHatch
 10
0.0
 20
0.0
 30
0.0
210
0.0
220
0.0
230
1.0
  2
SOLID
 70
     1
 71
     0
 91
       27
 92
        1
 93
        1
 72
     4
 94
        3
 73
     0
 74
     1
 95
      329
 96
      325
 40
0.0
 40
0.0
 40
0.0
 40
0.0
 40
1.0
 40
1.0
 40
1.0
 40
2.0
 40
2.0
 40
2.0
 40
3.0
 40
3.0
 40
3.0
 40
4.0
 40
4.0
 40
4.0
 40
5.0
 40
5.0
 40
5.0
 40
6.0
 40
6.0
 40
6.0
 40
7.0
 40
7.0
 40
7.0
 40
8.0
 40
8.0
 40
8.0
 40
9.0
 40
9.0
 40
9.0
 40
10.0
 40
10.0
 40
10.0
 40
11.0
 40
11.0
 40
11.0
 40
12.0
 40
12.0
 40
12.0
 40
13.0
 40
13.0
 40
13.0
 40
14.0
 40
14.0
 40
14.0
 40
15.0
 40
15.0
 40
15.0
 40
16.0
 40
16.0
 40
16.0
 40
17.0
 40
17.0
 40
17.0
 40
18.0
 40
18.0
 40
18.0
 40
19.0
 40
19.0
 40
19.0
 40
20.0
 40
20.0
 40
20.0
 40
21.0
 40
21.0
 40
21.0
 40
22.0
 40
22.0
 40
22.0
 40
23.0
 40
23.0
 40
23.0
 40
24.0
 40
24.0
 40
24.0
 40
25.0
 40
25.0
 40
25.0
 40
26.0
 40
26.0
 40
26.0
 40
27.0
 40
27.0
 40
27.0
 40
28.0
 40
28.0
 40
28.0
 40
29.0
 40
29.0
 40
29.0
 40
30.0
 40
30.0
 40
30.0
 40
31.0
 40
31.0
 40
31.0
 40
32.0
 40
32.0
 40
32.0
 40
33.0
 40
33.0
 40
33.0
 40
34.0
 40
34.0
 40
34.0
 40
35.0
 40
35.0
 40
35.0
 40
36.0
 40
36.0
 40
36.0
 40
37.0
 40
37.0
 40
37.0
 40
38.0
 40
38.0
 40
38.0
 40
39.0
 40
39.0
 40
39.0
 40
40.0
 40
40.0
 40
40.0
 40
41.0
 40
41.0
 40
41.0
 40
42.0
 40
42.0
 40
42.0
 40
43.0
 40
43.0
 40
43.0
 40
44.0
 40
44.0
 40
44.0
 40
45.0
 40
45.0
 40
45.0
 40
46.0
 40
46.0
 40
46.0
 40
47.0
 40
47.0
 40
47.0
 40
48.0
 40
48.0
 40
48.0
 40
49.0
 40
49.0
 40
49.0
 40
50.0
 40
50.0
 40
50.0
 40
51.0
 40
51.0
 40
51.0
 40
52.0
 40
52.0
 40
52.0
 40
53.0
 40
53.0
 40
53.0
 40
54.0
 40
54.0
 40
54.0
 40
55.0
 40
55.0
 40
55.0
 40
56.0
 40
56.0
 40
56.0
 40
57.0
 40
57.0
 40
57.0
 40
58.0
 40
58.0
 40
58.0
 40
59.0
 40
59.0
 40
59.0
 40
60.0
 40
60.0
 40
60.0
 40
61.0
 40
61.0
 40
61.0
 40
62.0
 40
62.0
 40
62.0
 40
63.0
 40
63.0
 40
63.0
 40
64.0
 40
64.0
 40
64.0
 40
65.0
 40
65.0
 40
65.0
 40
66.0
 40
66.0
 40
66.0
 40
67.0
 40
67.0
 40
67.0
 40
68.0
 40
68.0
 40
68.0
 40
69.0
 40
69.0
 40
69.0
 40
70.0
 40
70.0
 40
70.0
 40
71.0
 40
71.0
 40
71.0
 40
72.0
 40
72.0
 40
72.0
 40
73.0
 40
73.0
 40
73.0
 40
74.0
 40
74.0
 40
74.0
 40
75.0
 40
75.0
 40
75.0
 40
76.0
 40
76.0
 40
76.0
 40
77.0
 40
77.0
 40
77.0
 40
78.0
 40
78.0
 40
78.0
 40
79.0
 40
79.0
 40
79.0
 40
80.0
 40
80.0
 40
80.0
 40
81.0
 40
81.0
 40
81.0
 40
82.0
 40
82.0
 40
82.0
 40
83.0
 40
83.0
 40
83.0
 40
84.0
 40
84.0
 40
84.0
 40
85.0
 40
85.0
 40
85.0
 40
86.0
 40
86.0
 40
86.0
 40
87.0
 40
87.0
 40
87.0
 40
88.0
 40
88.0
 40
88.0
 40
89.0
 40
89.0
 40
89.0
 40
90.0
 40
90.0
 40
90.0
 40
91.0
 40
91.0
 40
91.0
 40
92.0
 40
92.0
 40
92.0
 40
93.0
 40
93.0
 40
93.0
 40
94.0
 40
94.0
 40
94.0
 40
95.0
 40
95.0
 40
95.0
 40
96.0
 40
96.0
 40
96.0
 40
97.0
 40
97.0
 40
97.0
 40
98.0
 40
98.0
 40
98.0
 40
99.0
 40
99.0
 40
99.0
 40
100.0
 40
100.0
 40
100.0
 40
101.0
 40
101.0
 40
101.0
 40
102.0
 40
102.0
 40
102.0
 40
103.0
 40
103.0
 40
103.0
 40
104.0
 40
104.0
 40
104.0
 40
105.0
 40
105.0
 40
105.0
 40
106.0
 40
106.0
 40
106.0
 40
107.0
 40
107.0
 40
107.0
 40
108.0
 40
108.0
 40
108.0
 40
108.0
 10
703.9117822176922
 20
-561.0167000000001
 10
696.4864824052711
 20
-541.0653999999995
 10
681.8493827750353
 20
-529.4483
 10
660.4660000000003
 20
-526.8588
 10
659.268083345487
 20
-526.7137999999995
 10
658.442183366351
 20
-526.3953999999994
 10
657.6305833868537
 20
-525.4315000000006
 10
653.7545834847697
 20
-520.8281999999999
 10
649.3220000000001
 20
-516.7975000000006
 10
644.2814837240803
 20
-513.5077999999994
 10
633.7728839895499
 20
-506.6491999999998
 10
622.6483842705784
 20
-503.8493999999992
 10
610.5691845757246
 20
-509.0740999999998
 10
608.6115846251778
 20
-509.9208999999992
 10
607.2174846603957
 20
-509.8875000000007
 10
605.3634847072317
 20
-508.7613999999994
 10
598.3703848838923
 20
-504.5141999999996
 10
590.9012850725776
 20
-502.1349000000009
 10
582.5740852829404
 20
-503.8335000000006
 10
579.5888853583529
 20
-504.4423999999999
 10
576.9716854244689
 20
-505.9117000000006
 10
574.4215854888898
 20
-507.3289999999997
 10
566.1380856981486
 20
-466.5609999999997
 10
543.3768862731449
 20
-435.0751
 10
512.1787870612752
 20
-408.3112999999994
 10
520.3330868552803
 20
-408.1401000000005
 10
527.8396866656476
 20
-407.5746999999992
 10
535.2214864791677
 20
-405.9082999999991
 10
559.0472858772773
 20
-400.5298999999995
 10
577.8864854013591
 20
-387.9734000000008
 10
590.4172850848045
 20
-366.7984999999999
 10
601.4396848063552
 20
-348.1724999999997
 10
605.0091847161821
 20
-327.9186
 10
602.3723847827932
 20
-306.5029000000004
 10
599.7667848486162
 20
-285.3402999999998
 10
591.8442850487554
 20
-266.2961999999998
 10
577.3866854139851
 20
-250.7231000000002
 10
548.0252861557165
 20
-219.0965999999999
 10
512.0591870642966
 20
-205.3510999999999
 10
468.8587881556305
 20
-213.1688000000004
 10
467.010388202325
 20
-213.5033999999996
 10
466.4354882168482
 20
-213.0375000000004
 10
466.3077882200741
 20
-211.1939000000002
 10
465.8701882311289
 20
-204.8800000000001
 10
464.9127882553148
 20
-198.6264000000001
 10
463.6173882880394
 20
-192.4339
 10
460.757388360289
 20
-178.7624999999998
 10
456.393
 20
-165.7079000000003
 10
448.0378886816106
 20
-154.2582000000002
 10
436.4330000000009
 20
-138.3549999999996
 10
418.4045894302108
 20
-132.8001999999997
 10
399.9358898967694
 20
-139.5028000000002
 10
388.9770901736119
 20
-143.4799000000003
 10
379.9315904021205
 20
-150.2656999999999
 10
372.4040905922811
 20
-158.9660000000003
 10
350.8402911370285
 20
-183.8892999999998
 10
339.3609999999999
 20
-213.3125
 10
334.4502915510748
 20
-245.5636000000004
 10
332.0659999999998
 20
-261.2219000000005
 10
331.6237916224782
 20
-276.9938000000002
 10
331.9025916154351
 20
-292.8024000000005
 10
332.0202916124617
 20
-299.4794000000002
 10
331.9630916139067
 20
-299.5645000000004
 10
325.4333917788608
 20
-298.2390999999998
 10
317.737791973268
 20
-296.6769000000004
 10
310.7987921485619
 20
-297.9628000000002
 10
304.7522923013094
 20
-303.1823999999997
 10
303.1110923427696
 20
-304.5991000000004
 10
301.3602923869985
 20
-305.8922000000002
 10
299.7608924274027
 20
-307.3526000000002
 10
298.7671924525057
 20
-308.2600000000002
 10
298.0727924700477
 20
-308.3732
 10
297.3194924890777
 20
-307.1482999999998
 10
296.9591924981796
 20
-306.5623999999998
 10
296.4489999999996
 20
-306.0699000000004
 10
296.0156925220144
 20
-305.5277999999998
 10
282.514192863091
 20
-288.6318000000001
 10
268.5294932163742
 20
-272.1826000000001
 10
252.0418936328861
 20
-258.0532999999996
 10
234.3665940794017
 20
-242.9062000000004
 10
214.7967945737764
 20
-231.2843000000003
 10
191.9040951520947
 20
-225.9125000000004
 10
178.6045954880683
 20
-222.7918
 10
165.1968958267753
 20
-221.5311000000002
 10
151.7326961669096
 20
-224.6903000000002
 10
136.3012965567395
 20
-228.3110999999999
 10
125.942
 20
-237.3289000000004
 10
122.6666969011785
 20
-253.3099000000002
 10
120.8307969475572
 20
-262.2674999999999
 10
121.2633969366289
 20
-271.2385999999997
 10
123.225496887062
 20
-280.1580999999996
 10
126.1113968141581
 20
-293.2762999999995
 10
132.0927966630552
 20
-305.0698000000002
 10
138.8656964919574
 20
-316.4970999999996
 10
140.0692964615519
 20
-318.5279
 10
139.6358964725005
 20
-318.9904999999999
 10
137.7001965214004
 20
-319.7993999999999
 10
118.3498970102301
 20
-327.8847999999998
 10
103.868297376066
 20
-341.3949000000002
 10
94.57420000000002
 20
-360.0983999999999
 10
82.00540000000001
 20
-385.3917999999994
 10
79.29659999999967
 20
-412.1280000000006
 10
85.16439999999966
 20
-439.5809000000008
 10
90.4348
 20
-464.2384999999995
 10
103.3485973891948
 20
-484.3083000000006
 10
123.536396879208
 20
-499.5843000000004
 10
127.2538967852961
 20
-502.3973999999998
 10
131.265796683947
 20
-504.7623999999996
 10
135.1717965852731
 20
-507.4033999999992
 10
130.7805966962042
 20
-506.3004999999994
 10
126.3853968072362
 20
-506.0457999999999
 10
121.9874969183365
 20
-506.7425999999996
 10
111.900797173148
 20
-508.3407000000007
 10
103.6482973816237
 20
-513.5357000000004
 10
96.66510000000017
 20
-520.6458000000002
 10
92.94380000000001
 20
-524.4347999999991
 10
89.2493000000004
 20
-526.8382999999994
 10
83.69650000000001
 20
-527.7875999999997
 10
68.97410000000036
 20
-530.3044000000009
 10
58.04749999999967
 20
-539.0254000000004
 10
50.05680000000029
 20
-551.4449000000004
 10
46.59569999999985
 20
-556.8241999999991
 10
44.34609999999975
 20
-562.5290999999997
 10
44.72999999999956
 20
-569.2667999999994
 10
45.55580000000009
 20
-583.7613000000001
 10
58.45859999999993
 20
-592.8377
 10
72.15520000000015
 20
-588.1088
 10
73.56869999999981
 20
-587.6206999999995
 10
74.1877000000004
 20
-587.7916000000005
 10
75.05699999999979
 20
-589.0028000000002
 10
78.70719999999983
 20
-594.0890999999992
 10
83.47000000000025
 20
-597.6831999999995
 10
89.6292999999996
 20
-599.2535000000007
 10
97.11200000000008
 20
-601.1612000000005
 10
104.0298973719837
 20
-599.5462000000007
 10
110.6454972048596
 20
-595.9431999999997
 10
111.5401971822575
 20
-595.4559000000008
 10
112.402697160469
 20
-594.3063999999995
 10
113.4947971328802
 20
-595.7821999999996
 10
118.134
 20
-602.0521000000008
 10
125.0111968419515
 20
-604.6924999999992
 10
132.1478966616633
 20
-606.1882999999998
 10
139.0296964878144
 20
-607.6306999999997
 10
146.0313963109365
 20
-607.3816999999999
 10
151.7244961671167
 20
-602.1313000000009
 10
152.6729999999998
 20
-601.2564000000002
 10
153.0183961344301
 20
-601.8505999999998
 10
153.4965961223497
 20
-602.5218999999997
 10
155.0691960826225
 20
-604.7296000000006
 10
156.9294960356274
 20
-606.6556
 10
159.1324959799749
 20
-608.2440999999999
 10
168.9304957324566
 20
-615.3096000000005
 10
187.7681952565763
 20
-616.3224000000009
 10
198.8187949774147
 20
-602.1281999999992
 10
206.4353947850032
 20
-592.3448000000008
 10
211.348
 20
-581.2091999999993
 10
215.0744945667611
 20
-569.5298999999995
 10
216.9945945182553
 20
-563.5118000000002
 10
215.702394550899
 20
-557.6501000000007
 10
212.7280946260362
 20
-551.5951999999997
 10
212.2002946393695
 20
-552.9351000000006
 10
211.8388946484993
 20
-553.7978999999996
 10
211.5180946566034
 20
-554.6756000000005
 10
209.5880947053593
 20
-559.9572000000007
 10
207.7554947516546
 20
-565.2764000000006
 10
205.7242948029671
 20
-570.5187000000005
 10
202.0567948956159
 20
-579.9843999999994
 10
198.2157949926477
 20
-589.3917999999994
 10
191.5690951605575
 20
-597.2682999999997
 10
185.902
 20
-603.9838999999993
 10
177.3561955196055
 20
-606.2916000000005
 10
168.9593957317265
 20
-603.5815000000002
 10
161.7060000000001
 20
-601.2404999999999
 10
157.3140960259116
 20
-594.7628000000004
 10
156.812496038583
 20
-585.9526000000005
 10
156.3562960501076
 20
-577.9411
 10
157.7825960140763
 20
-570.2471000000005
 10
160.5184959449616
 20
-562.7772000000004
 10
165.1335958283744
 20
-550.1761000000006
 10
171.8650956583224
 20
-538.9984000000004
 10
182.8450000000003
 20
-530.8644999999997
 10
188.3532952417954
 20
-526.7841000000008
 10
194.4868950868477
 20
-524.4439999999995
 10
201.5133949093433
 20
-525.0602999999992
 10
210.2938946875292
 20
-525.8302999999996
 10
216.875494521264
 20
-530.5601000000006
 10
222.5110000000004
 20
-536.8418000000001
 10
231.4620000000004
 20
-546.8194000000003
 10
236.9608940138642
 20
-558.7800000000007
 10
241.674793894781
 20
-571.1334999999999
 10
242.4183938759961
 20
-573.0823
 10
243.2681938545284
 20
-573.7222000000002
 10
245.3722938013743
 20
-573.7098000000005
 10
262.3007933737244
 20
-573.6101999999992
 10
279.2301929460518
 20
-573.6710000000003
 10
296.1591925183893
 20
-573.6257999999998
 10
297.4690924852985
 20
-573.6222999999991
 10
299.4008924364971
 20
-574.4025999999994
 10
299.9915924215748
 20
-573.0987999999998
 10
300.7930924013272
 20
-571.3297999999995
 10
298.6410924556913
 20
-570.5265999999992
 10
297.6103924817289
 20
-569.5226000000002
 10
264.5633933165664
 20
-537.3304000000007
 10
254.8604935616822
 20
-498.8233999999993
 10
267.4203932443925
 20
-454.8305
 10
273.3648930942218
 20
-434.0089000000007
 10
284.7121928075649
 20
-416.3335999999999
 10
302.6875923534681
 20
-403.5077999999994
 10
308.7462922004124
 20
-399.1849000000002
 10
315.2397920363728
 20
-395.8561000000009
 10
322.7774918459545
 20
-394.9725999999991
 10
333.7692915682783
 20
-393.6844000000001
 10
343.2288913293087
 20
-397.4313000000002
 10
351.8155911123904
 20
-403.8793000000005
 10
354.7642910379
 20
-406.0933999999997
 10
357.4826909692274
 20
-408.6142999999993
 10
360.3983908955706
 20
-411.0727000000006
 10
360.8102908851652
 20
-408.4099999999999
 10
361.0462908792033
 20
-405.8996999999999
 10
361.6003908652056
 20
-403.4619999999995
 10
365.222790773696
 20
-387.5241999999998
 10
374.201
 20
-376.5352000000003
 10
390.5747901332506
 20
-372.5654000000004
 10
411.1772896127877
 20
-367.5702000000001
 10
430.3242891290938
 20
-371.7947999999997
 10
447.6550000000007
 20
-383.1972999999998
 10
470.5083881139581
 20
-398.2332000000006
 10
485.4300000000003
 20
-419.5966000000008
 10
493.8538875242011
 20
-445.4796999999999
 10
499.7734873746595
 20
-463.6681000000008
 10
500.7827873491624
 20
-482.1422999999995
 10
495.982
 20
-500.8004000000001
 10
494.8682874985752
 20
-505.1290000000008
 10
493.1988875407478
 20
-509.2749000000003
 10
491.5625875820842
 20
-514.0776000000005
 10
501.8453873223189
 20
-507.3237000000008
 10
512.6265870499628
 20
-504.4866000000002
 10
524.2763867556641
 20
-505.1506000000008
 10
535.8448864634192
 20
-505.8099999999995
 10
546.384586197164
 20
-509.384
 10
556.2087859489839
 20
-516.7340999999997
 10
554.4413859936321
 20
-516.5728999999992
 10
553.3397860214609
 20
-516.4410000000007
 10
552.2342860493882
 20
-516.3765000000003
 10
540.6991863407893
 20
-515.7024000000001
 10
531.3481865770154
 20
-520.4264999999996
 10
523.3450867791908
 20
-528.2644
 10
514.1984870102533
 20
-537.2221000000009
 10
508.2523871604644
 20
-548.2595999999994
 10
503.16668728894
 20
-559.8340000000007
 10
501.4601873320498
 20
-563.7178999999996
 10
499.8019999999997
 20
-567.6170000000002
 10
498.8033873991662
 20
-571.7554
 10
498.6272874036149
 20
-572.4853000000003
 10
497.9188874215106
 20
-573.5977000000003
 10
499.4885873818566
 20
-573.6450999999997
 10
501.8300873227054
 20
-573.7157000000007
 10
504.1759999999995
 20
-573.6277000000009
 10
506.5192872042462
 20
-573.6614000000009
 10
507.5485871782439
 20
-573.6762999999992
 10
507.5590871779787
 20
-572.8534999999993
 10
507.7307871736411
 20
-572.2595000000001
 10
508.9851871419523
 20
-567.9192999999996
 10
510.7760870967104
 20
-563.7918000000009
 10
512.6955870482197
 20
-559.7211000000007
 10
517.1160869365485
 20
-550.3464999999997
 10
522.0994868106573
 20
-541.3029000000006
 10
529.741686617599
 20
-534.1049999999996
 10
542.0940863055512
 20
-522.4707999999991
 10
555.2540000000008
 20
-521.7904999999992
 10
568.5462856373124
 20
-532.2603999999992
 10
577.9223854004522
 20
-539.6457000000009
 10
583.9330000000009
 20
-549.5491999999995
 10
588.2151851404342
 20
-560.5352999999996
 10
591.8123850495613
 20
-569.7646000000004
 10
593.9920000000002
 20
-579.2358999999997
 10
592.3214850367003
 20
-589.2427000000007
 10
590.9934850702484
 20
-597.1988000000001
 10
586.5012851837309
 20
-602.3410000000003
 10
578.9021853757004
 20
-603.9598999999998
 10
570.0752855986866
 20
-605.8402999999998
 10
562.6406857865004
 20
-603.4649000000009
 10
557.0330859281603
 20
-596.0998999999993
 10
550.2156861003823
 20
-587.1457000000009
 10
546.2275862011302
 20
-576.8003000000008
 10
542.321586299804
 20
-566.4132000000009
 10
540.5214863452784
 20
-561.6262000000006
 10
538.8125863884488
 20
-556.8048999999992
 10
536.8662864376165
 20
-551.4608000000007
 10
534.4528864985841
 20
-556.6749
 10
533.1994865302477
 20
-561.4292999999998
 10
533.9207865120261
 20
-566.5956000000006
 10
534.6257864942163
 20
-571.6440000000002
 10
536.7320864410067
 20
-576.2191999999995
 10
538.7058863911443
 20
-580.8230999999996
 10
542.6458862916115
 20
-590.0131999999994
 10
547.0368861806855
 20
-598.9364999999998
 10
554.4471859934856
 20
-605.9763999999996
 10
565.6114857114517
 20
-616.5825000000004
 10
585.7718852021571
 20
-615.5027000000009
 10
595.2208849634553
 20
-603.6769000000004
 10
596.4608849321303
 20
-602.1250999999993
 10
597.1721849141613
 20
-601.1170999999995
 10
598.9786848685253
 20
-603.0961000000007
 10
599.9724848434198
 20
-604.1846999999998
 10
601.5671848031343
 20
-604.8353000000006
 10
603.0040847668351
 20
-605.3914000000004
 10
614.06788448734
 20
-609.6731
 10
629.8034840898254
 20
-603.7031000000006
 10
635.3838839488526
 20
-596.6828999999998
 10
636.6131839177979
 20
-595.1363999999994
 10
637.3469999999998
 20
-594.9652000000006
 10
639.1000000000004
 20
-595.9665000000005
 10
652.2473835228448
 20
-603.4758000000002
 10
665.7848831808587
 20
-600.7075999999997
 10
674.7716829538331
 20
-588.7055999999993
 10
675.6505829316302
 20
-587.5316999999995
 10
676.2318829169453
 20
-587.7435000000005
 10
677.3072828897784
 20
-588.1072000000004
 10
685.4245826847182
 20
-590.8521000000001
 10
692.8866824962097
 20
-589.4614000000001
 10
698.9171823438664
 20
-583.4380000000001
 10
705.1796821856624
 20
-577.1830000000009
 10
706.8392821437374
 20
-568.8829000000005
 10
703.9117822176922
 20
-561.0167000000001
 97
        0
 97
        0
 92
        1
 93
        1
 72
     4
 94
        3
 73
     0
 74
     1
 95
       32
 96
       28
 40
0.0
 40
0.0
 40
0.0
 40
0.0
 40
1.0
 40
1.0
 40
1.0
 40
2.0
 40
2.0
 40
2.0
 40
3.0
 40
3.0
 40
3.0
 40
4.0
 40
4.0
 40
4.0
 40
5.0
 40
5.0
 40
5.0
 40
6.0
 40
6.0
 40
6.0
 40
7.0
 40
7.0
 40
7.0
 40
8.0
 40
8.0
 40
8.0
 40
9.0
 40
9.0
 40
9.0
 40
9.0
 10
72.96010000000024
 20
-571.6157000000003
 10
72.80149999999958
 20
-572.6417000000001
 10
72.59500000000025
 20
-573.6615999999995
 10
72.47059999999965
 20
-574.6915000000008
 10
71.9351999999999
 20
-579.1211999999996
 10
71.31670000000031
 20
-579.7828000000009
 10
66.83669999999984
 20
-580.6244999999999
 10
61.85069999999996
 20
-581.5612000000001
 10
56.10310000000027
 20
-578.5097999999998
 10
54.46550000000025
 20
-573.7556000000004
 10
53.03099999999995
 20
-569.5912000000008
 10
52.6220000000003
 20
-565.3788000000004
 10
54.67399999999998
 20
-561.1476000000002
 10
61.15940000000046
 20
-547.7741999999998
 10
71.36340000000018
 20
-539.0827000000008
 10
86.01450000000023
 20
-535.8732
 10
86.51820000000043
 20
-535.7628000000004
 10
87.03830000000016
 20
-535.7103000000006
 10
87.55379999999968
 20
-535.6779999999999
 10
87.77310000000034
 20
-535.6641999999993
 10
88.0001000000002
 20
-535.7718000000004
 10
88.38960000000043
 20
-535.8631999999998
 10
86.70970000000034
 20
-538.1000000000004
 10
85.06620000000021
 20
-540.1983
 10
83.51839999999993
 20
-542.3649000000005
 10
77.26180000000022
 20
-551.1224000000002
 10
74.57399999999961
 20
-561.1772000000001
 10
72.96010000000024
 20
-571.6157000000003
 97
        0
 97
        0
 92
        1
 93
        1
 72
     4
 94
        3
 73
     0
 74
     1
 95
       38
 96
       34
 40
0.0
 40
0.0
 40
0.0
 40
0.0
 40
1.0
 40
1.0
 40
1.0
 40
2.0
 40
2.0
 40
2.0
 40
3.0
 40
3.0
 40
3.0
 40
4.0
 40
4.0
 40
4.0
 40
5.0
 40
5.0
 40
5.0
 40
6.0
 40
6.0
 40
6.0
 40
7.0
 40
7.0
 40
7.0
 40
8.0
 40
8.0
 40
8.0
 40
9.0
 40
9.0
 40
9.0
 40
10.0
 40
10.0
 40
10.0
 40
11.0
 40
11.0
 40
11.0
 40
11.0
 10
108.024797271064
 20
-579.5393999999997
 10
108.0915972693765
 20
-580.8387000000002
 10
108.045697270536
 20
-582.1797999999999
 10
108.3607972625759
 20
-583.4233000000004
 10
109.1811972418509
 20
-586.6599000000006
 10
107.4027972867771
 20
-588.0926
 10
104.8205973520089
 20
-589.3091000000004
 10
96.97569999999996
 20
-593.0048999999999
 10
89.13780000000042
 20
-591.7548000000006
 10
83.6259
 20
-585.8655999999992
 10
81.03480000000036
 20
-583.0972000000002
 10
80.98329999999987
 20
-579.5998
 10
80.64339999999993
 20
-576.1705000000002
 10
80.54929999999968
 20
-575.2217
 10
80.53750000000036
 20
-574.2648000000008
 10
80.47119999999995
 20
-572.9876999999997
 10
81.14120000000003
 20
-558.9536000000007
 10
86.73250000000007
 20
-546.4688999999998
 10
95.15170000000035
 20
-535.1178999999993
 10
100.4254974630385
 20
-528.0077000000001
 10
106.6845973049203
 20
-521.9380999999994
 10
114.775497100527
 20
-518.0280999999995
 10
120.6707969515992
 20
-515.1792000000005
 10
126.7879999999996
 20
-514.2927
 10
133.1999999999998
 20
-516.0069999999996
 10
135.1524965857607
 20
-516.5290999999997
 10
135.6815965723945
 20
-517.0854999999992
 10
134.1538966109874
 20
-518.9681
 10
128.4237967557419
 20
-526.0292000000009
 10
122.5117969050916
 20
-532.9472999999998
 10
117.5327970308717
 20
-540.6034
 10
109.7956972263273
 20
-552.5010000000002
 10
107.3092972891391
 20
-565.6139000000003
 10
108.024797271064
 20
-579.5393999999997
 97
        0
 97
        0
 92
        1
 93
        1
 72
     4
 94
        3
 73
     0
 74
     1
 95
       32
 96
       28
 40
0.0
 40
0.0
 40
0.0
 40
0.0
 40
1.0
 40
1.0
 40
1.0
 40
2.0
 40
2.0
 40
2.0
 40
3.0
 40
3.0
 40
3.0
 40
4.0
 40
4.0
 40
4.0
 40
5.0
 40
5.0
 40
5.0
 40
6.0
 40
6.0
 40
6.0
 40
7.0
 40
7.0
 40
7.0
 40
8.0
 40
8.0
 40
8.0
 40
9.0
 40
9.0
 40
9.0
 40
9.0
 10
175.0780000000004
 20
-525.3745999999992
 10
167.0308957804446
 20
-533.4722999999994
 10
159.9575959591311
 20
-542.3065000000006
 10
154.665
 20
-552.4675000000007
 10
148.3006962536092
 20
-564.6859999999997
 10
144.738096343608
 20
-577.5097999999998
 10
146.3466963029714
 20
-591.4544999999998
 10
146.8466962903403
 20
-595.7878000000001
 10
145.8611963152362
 20
-596.8767000000007
 10
141.5670964237142
 20
-597.8683999999994
 10
134.5702966004683
 20
-599.4842000000008
 10
120.0786969665569
 20
-595.0051000000003
 10
117.9853970194381
 20
-585.9634999999998
 10
117.1778970398373
 20
-582.4755999999998
 10
116.826197048722
 20
-578.9714000000004
 10
116.6693970526831
 20
-575.3726000000006
 10
117.9708970198044
 20
-552.1435000000001
 10
126.9218967936831
 20
-532.6980999999996
 10
145.5092963241259
 20
-518.2325999999994
 10
150.9783961859648
 20
-513.9763999999996
 10
157.1940000000004
 20
-511.0779999999995
 10
164.5217958438298
 20
-512.1754999999994
 10
169.5823957159882
 20
-512.9334999999992
 10
175.2982955715925
 20
-518.2801
 10
176.3676955445771
 20
-523.0915999999997
 10
176.6612955371602
 20
-524.4125999999997
 10
175.6832955618665
 20
-524.7654999999995
 10
175.0780000000004
 20
-525.3745999999992
 97
        0
 97
        0
 92
        1
 93
        1
 72
     4
 94
        3
 73
     0
 74
     1
 95
       14
 96
       10
 40
0.0
 40
0.0
 40
0.0
 40
0.0
 40
1.0
 40
1.0
 40
1.0
 40
2.0
 40
2.0
 40
2.0
 40
3.0
 40
3.0
 40
3.0
 40
3.0
 10
232.2121941338264
 20
-534.8292999999994
 10
224.3040943336018
 20
-525.1651999999995
 10
215.4482945573181
 20
-518.0151000000005
 10
203.1843948671303
 20
-516.2484000000004
 10
215.8923945460992
 20
-512.5012999999999
 10
227.0606942639643
 20
-506.3202000000001
 10
236.9076940152081
 20
-497.4501
 10
233.9152940908025
 20
-509.5285999999996
 10
232.5926941242142
 20
-521.7639999999992
 10
232.2121941338264
 20
-534.8292999999994
 97
        0
 97
        0
 92
        1
 93
        1
 72
     4
 94
        3
 73
     0
 74
     1
 95
       92
 96
       88
 40
0.0
 40
0.0
 40
0.0
 40
0.0
 40
1.0
 40
1.0
 40
1.0
 40
2.0
 40
2.0
 40
2.0
 40
3.0
 40
3.0
 40
3.0
 40
4.0
 40
4.0
 40
4.0
 40
5.0
 40
5.0
 40
5.0
 40
6.0
 40
6.0
 40
6.0
 40
7.0
 40
7.0
 40
7.0
 40
8.0
 40
8.0
 40
8.0
 40
9.0
 40
9.0
 40
9.0
 40
10.0
 40
10.0
 40
10.0
 40
11.0
 40
11.0
 40
11.0
 40
12.0
 40
12.0
 40
12.0
 40
13.0
 40
13.0
 40
13.0
 40
14.0
 40
14.0
 40
14.0
 40
15.0
 40
15.0
 40
15.0
 40
16.0
 40
16.0
 40
16.0
 40
17.0
 40
17.0
 40
17.0
 40
18.0
 40
18.0
 40
18.0
 40
19.0
 40
19.0
 40
19.0
 40
20.0
 40
20.0
 40
20.0
 40
21.0
 40
21.0
 40
21.0
 40
22.0
 40
22.0
 40
22.0
 40
23.0
 40
23.0
 40
23.0
 40
24.0
 40
24.0
 40
24.0
 40
25.0
 40
25.0
 40
25.0
 40
26.0
 40
26.0
 40
26.0
 40
27.0
 40
27.0
 40
27.0
 40
28.0
 40
28.0
 40
28.0
 40
29.0
 40
29.0
 40
29.0
 40
29.0
 10
305.316392287059
 20
-393.9474000000009
 10
283.1549999999997
 20
-409.4719999999998
 10
266.3338932718398
 20
-429.7270000000008
 10
253.723
 20
-453.5701000000008
 10
253.2304936028595
 20
-454.5012999999999
 10
252.7671936145634
 20
-455.3881999999994
 10
251.7383936405531
 20
-455.8747999999996
 10
241.1634939076976
 20
-460.8765000000003
 10
230.2950000000001
 20
-464.7839999999997
 10
218.3912944829717
 20
-464.7950000000001
 10
203.0534948704371
 20
-464.8093000000008
 10
192.5811951349897
 20
-457.8888000000006
 10
186.5620952870449
 20
-443.7271999999994
 10
181.4415954163997
 20
-431.6798999999992
 10
180.0990954503141
 20
-419.0064999999995
 10
180.5180954397292
 20
-406.0681999999997
 10
180.6583954361849
 20
-401.7356999999993
 10
181.0362954266384
 20
-397.4174000000003
 10
181.8092954071108
 20
-393.1422000000002
 10
181.9167954043951
 20
-392.5473999999995
 10
181.8623954057693
 20
-391.9110999999994
 10
182.5272953889726
 20
-391.4943999999996
 10
183.9438953531862
 20
-392.3325000000004
 10
184.9040953289295
 20
-393.7021000000004
 10
186.0678952995295
 20
-394.8449999999993
 10
187.1859999999997
 20
-395.9431999999997
 10
188.3078952429423
 20
-397.0048999999999
 10
189.7606952062415
 20
-397.6713999999993
 10
190.3123951923044
 20
-397.9246000000003
 10
190.907295177276
 20
-398.4591
 10
191.4293951640866
 20
-398.1463000000003
 10
192.1210951466128
 20
-397.7317000000003
 10
191.7747951553611
 20
-396.8672999999999
 10
191.6784951577938
 20
-396.2420000000002
 10
191.0559999999996
 20
-392.2034999999996
 10
189.7981952052942
 20
-388.3351000000002
 10
188.2804952436345
 20
-384.5588000000007
 10
181.5031954148435
 20
-367.6958999999997
 10
172.1973956499278
 20
-352.1552000000001
 10
163.1088958795226
 20
-336.4994999999999
 10
155.634
 20
-323.6233000000002
 10
147.2071962812333
 20
-311.2819
 10
140.9331964397279
 20
-297.7308000000003
 10
135.7974965694666
 20
-286.6385
 10
132.2205966598267
 20
-275.1333999999997
 10
132.7810966456673
 20
-262.6815999999999
 10
133.4751966281328
 20
-247.2638999999999
 10
142.901196390012
 20
-236.9789000000001
 10
158.2821960014553
 20
-235.0589
 10
174.9696955798936
 20
-232.9758000000002
 10
190.8805951779505
 20
-236.1154999999999
 10
206.2082947907402
 20
-242.6048000000001
 10
223.0891943642928
 20
-249.7515999999996
 10
237.6778939957512
 20
-260.4925999999996
 10
251.3742936497511
 20
-272.4272000000001
 10
265.4740932935601
 20
-284.7132000000001
 10
278.1525929732743
 20
-298.3485000000001
 10
288.8000000000002
 20
-313.8199999999997
 10
293.0474925969975
 20
-319.9919
 10
295.2127925422974
 20
-326.5972000000002
 10
294.8982925502423
 20
-334.0676000000003
 10
294.7631925536552
 20
-337.2740999999996
 10
294.8111925524427
 20
-340.4881999999998
 10
294.7621925536805
 20
-343.6988000000001
 10
294.7366925543247
 20
-345.3766999999998
 10
294.0905925706465
 20
-345.7172
 10
292.4818926112857
 20
-345.0361000000003
 10
286.3537927660946
 20
-342.4417000000003
 10
280.3881929167983
 20
-339.4281000000001
 10
273.8175930827856
 20
-337.9641000000001
 10
265.3389999999999
 20
-336.0748000000003
 10
257.1226935045343
 20
-336.6228000000001
 10
249.2244937040596
 20
-340.3541000000005
 10
246.8639999999996
 20
-341.4694
 10
244.7664938166781
 20
-342.9897000000001
 10
243.3405938526994
 20
-345.5147999999999
 10
245.537493797201
 20
-346.4191000000001
 10
247.7410937415334
 20
-346.1995999999999
 10
249.8032936894379
 20
-345.8734000000004
 10
265.3422932968897
 20
-343.4159
 10
279.3972929418305
 20
-347.4937
 10
292.3660926142111
 20
-355.7374
 10
303.1766923411124
 20
-362.6090999999997
 10
309.1803921894461
 20
-372.4898000000003
 10
309.400292183891
 20
-385.5403000000006
 10
309.4588921824106
 20
-389.0213999999996
 10
308.6196922036106
 20
-391.6334000000006
 10
305.316392287059
 20
-393.9474000000009
 97
        0
 97
        0
 92
        1
 93
        1
 72
     4
 94
        3
 73
     0
 74
     1
 95
       47
 96
       43
 40
0.0
 40
0.0
 40
0.0
 40
0.0
 40
1.0
 40
1.0
 40
1.0
 40
2.0
 40
2.0
 40
2.0
 40
3.0
 40
3.0
 40
3.0
 40
4.0
 40
4.0
 40
4.0
 40
5.0
 40
5.0
 40
5.0
 40
6.0
 40
6.0
 40
6.0
 40
7.0
 40
7.0
 40
7.0
 40
8.0
 40
8.0
 40
8.0
 40
9.0
 40
9.0
 40
9.0
 40
10.0
 40
10.0
 40
10.0
 40
11.0
 40
11.0
 40
11.0
 40
12.0
 40
12.0
 40
12.0
 40
13.0
 40
13.0
 40
13.0
 40
14.0
 40
14.0
 40
14.0
 40
14.0
 10
357.3570909724003
 20
-367.9943000000003
 10
356.7030909889218
 20
-369.2110000000002
 10
355.839891010728
 20
-369.9575999999997
 10
354.4646910454685
 20
-370.3217999999997
 10
346.1710912549825
 20
-372.5181000000002
 10
338.1773914569203
 20
-375.5528000000004
 10
330.4252916527548
 20
-379.2121999999999
 10
329.0210916882279
 20
-379.8752000000004
 10
327.883691716961
 20
-379.8217000000004
 10
326.5672917502161
 20
-379.0267999999996
 10
324.7758917954707
 20
-377.9451000000008
 10
322.9790918408617
 20
-376.8520000000008
 10
321.5678918765116
 20
-375.3239999999996
 10
314.0901920654142
 20
-367.2273999999998
 10
308.0238922186618
 20
-358.1257999999998
 10
304.6820923030828
 20
-347.6332000000002
 10
301.8593923743902
 20
-338.7705999999998
 10
302.3812923612059
 20
-329.6368000000002
 10
305.7734922755117
 20
-320.8671999999997
 10
310.1466921650353
 20
-309.5618999999997
 10
320.0021919160645
 20
-305.8181999999997
 10
330.7856916436504
 20
-311.3098
 10
333.602491572492
 20
-312.7442000000001
 10
336.2822915047946
 20
-314.4459999999999
 10
338.7262914430539
 20
-317.4358000000002
 10
332.629691597067
 20
-316.5933000000005
 10
327.8061917189189
 20
-318.2492000000002
 10
323.7764918207176
 20
-322.1055999999999
 10
320.3320000000003
 20
-325.402
 10
317.6418919756907
 20
-329.2066000000004
 10
316.7526919981538
 20
-333.9844000000003
 10
315.2401920363627
 20
-342.1124
 10
319.3756919318912
 20
-349.6424999999999
 10
327.3055917315651
 20
-353.4188000000004
 10
334.2920000000004
 20
-356.7457999999997
 10
343.832391314063
 20
-356.7978999999996
 10
352.4113910973392
 20
-345.8567000000003
 10
353.2330910765813
 20
-348.5472
 10
355.084491029811
 20
-350.335
 10
356.3513909978064
 20
-352.4830000000002
 10
359.3096909230735
 20
-357.4988000000003
 10
360.2558908991705
 20
-362.6009999999997
 10
357.3570909724003
 20
-367.9943000000003
 97
        0
 97
        0
 92
        1
 93
        1
 72
     4
 94
        3
 73
     0
 74
     1
 95
       89
 96
       85
 40
0.0
 40
0.0
 40
0.0
 40
0.0
 40
1.0
 40
1.0
 40
1.0
 40
2.0
 40
2.0
 40
2.0
 40
3.0
 40
3.0
 40
3.0
 40
4.0
 40
4.0
 40
4.0
 40
5.0
 40
5.0
 40
5.0
 40
6.0
 40
6.0
 40
6.0
 40
7.0
 40
7.0
 40
7.0
 40
8.0
 40
8.0
 40
8.0
 40
9.0
 40
9.0
 40
9.0
 40
10.0
 40
10.0
 40
10.0
 40
11.0
 40
11.0
 40
11.0
 40
12.0
 40
12.0
 40
12.0
 40
13.0
 40
13.0
 40
13.0
 40
14.0
 40
14.0
 40
14.0
 40
15.0
 40
15.0
 40
15.0
 40
16.0
 40
16.0
 40
16.0
 40
17.0
 40
17.0
 40
17.0
 40
18.0
 40
18.0
 40
18.0
 40
19.0
 40
19.0
 40
19.0
 40
20.0
 40
20.0
 40
20.0
 40
21.0
 40
21.0
 40
21.0
 40
22.0
 40
22.0
 40
22.0
 40
23.0
 40
23.0
 40
23.0
 40
24.0
 40
24.0
 40
24.0
 40
25.0
 40
25.0
 40
25.0
 40
26.0
 40
26.0
 40
26.0
 40
27.0
 40
27.0
 40
27.0
 40
28.0
 40
28.0
 40
28.0
 40
28.0
 10
494.4001875104004
 20
-358.9472999999998
 10
490.5789999999997
 20
-363.9175999999998
 10
485.2255877421703
 20
-366.8312999999998
 10
479.6651878826378
 20
-369.3325000000004
 10
474.0648880241133
 20
-371.8518000000004
 10
468.280588170237
 20
-373.9178000000002
 10
462.4326883179674
 20
-375.8096999999998
 10
460.9213883561461
 20
-376.2986000000001
 10
459.6298883887721
 20
-376.2383000000009
 10
458.1751884255209
 20
-375.6764000000003
 10
437.3107889526
 20
-367.6163999999999
 10
415.6896894987949
 20
-363.7811000000002
 10
393.3263900637394
 20
-364.3387000000002
 10
388.4765901862556
 20
-364.4597000000003
 10
383.6332903086077
 20
-364.973
 10
378.7971904307778
 20
-365.4169000000002
 10
377.5949999999993
 20
-365.5271000000002
 10
376.6463904851116
 20
-365.3982999999998
 10
375.6601905100251
 20
-364.6587
 10
371.8904906052558
 20
-361.8316999999997
 10
368.4508906921474
 20
-358.6881999999996
 10
365.6167907637428
 20
-354.8977000000004
 10
362.4081908447988
 20
-350.6063000000004
 10
361.2091908750881
 20
-345.7443000000003
 10
361.3935908704298
 20
-340.4755000000005
 10
362.0754908532035
 20
-320.9961999999996
 10
367.0268907281206
 20
-303.0684000000001
 10
380.1710000000003
 20
-288.0190000000002
 10
382.884290327529
 20
-284.9123
 10
385.5390902604631
 20
-281.6540999999997
 10
387.0038902234592
 20
-276.9309999999996
 10
379.7028904078979
 20
-280.1489000000001
 10
374.3704905426057
 20
-284.799
 10
370.0020906529608
 20
-290.6630999999998
 10
364.3400907959949
 20
-298.2635
 10
361.1587908763613
 20
-307.0977999999996
 10
357.4853909691592
 20
-315.6900999999998
 10
356.547790992845
 20
-317.8833999999997
 10
355.549
 20
-320.0504000000001
 10
354.4790000000003
 20
-322.4522999999999
 10
348.570391194371
 20
-315.2726000000002
 10
343.8170913144495
 20
-308.0334999999995
 10
343.3599999999997
 20
-298.6673000000001
 10
342.9075913374254
 20
-289.3969999999999
 10
342.121291357289
 20
-280.1612000000005
 10
342.6366913442689
 20
-270.8469000000005
 10
343.6048913198101
 20
-253.3490000000002
 10
347.0334912331964
 20
-236.3334999999997
 10
352.376091098231
 20
-219.7115000000003
 10
357.835090960325
 20
-202.7273000000005
 10
365.0413907782786
 20
-186.5383000000002
 10
375.9501905026991
 20
-172.2412999999997
 10
382.653590333357
 20
-163.4558999999999
 10
390.3066901400234
 20
-155.7380000000003
 10
400.8325898741168
 20
-151.5402999999997
 10
410.2351896365872
 20
-147.7906999999996
 10
419.7255893968395
 20
-146.9321
 10
428.9683891633467
 20
-151.8245999999999
 10
435.9434889871409
 20
-155.5168000000003
 10
440.5589999999993
 20
-161.6400999999996
 10
444.2951887761592
 20
-168.4096
 10
449.720788639097
 20
-178.2401
 10
452.5375885679387
 20
-188.9318000000003
 10
454.2604885244145
 20
-199.9373999999998
 10
457.1467884515005
 20
-218.3752000000004
 10
457.1993884501717
 20
-236.8963999999996
 10
455.9831884808955
 20
-255.4786000000004
 10
455.3432884970607
 20
-265.2554
 10
454.7124885129961
 20
-275.0640000000003
 10
455.8310884847378
 20
-284.8622999999998
 10
456.1427884768636
 20
-287.5918000000001
 10
456.4747884684766
 20
-290.3278
 10
458.0231884293607
 20
-293.0084999999999
 10
462.109888326122
 20
-289.0999000000002
 10
461.7562883350547
 20
-283.9233999999997
 10
462.7517883099063
 20
-279.0149000000001
 10
464.5987882632471
 20
-279.3535000000002
 10
466.1067882251518
 20
-280.3433000000005
 10
467.5014881899187
 20
-281.3852999999999
 10
484.6357877570699
 20
-294.1868999999997
 10
496.0832874678817
 20
-310.7713999999996
 10
499.9313873706706
 20
-331.9763999999996
 10
501.6573873270681
 20
-341.4875000000002
 10
500.6063873536186
 20
-350.8746000000001
 10
494.4001875104004
 20
-358.9472999999998
 97
        0
 97
        0
 92
        1
 93
        1
 72
     4
 94
        3
 73
     0
 74
     1
 95
       38
 96
       34
 40
0.0
 40
0.0
 40
0.0
 40
0.0
 40
1.0
 40
1.0
 40
1.0
 40
2.0
 40
2.0
 40
2.0
 40
3.0
 40
3.0
 40
3.0
 40
4.0
 40
4.0
 40
4.0
 40
5.0
 40
5.0
 40
5.0
 40
6.0
 40
6.0
 40
6.0
 40
7.0
 40
7.0
 40
7.0
 40
8.0
 40
8.0
 40
8.0
 40
9.0
 40
9.0
 40
9.0
 40
10.0
 40
10.0
 40
10.0
 40
11.0
 40
11.0
 40
11.0
 40
11.0
 10
632.3335840259097
 20
-582.6280999999999
 10
631.4753840475896
 20
-588.8922000000002
 10
628.1841841307323
 20
-593.2819
 10
622.1886842821914
 20
-595.6412
 10
617.446384401992
 20
-597.5074000000004
 10
612.7133845215576
 20
-598.9951999999994
 10
607.5430846521704
 20
-597.7027999999991
 10
603.7088847490304
 20
-596.7443999999996
 10
602.8541847706219
 20
-595.6612999999998
 10
603.2786847598982
 20
-591.723
 10
605.0607847148785
 20
-575.1893
 10
600.0950848403227
 20
-560.4022999999997
 10
591.5708850556621
 20
-546.5612999999994
 10
586.7280851780015
 20
-538.6977999999999
 10
580.8781853257824
 20
-531.6177000000007
 10
574.2478854932779
 20
-525.1970000000001
 10
573.2055855196086
 20
-524.1877000000004
 10
573.0284855240825
 20
-523.4058999999997
 10
573.6565855082154
 20
-522.0730000000003
 10
577.9340854001566
 20
-512.9966000000004
 10
585.0711852198583
 20
-509.8737999999994
 10
594.607684978946
 20
-513.1923000000006
 10
603.2547847605019
 20
-516.2013000000006
 10
609.7535845963284
 20
-522.1378000000004
 10
615.4466844525086
 20
-529.0542000000005
 10
624.6386842202992
 20
-540.2211000000007
 10
630.2468840786241
 20
-552.9930000000004
 10
632.2688840275441
 20
-567.3114000000005
 10
632.6319999999996
 20
-569.8827000000001
 10
632.6696840174191
 20
-572.4999000000007
 10
632.8757840122125
 20
-575.3457999999991
 10
632.715484016262
 20
-577.6124999999993
 10
632.6742840173029
 20
-580.1409000000003
 10
632.3335840259097
 20
-582.6280999999999
 97
        0
 97
        0
 92
        1
 93
        1
 72
     4
 94
        3
 73
     0
 74
     1
 95
       35
 96
       31
 40
0.0
 40
0.0
 40
0.0
 40
0.0
 40
1.0
 40
1.0
 40
1.0
 40
2.0
 40
2.0
 40
2.0
 40
3.0
 40
3.0
 40
3.0
 40
4.0
 40
4.0
 40
4.0
 40
5.0
 40
5.0
 40
5.0
 40
6.0
 40
6.0
 40
6.0
 40
7.0
 40
7.0
 40
7.0
 40
8.0
 40
8.0
 40
8.0
 40
9.0
 40
9.0
 40
9.0
 40
10.0
 40
10.0
 40
10.0
 40
10.0
 10
668.5271831115824
 20
-579.5871999999999
 10
667.2841831429832
 20
-586.4107999999997
 10
661.4590832901376
 20
-591.1767
 10
654.4877834662475
 20
-591.4123999999993
 10
650.1739999999991
 20
-591.5583000000006
 10
646.3109999999997
 20
-590.2891
 10
642.6660837648888
 20
-588.101200000001
 10
641.5235837937507
 20
-587.4153999999999
 10
640.9185838090343
 20
-586.6913000000004
 10
641.1527838031179
 20
-585.1947999999993
 10
641.473
 20
-583.1476999999995
 10
641.4546837954913
 20
-581.0476999999992
 10
641.6114837915302
 20
-578.4781999999996
 10
642.6280837658487
 20
-562.3600999999999
 10
638.081583880703
 20
-547.4655999999995
 10
627.7618841414005
 20
-534.3762000000006
 10
623.6298842457836
 20
-529.1353999999992
 10
619.4924843503031
 20
-523.8974999999991
 10
615.2672844570407
 20
-518.7322000000004
 10
614.106084486375
 20
-517.3125
 10
614.1194844860365
 20
-516.7608999999993
 10
615.9918844387357
 20
-516.1983999999993
 10
624.6898842190058
 20
-513.5859
 10
632.511384021418
 20
-515.8485000000001
 10
639.5866838426809
 20
-520.8017
 10
654.5183834654745
 20
-531.2548000000006
 10
663.4018832410584
 20
-545.8706000000002
 10
667.8314831291573
 20
-563.3453000000009
 10
669.1851830949599
 20
-568.6859000000004
 10
669.5184830865401
 20
-574.1450000000004
 10
668.5271831115824
 20
-579.5871999999999
 97
        0
 97
        0
 92
        1
 93
        1
 72
     4
 94
        3
 73
     0
 74
     1
 95
       26
 96
       22
 40
0.0
 40
0.0
 40
0.0
 40
0.0
 40
1.0
 40
1.0
 40
1.0
 40
2.0
 40
2.0
 40
2.0
 40
3.0
 40
3.0
 40
3.0
 40
4.0
 40
4.0
 40
4.0
 40
5.0
 40
5.0
 40
5.0
 40
6.0
 40
6.0
 40
6.0
 40
7.0
 40
7.0
 40
7.0
 40
7.0
 10
695.5840000000007
 20
-572.2122999999992
 10
693.9597824691009
 20
-578.7410999999993
 10
687.1485826411663
 20
-582.3065999999999
 10
680.795882801649
 20
-580.1623999999993
 10
678.606082856968
 20
-579.4231999999993
 10
677.5196828844128
 20
-578.2176999999992
 10
677.1996828924966
 20
-575.7844999999998
 10
675.9353829244355
 20
-566.1679000000004
 10
674.1940829684245
 20
-556.6556
 10
669.513183086674
 20
-547.9611000000004
 10
667.210883144835
 20
-543.6846000000005
 10
664.3244832177515
 20
-539.8168000000005
 10
660.8692833050372
 20
-535.5601000000006
 10
665.7575831815484
 20
-536.0508000000009
 10
669.7739999999994
 20
-537.2849000000006
 10
673.5855829837965
 20
-539.1975999999995
 10
682.9566827470626
 20
-543.9001000000007
 10
689.9528825703237
 20
-550.9274000000005
 10
694.6100000000006
 20
-560.3637999999992
 10
696.5348824040484
 20
-564.2641999999996
 10
696.5849999999991
 20
-568.1888999999992
 10
695.5840000000007
 20
-572.2122999999992
 97
        0
 97
        0
 92
        1
 93
        1
 72
     4
 94
        3
 73
     0
 74
     1
 95
      221
 96
      217
 40
0.0
 40
0.0
 40
0.0
 40
0.0
 40
1.0
 40
1.0
 40
1.0
 40
2.0
 40
2.0
 40
2.0
 40
3.0
 40
3.0
 40
3.0
 40
4.0
 40
4.0
 40
4.0
 40
5.0
 40
5.0
 40
5.0
 40
6.0
 40
6.0
 40
6.0
 40
7.0
 40
7.0
 40
7.0
 40
8.0
 40
8.0
 40
8.0
 40
9.0
 40
9.0
 40
9.0
 40
10.0
 40
10.0
 40
10.0
 40
11.0
 40
11.0
 40
11.0
 40
12.0
 40
12.0
 40
12.0
 40
13.0
 40
13.0
 40
13.0
 40
14.0
 40
14.0
 40
14.0
 40
15.0
 40
15.0
 40
15.0
 40
16.0
 40
16.0
 40
16.0
 40
17.0
 40
17.0
 40
17.0
 40
18.0
 40
18.0
 40
18.0
 40
19.0
 40
19.0
 40
19.0
 40
20.0
 40
20.0
 40
20.0
 40
21.0
 40
21.0
 40
21.0
 40
22.0
 40
22.0
 40
22.0
 40
23.0
 40
23.0
 40
23.0
 40
24.0
 40
24.0
 40
24.0
 40
25.0
 40
25.0
 40
25.0
 40
26.0
 40
26.0
 40
26.0
 40
27.0
 40
27.0
 40
27.0
 40
28.0
 40
28.0
 40
28.0
 40
29.0
 40
29.0
 40
29.0
 40
30.0
 40
30.0
 40
30.0
 40
31.0
 40
31.0
 40
31.0
 40
32.0
 40
32.0
 40
32.0
 40
33.0
 40
33.0
 40
33.0
 40
34.0
 40
34.0
 40
34.0
 40
35.0
 40
35.0
 40
35.0
 40
36.0
 40
36.0
 40
36.0
 40
37.0
 40
37.0
 40
37.0
 40
38.0
 40
38.0
 40
38.0
 40
39.0
 40
39.0
 40
39.0
 40
40.0
 40
40.0
 40
40.0
 40
41.0
 40
41.0
 40
41.0
 40
42.0
 40
42.0
 40
42.0
 40
43.0
 40
43.0
 40
43.0
 40
44.0
 40
44.0
 40
44.0
 40
45.0
 40
45.0
 40
45.0
 40
46.0
 40
46.0
 40
46.0
 40
47.0
 40
47.0
 40
47.0
 40
48.0
 40
48.0
 40
48.0
 40
49.0
 40
49.0
 40
49.0
 40
50.0
 40
50.0
 40
50.0
 40
51.0
 40
51.0
 40
51.0
 40
52.0
 40
52.0
 40
52.0
 40
53.0
 40
53.0
 40
53.0
 40
54.0
 40
54.0
 40
54.0
 40
55.0
 40
55.0
 40
55.0
 40
56.0
 40
56.0
 40
56.0
 40
57.0
 40
57.0
 40
57.0
 40
58.0
 40
58.0
 40
58.0
 40
59.0
 40
59.0
 40
59.0
 40
60.0
 40
60.0
 40
60.0
 40
61.0
 40
61.0
 40
61.0
 40
62.0
 40
62.0
 40
62.0
 40
63.0
 40
63.0
 40
63.0
 40
64.0
 40
64.0
 40
64.0
 40
65.0
 40
65.0
 40
65.0
 40
66.0
 40
66.0
 40
66.0
 40
67.0
 40
67.0
 40
67.0
 40
68.0
 40
68.0
 40
68.0
 40
69.0
 40
69.0
 40
69.0
 40
70.0
 40
70.0
 40
70.0
 40
71.0
 40
71.0
 40
71.0
 40
72.0
 40
72.0
 40
72.0
 40
72.0
 10
457.0255884545622
 20
-535.6241000000009
 10
458.1447884262889
 20
-535.8469000000005
 10
459.4868883923846
 20
-536.6005999999998
 10
460.1738883750295
 20
-534.9650999999994
 10
460.8501883579447
 20
-533.3552
 10
459.3761883951811
 20
-532.8600000000006
 10
458.4638884182277
 20
-532.1988999999994
 10
457.4896884428381
 20
-531.4928999999993
 10
456.4077884701692
 20
-530.9164999999994
 10
455.3224884975862
 20
-530.3865999999998
 10
450.8400886108211
 20
-528.1977999999999
 10
446.0031887330115
 20
-527.1445999999996
 10
441.1396888558738
 20
-526.3567999999996
 10
439.029488909182
 20
-526.0151000000005
 10
438.8062889148205
 20
-525.1507000000001
 10
439.2575889034197
 20
-523.4372999999996
 10
440.297788877142
 20
-519.4884999999995
 10
440.8465888632782
 20
-515.4438000000009
 10
441.2024888542874
 20
-511.3937000000005
 10
442.8317888131278
 20
-492.8579000000009
 10
440.1096888818938
 20
-474.9107999999997
 10
433.3426890528426
 20
-457.6206999999995
 10
429.0831891604466
 20
-446.7374
 10
423.746689295258
 20
-436.4285
 10
414.9470000000001
 20
-428.3860000000004
 10
413.4831895545358
 20
-427.0481999999993
 10
413.7534895477074
 20
-426.6057000000001
 10
415.1052895135581
 20
-425.4164999999994
 10
426.6664892214976
 20
-415.2463000000007
 10
431.174489107616
 20
-402.3840999999993
 10
429.3790891529716
 20
-387.1918000000005
 10
429.2177891570464
 20
-385.8269
 10
429.0267891618714
 20
-384.4871000000003
 10
427.2558892066081
 20
-384.4909000000007
 10
425.3271892553312
 20
-384.4950000000008
 10
425.2395892575441
 20
-385.9743999999992
 10
425.0395892625966
 20
-387.4037000000008
 10
424.0772892869063
 20
-394.2810000000009
 10
422.6028893241528
 20
-401.0311000000002
 10
419.9033893923479
 20
-407.4660999999996
 10
417.591189450759
 20
-412.9778000000006
 10
414.5115895285562
 20
-417.9547000000002
 10
409.7733896482532
 20
-421.7271000000001
 10
408.8900896705672
 20
-422.4302000000007
 10
408.0249999999996
 20
-423.5115000000005
 10
406.3422897349301
 20
-422.8824999999997
 10
412.6301895760844
 20
-411.8433999999997
 10
413.5228895535329
 20
-400.2317000000003
 10
410.9818896177239
 20
-388.2494999999999
 10
409.759
 20
-382.4832000000006
 10
407.4542897068386
 20
-377.1900999999998
 10
402.491389832212
 20
-373.4893000000002
 10
401.4505898585048
 20
-372.7133000000003
 10
400.4580000000005
 20
-372.0749999999998
 10
399.2473899141623
 20
-373.0779000000002
 10
398.0188899451969
 20
-374.0955999999996
 10
398.5324899322222
 20
-375.2483000000002
 10
399.0769999999993
 20
-376.3654000000006
 10
402.4885898322827
 20
-383.366
 10
404.5815897794091
 20
-390.7363999999998
 10
405.1430897652244
 20
-398.5064000000002
 10
405.7026897510877
 20
-406.2499000000007
 10
404.3678897848076
 20
-413.6823999999997
 10
401.2984898623472
 20
-420.8235000000004
 10
400.7520898761504
 20
-422.0946999999996
 10
399.773289900877
 20
-422.6599000000006
 10
398.6804899284834
 20
-422.4688999999998
 10
397.5367899573757
 20
-422.2690999999995
 10
398.1039999999994
 20
-421.0210999999999
 10
398.0850899435245
 20
-420.2543000000005
 10
397.8502899494561
 20
-410.6913999999997
 10
395.6726900044669
 20
-401.5694000000003
 10
391.9038900996748
 20
-392.8116000000009
 10
390.4290000000001
 20
-389.3842000000004
 10
388.7978901781389
 20
-386.0288999999993
 10
386.0976902463517
 20
-383.3469999999998
 10
385.1224902709873
 20
-382.3783999999996
 10
383.9981902993895
 20
-381.6162999999997
 10
382.6605903331802
 20
-382.5967000000001
 10
381.4108903647502
 20
-383.5126999999993
 10
381.8540903535541
 20
-384.7098000000005
 10
382.3852903401348
 20
-385.8744999999999
 10
388.103090195691
 20
-398.4112999999998
 10
391.0582901210364
 20
-411.5876000000007
 10
391.540490108855
 20
-425.3430000000008
 10
391.5840000000007
 20
-426.5830000000005
 10
391.5365901089535
 20
-427.6805000000004
 10
390.802190127506
 20
-428.7914999999994
 10
388.2120901929375
 20
-432.7099999999991
 10
387.1287902203039
 20
-437.1615999999995
 10
386.5669999999991
 20
-441.7512000000006
 10
385.0840000000007
 20
-453.8665000000001
 10
386.5120000000006
 20
-465.8081000000002
 10
388.9413901745138
 20
-477.6571000000004
 10
392.5540000000001
 20
-495.2764999999999
 10
398.094489943287
 20
-512.2546999999995
 10
406.2672897368248
 20
-528.3197999999993
 10
406.8743897214881
 20
-529.5131000000001
 10
406.8775897214073
 20
-530.0444000000007
 10
405.4055897585931
 20
-530.4905999999992
 10
400.6817898779263
 20
-531.9225999999999
 10
396.1446899925431
 20
-533.8786999999993
 10
391.7184901043584
 20
-536.0421000000006
 10
389.9200000000001
 20
-536.9210999999996
 10
389.6106901576059
 20
-536.4791999999998
 10
389.465090161284
 20
-534.7209999999995
 10
388.5460000000003
 20
-523.6152000000002
 10
385.8548902524853
 20
-512.8778999999995
 10
382.4217903392127
 20
-502.3205999999991
 10
377.1506904723719
 20
-486.1111999999994
 10
370.5786906383946
 20
-470.5020000000004
 10
360.5119999999997
 20
-456.5936999999994
 10
356.9250000000002
 20
-451.6378999999997
 10
352.8383910865523
 20
-447.1363999999994
 10
347.0581912325724
 20
-444.6470000000008
 10
345.8803912623262
 20
-444.1396999999997
 10
344.9962912846604
 20
-443.4822000000004
 10
344.2186913043042
 20
-442.5136000000002
 10
337.8307914656762
 20
-434.5565999999999
 10
332.5472915991486
 20
-425.9451000000008
 10
328.8443916926917
 20
-416.4166999999998
 10
327.5928917243073
 20
-413.1962999999996
 10
326.5585917504359
 20
-409.8911000000007
 10
325.4370917787674
 20
-406.6205000000009
 10
325.0725917879754
 20
-405.5576000000001
 10
324.5336918015892
 20
-404.7464999999993
 10
323.2471918340889
 20
-404.7908000000007
 10
321.9437918670155
 20
-404.8358000000007
 10
321.5265918775549
 20
-405.6906999999992
 10
321.2457918846485
 20
-406.7940999999992
 10
320.8940918935332
 20
-408.1758000000009
 10
320.9343918925151
 20
-409.5409
 10
321.1630918867377
 20
-410.9205000000002
 10
323.1522918364863
 20
-422.9223999999995
 10
328.4832917018139
 20
-433.3925999999992
 10
335.7996915169861
 20
-442.9658999999992
 10
336.2349999999997
 20
-443.5355999999992
 10
337.6037914714107
 20
-443.9856999999993
 10
336.6380914958063
 20
-444.9853000000003
 10
335.8903915146948
 20
-445.7592000000004
 10
334.9160915393077
 20
-446.4182000000001
 10
333.6407915715245
 20
-445.6131999999998
 10
332.0323916121561
 20
-444.598
 10
330.2683916567184
 20
-443.8240000000005
 10
328.6860916966907
 20
-442.7734999999993
 10
317.2171919864195
 20
-435.1587999999992
 10
310.5573921546602
 20
-424.1970999999994
 10
306.8514922482791
 20
-411.2029999999995
 10
306.4735922578257
 20
-409.8780999999999
 10
306.299
 20
-408.2819999999992
 10
304.4202923096964
 20
-408.3786999999993
 10
302.6292923549408
 20
-408.4709000000003
 10
302.4154923603419
 20
-409.9429
 10
302.1413923672662
 20
-411.3572000000004
 10
301.0595923945948
 20
-416.9382000000005
 10
302.6130000000003
 20
-422.0499999999993
 10
305.1411922914849
 20
-426.8690000000006
 10
310.5816921540463
 20
-437.2396000000008
 10
318.2936919592248
 20
-445.2957999999999
 10
329.3385916802072
 20
-449.8068000000003
 10
329.8001916685462
 20
-449.9953999999998
 10
330.7055916456738
 20
-449.9351999999999
 10
330.5556916494606
 20
-450.8246999999992
 10
330.4262916527296
 20
-451.5928000000004
 10
329.8188916680738
 20
-451.9783000000007
 10
329.0625916871795
 20
-452.0429999999997
 10
328.2862917067905
 20
-452.1095000000005
 10
327.5026917265859
 20
-452.1707000000006
 10
326.7260917462045
 20
-452.1399000000001
 10
321.0852918887031
 20
-451.9164000000001
 10
315.8542920208492
 20
-450.2304999999997
 10
310.8568921470942
 20
-447.6885000000002
 10
304.6241923045454
 20
-444.5182000000004
 10
299.1148924437221
 20
-440.3299999999999
 10
293.9009999999998
 20
-435.7217000000001
 10
292.9255926000769
 20
-434.8597000000009
 10
291.9150926256043
 20
-434.1625000000004
 10
290.7126926559795
 20
-435.2464999999993
 10
289.5636926850057
 20
-436.2823000000008
 10
289.9719999999998
 20
-437.4174999999996
 10
290.6890000000003
 20
-438.5152999999991
 10
290.9735926493886
 20
-438.9508000000005
 10
291.2268926429897
 20
-439.4081000000006
 10
291.5307926353125
 20
-439.8292999999994
 10
299.8582924249422
 20
-451.3718000000008
 10
311.0397921424737
 20
-457.7530999999999
 10
325.3343917813618
 20
-458.4390000000003
 10
326.7013917468284
 20
-458.5046000000002
 10
327.3541917303373
 20
-458.5565999999999
 10
326.9143917414476
 20
-460.3214000000007
 10
326.0348917636657
 20
-463.8505000000005
 10
325.6632917730531
 20
-467.4752000000008
 10
325.5839999999998
 20
-471.1345999999994
 10
325.3852917800759
 20
-480.3055999999997
 10
326.5698917501504
 20
-489.3232000000007
 10
328.9735916894278
 20
-498.1278000000002
 10
334.9802915376858
 20
-520.1308000000008
 10
344.5955912947829
 20
-540.0018
 10
363.273390822942
 20
-554.2903000000006
 10
364.2395907985338
 20
-555.0295000000006
 10
364.1760000000004
 20
-555.5483000000004
 10
363.4103908194811
 20
-556.3341
 10
361.7146908623181
 20
-558.0743999999995
 10
360.0371909046953
 20
-559.8346999999994
 10
358.4088909458296
 20
-561.6380000000008
 10
354.9514910331709
 20
-565.4668999999994
 10
351.5302911195977
 20
-569.3282999999992
 10
347.8010000000004
 20
-573.5048999999999
 10
352.0397911067266
 20
-573.8356000000003
 10
355.1810910273707
 20
-573.7731000000003
 10
358.3073909483937
 20
-570.6213000000007
 10
367.0620907272314
 20
-561.7952999999998
 10
376.9026904786369
 20
-554.2361999999994
 10
387.7720000000008
 20
-548.0931999999993
 10
409.4062896575269
 20
-535.866
 10
432.3038890790849
 20
-530.7005000000008
 10
457.0255884545622
 20
-535.6241000000009
 97
        0
 97
        0
 92
        1
 93
        1
 72
     4
 94
        3
 73
     0
 74
     1
 95
       47
 96
       43
 40
0.0
 40
0.0
 40
0.0
 40
0.0
 40
1.0
 40
1.0
 40
1.0
 40
2.0
 40
2.0
 40
2.0
 40
3.0
 40
3.0
 40
3.0
 40
4.0
 40
4.0
 40
4.0
 40
5.0
 40
5.0
 40
5.0
 40
6.0
 40
6.0
 40
6.0
 40
7.0
 40
7.0
 40
7.0
 40
8.0
 40
8.0
 40
8.0
 40
9.0
 40
9.0
 40
9.0
 40
10.0
 40
10.0
 40
10.0
 40
11.0
 40
11.0
 40
11.0
 40
12.0
 40
12.0
 40
12.0
 40
13.0
 40
13.0
 40
13.0
 40
14.0
 40
14.0
 40
14.0
 40
14.0
 10
406.25678973709
 20
-497.0105999999996
 10
405.3182897607985
 20
-498.8974999999991
 10
404.7422897753495
 20
-500.8801999999996
 10
404.7177897759684
 20
-502.9964999999993
 10
404.694689776552
 20
-504.9868999999999
 10
404.7127897760947
 20
-506.9776999999995
 10
404.7127897760947
 20
-508.9683999999997
 10
402.5584898305169
 20
-505.0427999999993
 10
401.1817898652953
 20
-500.8901000000005
 10
399.9910898953749
 20
-496.6715999999997
 10
395.3123900135688
 20
-480.0928999999996
 10
392.2417900911387
 20
-463.2821000000004
 10
392.8162900766256
 20
-445.9640999999992
 10
392.9633900729095
 20
-441.5329999999994
 10
393.4941900595004
 20
-437.1375000000007
 10
395.3551900124876
 20
-433.0457000000006
 10
397.9885899459623
 20
-427.2559000000001
 10
402.0404898436027
 20
-426.1573000000008
 10
407.256189711843
 20
-429.7844000000005
 10
410.9441896186763
 20
-432.3490000000002
 10
413.7385895480838
 20
-435.7870000000003
 10
416.2567894844688
 20
-439.4361000000008
 10
426.2717892314686
 20
-453.9483999999993
 10
432.0951890843571
 20
-470.1321000000007
 10
434.9426890124232
 20
-487.4171000000006
 10
436.9468889617929
 20
-499.5828999999994
 10
436.9222889624143
 20
-511.7576000000008
 10
433.9072890385796
 20
-523.8042999999998
 10
433.6326890455166
 20
-524.9017000000003
 10
433.8031890412094
 20
-526.3340000000007
 10
432.4784890746741
 20
-526.9460999999992
 10
430.2468891310491
 20
-527.9773999999998
 10
428.9323891642562
 20
-527.1206000000002
 10
428.8942891652187
 20
-524.6270999999997
 10
428.7754891682198
 20
-516.858400000001
 10
427.8008891928403
 20
-509.2466000000004
 10
424.5200892757202
 20
-502.1077000000005
 10
422.9497893153894
 20
-498.6908000000003
 10
420.9447893660399
 20
-495.5486999999994
 10
417.5674894513577
 20
-493.5777999999991
 10
413.1004895642036
 20
-490.9709000000003
 10
408.5717896786082
 20
-492.3562999999995
 10
406.25678973709
 20
-497.0105999999996
 97
        0
 97
        0
 92
        1
 93
        1
 72
     4
 94
        3
 73
     0
 74
     1
 95
       47
 96
       43
 40
0.0
 40
0.0
 40
0.0
 40
0.0
 40
1.0
 40
1.0
 40
1.0
 40
2.0
 40
2.0
 40
2.0
 40
3.0
 40
3.0
 40
3.0
 40
4.0
 40
4.0
 40
4.0
 40
5.0
 40
5.0
 40
5.0
 40
6.0
 40
6.0
 40
6.0
 40
7.0
 40
7.0
 40
7.0
 40
8.0
 40
8.0
 40
8.0
 40
9.0
 40
9.0
 40
9.0
 40
10.0
 40
10.0
 40
10.0
 40
11.0
 40
11.0
 40
11.0
 40
12.0
 40
12.0
 40
12.0
 40
13.0
 40
13.0
 40
13.0
 40
14.0
 40
14.0
 40
14.0
 40
14.0
 10
374.0941905495856
 20
-509.9171000000006
 10
369.4334906673248
 20
-505.7484999999997
 10
364.5567907905206
 20
-506.5715
 10
361.8326908593372
 20
-512.2050999999992
 10
358.7756909365635
 20
-518.5270999999993
 10
359.0067909307254
 20
-525.1126999999997
 10
360.8593908839248
 20
-531.7219999999998
 10
362.6604908384252
 20
-538.1478000000006
 10
366.0741907521879
 20
-543.5571
 10
371.1118906249249
 20
-547.9560000000001
 10
371.634090611733
 20
-548.4118999999992
 10
373.1898905724302
 20
-548.8513999999996
 10
372.1121905996552
 20
-549.7965999999997
 10
371.1263906245586
 20
-550.6612000000005
 10
370.1987906479917
 20
-552.6031000000003
 10
368.2577906970255
 20
-551.2556999999997
 10
364.4627907928952
 20
-548.6213000000007
 10
361.0621908788016
 20
-545.5414000000001
 10
358.0576909547017
 20
-542.0388999999996
 10
345.8140000000003
 20
-527.7656999999999
 10
338.8162914407803
 20
-510.9526000000005
 10
334.5036915497258
 20
-492.8922999999995
 10
332.2021916078666
 20
-483.2546000000002
 10
330.8053916431527
 20
-473.4974000000002
 10
331.8406916169988
 20
-463.5347000000002
 10
332.1556916090412
 20
-460.5035000000007
 10
332.7415915942402
 20
-457.5414999999994
 10
334.0187915619754
 20
-454.7664000000004
 10
336.7282914935276
 20
-448.8786
 10
341.623391369867
 20
-447.5673000000006
 10
346.9712912347677
 20
-451.2085000000006
 10
350.2515911519004
 20
-453.4418999999998
 10
352.8772910855696
 20
-456.3413999999993
 10
355.0943910295609
 20
-459.5552000000007
 10
366.9158907309247
 20
-476.6913000000004
 10
375.0297905259504
 20
-495.4966000000004
 10
380.0679999999993
 20
-515.6602999999996
 10
380.2110903950597
 20
-516.2332999999999
 10
380.2197903948399
 20
-516.8397999999997
 10
380.2910903930388
 20
-517.4307000000008
 10
378.1622904468168
 20
-514.8207000000002
 10
376.5083904885978
 20
-512.0763999999999
 10
374.0941905495856
 20
-509.9171000000006
 97
        0
 97
        0
 92
        1
 93
        1
 72
     4
 94
        3
 73
     0
 74
     1
 95
       29
 96
       25
 40
0.0
 40
0.0
 40
0.0
 40
0.0
 40
1.0
 40
1.0
 40
1.0
 40
2.0
 40
2.0
 40
2.0
 40
3.0
 40
3.0
 40
3.0
 40
4.0
 40
4.0
 40
4.0
 40
5.0
 40
5.0
 40
5.0
 40
6.0
 40
6.0
 40
6.0
 40
7.0
 40
7.0
 40
7.0
 40
8.0
 40
8.0
 40
8.0
 40
8.0
 10
462.584788314125
 20
-572.0748000000003
 10
462.8381883077236
 20
-574.2489999999998
 10
461.2818883470391
 20
-573.6458999999995
 10
460.2162883739584
 20
-573.6471999999994
 10
443.4802887967453
 20
-573.667300000001
 10
426.7441892195347
 20
-573.6602000000003
 10
410.0080896423242
 20
-573.6597999999994
 10
397.7810899512042
 20
-573.6594999999998
 10
385.5540902600842
 20
-573.6597000000002
 10
373.3270905689642
 20
-573.6597000000002
 10
372.4973905899242
 20
-573.6597000000002
 10
371.6675906108867
 20
-573.6597000000002
 10
370.327390644743
 20
-573.6597000000002
 10
374.0073905517784
 20
-568.8135000000002
 10
377.4760904641516
 20
-564.5303999999996
 10
381.9890903501437
 20
-561.2544999999991
 10
397.4107899605588
 20
-550.0601000000006
 10
414.485589529213
 20
-543.5202000000008
 10
433.7250890431824
 20
-544.0769999999993
 10
444.0414887825682
 20
-544.3755000000001
 10
453.0346885553809
 20
-548.0514999999996
 10
458.741488411215
 20
-557.3899000000001
 10
461.4860000000008
 20
-561.8809000000001
 10
461.9927883290802
 20
-566.9951000000001
 10
462.584788314125
 20
-572.0748000000003
 97
        0
 97
        0
 92
        1
 93
        1
 72
     4
 94
        3
 73
     0
 74
     1
 95
       17
 96
       13
 40
0.0
 40
0.0
 40
0.0
 40
0.0
 40
1.0
 40
1.0
 40
1.0
 40
2.0
 40
2.0
 40
2.0
 40
3.0
 40
3.0
 40
3.0
 40
4.0
 40
4.0
 40
4.0
 40
4.0
 10
165.714795813692
 20
-285.6234000000004
 10
154.7847960898071
 20
-285.6089000000002
 10
147.3342962780225
 20
-277.8397000000004
 10
147.3610962773455
 20
-266.4843000000001
 10
147.3866962766988
 20
-255.6565000000001
 10
154.5022960969436
 20
-248.1041000000005
 10
164.6268958411747
 20
-248.1589000000004
 10
176.7280955354727
 20
-248.2244000000001
 10
184.9849999999997
 20
-255.6041000000005
 10
184.9801953270071
 20
-266.3501999999999
 10
184.9752953271309
 20
-277.1619000000001
 10
176.5031955411541
 20
-285.6374999999998
 10
165.714795813692
 20
-285.6234000000004
 97
        0
 97
        0
 92
        1
 93
        1
 72
     4
 94
        3
 73
     0
 74
     1
 95
       17
 96
       13
 40
0.0
 40
0.0
 40
0.0
 40
0.0
 40
1.0
 40
1.0
 40
1.0
 40
2.0
 40
2.0
 40
2.0
 40
3.0
 40
3.0
 40
3.0
 40
4.0
 40
4.0
 40
4.0
 40
4.0
 10
184.6784953346287
 20
-336.616
 10
173.9312956061258
 20
-336.5531000000001
 10
166.1742958020841
 20
-328.4304000000002
 10
166.2680957997145
 20
-317.3375999999998
 10
166.3586957974258
 20
-306.6301999999996
 10
173.6228956139166
 20
-299.0803999999998
 10
183.7852953571928
 20
-299.1315000000004
 10
195.6333950578846
 20
-299.1909999999998
 10
204.2111948411912
 20
-306.7812999999996
 10
204.1358948430934
 20
-317.1392999999998
 10
204.0566948450942
 20
-328.0496999999996
 10
195.4360950628688
 20
-336.6787999999997
 10
184.6784953346287
 20
-336.616
 97
        0
 97
        0
 92
        1
 93
        1
 72
     4
 94
        3
 73
     0
 74
     1
 95
       17
 96
       13
 40
0.0
 40
0.0
 40
0.0
 40
0.0
 40
1.0
 40
1.0
 40
1.0
 40
2.0
 40
2.0
 40
2.0
 40
3.0
 40
3.0
 40
3.0
 40
4.0
 40
4.0
 40
4.0
 40
4.0
 10
239.1963939573907
 20
-426.1291000000001
 10
239.0841939602251
 20
-437.1646999999994
 10
230.5857941749127
 20
-445.5813999999991
 10
219.6491944511945
 20
-445.4886000000006
 10
209.0020947201629
 20
-445.3981999999996
 10
201.5184949092145
 20
-437.4107000000004
 10
201.5799999999999
 20
-426.2029000000002
 10
201.6402949061376
 20
-415.1988000000001
 10
208.7005947277794
 20
-407.9483
 10
219.2833944604354
 20
-408.0226999999995
 10
230.9979999999996
 20
-408.1049999999996
 10
239.3028939547003
 20
-415.6564999999991
 10
239.1963939573907
 20
-426.1291000000001
 97
        0
 97
        0
 92
        1
 93
        1
 72
     4
 94
        3
 73
     0
 74
     1
 95
       17
 96
       13
 40
0.0
 40
0.0
 40
0.0
 40
0.0
 40
1.0
 40
1.0
 40
1.0
 40
2.0
 40
2.0
 40
2.0
 40
3.0
 40
3.0
 40
3.0
 40
4.0
 40
4.0
 40
4.0
 40
4.0
 10
216.1515945395513
 20
-299.1641
 10
216.112494540539
 20
-288.5051999999996
 10
223.1783943620394
 20
-280.9315999999999
 10
233.1858941092287
 20
-280.9058999999997
 10
245.167693806543
 20
-280.8752000000004
 10
253.692
 20
-288.1885000000002
 10
253.7780000000002
 20
-298.5727999999999
 10
253.8693935867195
 20
-309.5978999999998
 10
245.4837937985576
 20
-318.3271000000004
 10
234.7432940698855
 20
-318.3878999999997
 10
223.7238943482589
 20
-318.4502000000002
 10
216.1936945384878
 20
-310.6638999999996
 10
216.1515945395513
 20
-299.1641
 97
        0
 97
        0
 92
        1
 93
        1
 72
     4
 94
        3
 73
     0
 74
     1
 95
       17
 96
       13
 40
0.0
 40
0.0
 40
0.0
 40
0.0
 40
1.0
 40
1.0
 40
1.0
 40
2.0
 40
2.0
 40
2.0
 40
3.0
 40
3.0
 40
3.0
 40
4.0
 40
4.0
 40
4.0
 40
4.0
 10
214.5852945791194
 20
-384.2723999999998
 10
203.9691948473046
 20
-384.2108000000007
 10
196.419695038021
 20
-376.2101000000002
 10
196.4393950375234
 20
-365.0416999999998
 10
196.4583950370434
 20
-354.2903999999999
 10
203.6087948564091
 20
-346.9156000000003
 10
213.9820945943575
 20
-346.9486999999999
 10
225.9532942919395
 20
-346.9867999999997
 10
234.3547940796998
 20
-354.4789000000001
 10
234.2218940830571
 20
-364.9974000000002
 10
234.0824940865787
 20
-376.0175999999992
 10
225.6077943006676
 20
-384.3361999999997
 10
214.5852945791194
 20
-384.2723999999998
 97
        0
 97
        0
 92
        1
 93
        1
 72
     4
 94
        3
 73
     0
 74
     1
 95
       17
 96
       13
 40
0.0
 40
0.0
 40
0.0
 40
0.0
 40
1.0
 40
1.0
 40
1.0
 40
2.0
 40
2.0
 40
2.0
 40
3.0
 40
3.0
 40
3.0
 40
4.0
 40
4.0
 40
4.0
 40
4.0
 10
290.5644926597233
 20
-391.6478000000006
 10
290.29
 20
-402.5776999999998
 10
281.642692885107
 20
-411.1393000000007
 10
271.103793151342
 20
-410.9156999999996
 10
260.0860934296725
 20
-410.6818999999996
 10
252.4440936227256
 20
-402.5303000000004
 10
252.7113936159731
 20
-391.2970999999998
 10
252.9632936096095
 20
-380.7072000000007
 10
260.2718934249788
 20
-373.3657000000003
 10
270.3716931698364
 20
-373.5573999999997
 10
282.5042928633411
 20
-373.7875999999997
 10
290.8256926531249
 20
-381.2428
 10
290.5644926597233
 20
-391.6478000000006
 97
        0
 97
        0
 92
        1
 93
        1
 72
     4
 94
        3
 73
     0
 74
     1
 95
       17
 96
       13
 40
0.0
 40
0.0
 40
0.0
 40
0.0
 40
1.0
 40
1.0
 40
1.0
 40
2.0
 40
2.0
 40
2.0
 40
3.0
 40
3.0
 40
3.0
 40
4.0
 40
4.0
 40
4.0
 40
4.0
 10
386.6035902335716
 20
-185.9177
 10
386.7745902292518
 20
-176.0801000000001
 10
396.5480899823524
 20
-166.0316999999995
 10
405.8360897477178
 20
-166.1441999999997
 10
415.8560894945913
 20
-166.2655999999997
 10
425.0069999999996
 20
-175.8666000000003
 10
424.8886892664086
 20
-186.134
 10
424.7758892692582
 20
-195.9324999999999
 10
415.7020894984817
 20
-204.4336999999996
 10
405.497589756269
 20
-204.3017
 10
395.3529999999992
 20
-204.1705000000002
 10
386.4370902377777
 20
-195.4952000000003
 10
386.6035902335716
 20
-185.9177
 97
        0
 97
        0
 92
        1
 93
        1
 72
     4
 94
        3
 73
     0
 74
     1
 95
       17
 96
       13
 40
0.0
 40
0.0
 40
0.0
 40
0.0
 40
1.0
 40
1.0
 40
1.0
 40
2.0
 40
2.0
 40
2.0
 40
3.0
 40
3.0
 40
3.0
 40
4.0
 40
4.0
 40
4.0
 40
4.0
 10
422.1320893360462
 20
-342.4282000000003
 10
422.2673893326282
 20
-351.9691999999995
 10
413.6958895491625
 20
-360.5551999999998
 10
403.8480897979389
 20
-360.7430000000004
 10
393.1851900673064
 20
-360.9463999999998
 10
384.1134902964768
 20
-352.7970999999998
 10
383.9831902997685
 20
-342.8977999999997
 10
383.8535903030424
 20
-333.0546000000004
 10
393.5692900576032
 20
-322.6509999999998
 10
402.9560000000001
 20
-322.5816999999997
 10
412.8733895699406
 20
-322.5084999999999
 10
421.9834893398001
 20
-331.9369999999999
 10
422.1320893360462
 20
-342.4282000000003
 97
        0
 97
        0
 92
        1
 93
        1
 72
     4
 94
        3
 73
     0
 74
     1
 95
       17
 96
       13
 40
0.0
 40
0.0
 40
0.0
 40
0.0
 40
1.0
 40
1.0
 40
1.0
 40
2.0
 40
2.0
 40
2.0
 40
3.0
 40
3.0
 40
3.0
 40
4.0
 40
4.0
 40
4.0
 40
4.0
 10
375.2195905211556
 20
-261.6936999999998
 10
364.904290781742
 20
-261.6648000000005
 10
356.2931909992767
 20
-253.3962000000001
 10
356.3051909989736
 20
-243.5316999999995
 10
356.3173909986654
 20
-233.5288
 10
365.9414907555401
 20
-223.5405000000001
 10
375.5244905134532
 20
-223.5851000000002
 10
385.2950902666271
 20
-223.6305000000002
 10
394.4154900362264
 20
-233.2354999999998
 10
394.3960000000006
 20
-243.4588999999996
 10
394.3768900372015
 20
-253.4018999999998
 10
385.6262902582603
 20
-261.7227999999996
 10
375.2195905211556
 20
-261.6936999999998
 97
        0
 97
        0
 92
        1
 93
        1
 72
     4
 94
        3
 73
     0
 74
     1
 95
       17
 96
       13
 40
0.0
 40
0.0
 40
0.0
 40
0.0
 40
1.0
 40
1.0
 40
1.0
 40
2.0
 40
2.0
 40
2.0
 40
3.0
 40
3.0
 40
3.0
 40
4.0
 40
4.0
 40
4.0
 40
4.0
 10
429.8458891411792
 20
-214.1405999999997
 10
439.8198888892148
 20
-214.1248999999998
 10
448.9738886579653
 20
-223.5748000000003
 10
449.0412886562626
 20
-233.9564
 10
449.1036886546863
 20
-243.5695999999998
 10
440.0960888822374
 20
-252.2425999999996
 10
430.0514891359853
 20
-252.2407000000003
 10
419.6810893979637
 20
-252.2388000000001
 10
410.8817896202527
 20
-244.0005000000001
 10
410.8774896203613
 20
-234.2892000000002
 10
410.8728896204775
 20
-224.1068999999998
 10
420.2410893838169
 20
-214.1556
 10
429.8458891411792
 20
-214.1405999999997
 97
        0
 97
        0
 92
        1
 93
        1
 72
     4
 94
        3
 73
     0
 74
     1
 95
       17
 96
       13
 40
0.0
 40
0.0
 40
0.0
 40
0.0
 40
1.0
 40
1.0
 40
1.0
 40
2.0
 40
2.0
 40
2.0
 40
3.0
 40
3.0
 40
3.0
 40
4.0
 40
4.0
 40
4.0
 40
4.0
 10
439.1682889056756
 20
-287.5861000000004
 10
439.1893889051426
 20
-297.2119999999995
 10
430.1942891323779
 20
-305.8960999999999
 10
420.1991893848754
 20
-305.8994999999995
 10
409.9196896445574
 20
-305.9030000000002
 10
401.0705898681044
 20
-297.5934999999999
 10
401.0329999999994
 20
-287.9022000000004
 10
400.9935898700496
 20
-277.7699000000002
 10
410.4356896315221
 20
-267.7179999999998
 10
419.9868893902385
 20
-267.7241999999997
 10
429.9750891379153
 20
-267.7307000000001
 10
439.1456889062465
 20
-277.2267000000002
 10
439.1682889056756
 20
-287.5861000000004
 97
        0
 97
        0
 92
        1
 93
        1
 72
     4
 94
        3
 73
     0
 74
     1
 95
       17
 96
       13
 40
0.0
 40
0.0
 40
0.0
 40
0.0
 40
1.0
 40
1.0
 40
1.0
 40
2.0
 40
2.0
 40
2.0
 40
3.0
 40
3.0
 40
3.0
 40
4.0
 40
4.0
 40
4.0
 40
4.0
 10
481.1480878451766
 20
-337.3707999999997
 10
481.0373878479732
 20
-347.0196999999998
 10
471.9923880764691
 20
-355.4854999999998
 10
461.8988883314523
 20
-355.3870999999999
 10
451.704788588977
 20
-355.2880000000005
 10
442.7063888162957
 20
-346.6373999999996
 10
442.8968888114832
 20
-337.1196
 10
443.098188806398
 20
-327.0576000000001
 10
452.7999999999993
 20
-317.0994000000001
 10
462.2623883222695
 20
-317.2425000000003
 10
472.2060880710706
 20
-317.3928999999998
 10
481.2665878421831
 20
-327.0496000000003
 10
481.1480878451766
 20
-337.3707999999997
 97
        0
 97
        0
 75
     2
 76
     1
 98
        0
  0
ENDSEC
  0
SECTION
  2
OBJECTS
  0
DICTIONARY
  5
C
330
0
100
AcDbDictionary
281
     1
  3
ACAD_GROUP
350
D
  3
ACAD_LAYOUT
350
1A
  3
ACAD_MATERIAL
350
3B
  3
ACAD_MLEADERSTYLE
350
66
  3
ACAD_MLINESTYLE
350
17
  3
ACAD_PLOTSETTINGS
350
19
  3
ACAD_PLOTSTYLENAME
350
E
  3
ACAD_TABLESTYLE
350
65
  3
ACAD_VISUALSTYLE
350
2A
  0
SUN
  5
3F
330
29
100
AcDbSun
 90
        1
290
     0
 63
     7
421
 16777215
 40
1.0
291
     1
 91
  2455826
 92
 54000000
292
     0
 70
     2
 71
   256
280
     1
  0
DICTIONARY
  5
D
102
{ACAD_REACTORS
330
C
102
}
330
C
100
AcDbDictionary
281
     1
  0
DICTIONARY
  5
1A
102
{ACAD_REACTORS
330
C
102
}
330
C
100
AcDbDictionary
281
     1
  3
Layout1
350
1E
  3
Layout2
350
26
  3
Model
350
22
  0
DICTIONARY
  5
3B
102
{ACAD_REACTORS
330
C
102
}
330
C
100
AcDbDictionary
281
     1
  3
ByBlock
350
3D
  3
ByLayer
350
3C
  3
Global
350
3E
  0
DICTIONARY
  5
66
102
{ACAD_REACTORS
330
C
102
}
330
C
100
AcDbDictionary
281
     1
  0
DICTIONARY
  5
17
102
{ACAD_REACTORS
330
C
102
}
330
C
100
AcDbDictionary
281
     1
  3
Standard
350
18
  0
DICTIONARY
  5
19
102
{ACAD_REACTORS
330
C
102
}
330
C
100
AcDbDictionary
281
     1
  0
ACDBDICTIONARYWDFLT
  5
E
102
{ACAD_REACTORS
330
C
102
}
330
C
100
AcDbDictionary
281
     1
  3
Normal
350
F
100
AcDbDictionaryWithDefault
340
F
  0
DICTIONARY
  5
65
102
{ACAD_REACTORS
330
C
102
}
330
C
100
AcDbDictionary
281
     1
  0
DICTIONARY
  5
2A
102
{ACAD_REACTORS
330
C
102
}
330
C
100
AcDbDictionary
281
     1
  3
2dWireframe
350
2F
  3
3D Hidden
350
31
  3
3dWireframe
350
30
  3
Basic
350
32
  3
Brighten
350
36
  3
ColorChange
350
3A
  3
Conceptual
350
34
  3
Dim
350
35
  3
Facepattern
350
39
  3
Flat
350
2B
  3
FlatWithEdges
350
2C
  3
Gouraud
350
2D
  3
GouraudWithEdges
350
2E
  3
Linepattern
350
38
  3
Realistic
350
33
  3
Thicken
350
37
  0
LAYOUT
  5
1E
102
{ACAD_REACTORS
330
1A
102
}
330
1A
100
AcDbPlotSettings
  1

  2
none_device
  4

  6

 40
0.0
 41
0.0
 42
0.0
 43
0.0
 44
0.0
 45
0.0
 46
0.0
 47
0.0
 48
0.0
 49
0.0
140
0.0
141
0.0
142
1.0
143
1.0
 70
   688
 72
     0
 73
     0
 74
     5
  7

 75
    16
 76
     0
 77
     2
 78
   300
147
1.0
148
0.0
149
0.0
100
AcDbLayout
  1
Layout1
 70
     1
 71
     1
 10
0.0
 20
0.0
 11
12.0
 21
9.0
 12
0.0
 22
0.0
 32
0.0
 14
1.000000000000000E+20
 24
1.000000000000000E+20
 34
1.000000000000000E+20
 15
-1.000000000000000E+20
 25
-1.000000000000000E+20
 35
-1.000000000000000E+20
146
0.0
 13
0.0
 23
0.0
 33
0.0
 16
1.0
 26
0.0
 36
0.0
 17
0.0
 27
1.0
 37
0.0
 76
     0
330
1B
  0
LAYOUT
  5
26
102
{ACAD_REACTORS
330
1A
102
}
330
1A
100
AcDbPlotSettings
  1

  2
none_device
  4

  6

 40
0.0
 41
0.0
 42
0.0
 43
0.0
 44
0.0
 45
0.0
 46
0.0
 47
0.0
 48
0.0
 49
0.0
140
0.0
141
0.0
142
1.0
143
1.0
 70
   688
 72
     0
 73
     0
 74
     5
  7

 75
    16
 76
     0
 77
     2
 78
   300
147
1.0
148
0.0
149
0.0
100
AcDbLayout
  1
Layout2
 70
     1
 71
     2
 10
0.0
 20
0.0
 11
0.0
 21
0.0
 12
0.0
 22
0.0
 32
0.0
 14
0.0
 24
0.0
 34
0.0
 15
0.0
 25
0.0
 35
0.0
146
0.0
 13
0.0
 23
0.0
 33
0.0
 16
1.0
 26
0.0
 36
0.0
 17
0.0
 27
1.0
 37
0.0
 76
     0
330
23
  0
LAYOUT
  5
22
102
{ACAD_REACTORS
330
1A
102
}
330
1A
100
AcDbPlotSettings
  1

  2
none_device
  4

  6

 40
0.0
 41
0.0
 42
0.0
 43
0.0
 44
0.0
 45
0.0
 46
0.0
 47
0.0
 48
0.0
 49
0.0
140
0.0
141
0.0
142
1.0
143
1.0
 70
  1712
 72
     0
 73
     0
 74
     0
  7

 75
     0
 76
     0
 77
     2
 78
   300
147
1.0
148
0.0
149
0.0
100
AcDbLayout
  1
Model
 70
     1
 71
     0
 10
0.0
 20
0.0
 11
12.0
 21
9.0
 12
0.0
 22
0.0
 32
0.0
 14
1.000000000000000E+20
 24
1.000000000000000E+20
 34
1.000000000000000E+20
 15
-1.000000000000000E+20
 25
-1.000000000000000E+20
 35
-1.000000000000000E+20
146
0.0
 13
0.0
 23
0.0
 33
0.0
 16
1.0
 26
0.0
 36
0.0
 17
0.0
 27
1.0
 37
0.0
 76
     0
330
1F
331
29
  0
MATERIAL
  5
3D
102
{ACAD_REACTORS
330
3B
102
}
330
3B
100
AcDbMaterial
  1
ByBlock
 72
     1
 94
      127
  0
MATERIAL
  5
3C
102
{ACAD_REACTORS
330
3B
102
}
330
3B
100
AcDbMaterial
  1
ByLayer
 72
     1
 94
      127
  0
MATERIAL
  5
3E
102
{ACAD_REACTORS
330
3B
102
}
330
3B
100
AcDbMaterial
  1
Global
 72
     1
 94
      127
  0
MLINESTYLE
  5
18
102
{ACAD_REACTORS
330
17
102
}
330
17
100
AcDbMlineStyle
  2
Standard
 70
     0
  3

 62
   256
 51
90.0
 52
90.0
 71
     2
 49
0.5
 62
   256
  6
BYLAYER
 49
-0.5
 62
   256
  6
BYLAYER
  0
ACDBPLACEHOLDER
  5
F
102
{ACAD_REACTORS
330
E
102
}
330
E
  0
VISUALSTYLE
  5
2F
102
{ACAD_REACTORS
330
2A
102
}
330
2A
100
AcDbVisualStyle
  2
2dWireframe
 70
     4
177
     2
291
     0
 71
     0
176
     1
 72
     2
176
     1
 73
     0
176
     1
 90
        0
176
     1
 40
-0.6
176
     1
 41
-30.0
176
     1
 62
     5
 63
     7
421
 16777215
176
     1
 74
     1
176
     1
 91
        4
176
     1
 64
     7
176
     1
 65
   257
176
     1
 75
     1
176
     1
175
     1
176
     1
 42
1.0
176
     1
 92
        0
176
     1
 66
   257
176
     1
 43
1.0
176
     1
 76
     1
176
     1
 77
     6
176
     1
 78
     2
176
     1
 67
     7
176
     1
 79
     5
176
     1
170
     0
176
     1
171
     0
176
     1
290
     0
176
     1
 93
        1
176
     1
 44
0.0
176
     1
173
     0
176
     1
  0
VISUALSTYLE
  5
31
102
{ACAD_REACTORS
330
2A
102
}
330
2A
100
AcDbVisualStyle
  2
3D Hidden
 70
     6
177
     2
291
     0
 71
     1
176
     1
 72
     2
176
     1
 73
     2
176
     1
 90
        0
176
     1
 40
-0.6
176
     1
 41
-30.0
176
     1
 62
     5
 63
     7
421
 16777215
176
     1
 74
     2
176
     1
 91
        2
176
     1
 64
     7
176
     1
 65
   257
176
     1
 75
     2
176
     1
175
     1
176
     1
 42
40.0
176
     1
 92
        0
176
     1
 66
   257
176
     1
 43
1.0
176
     1
 76
     1
176
     1
 77
     6
176
     1
 78
     2
176
     1
 67
     7
176
     1
 79
     3
176
     1
170
     0
176
     1
171
     0
176
     1
290
     0
176
     1
 93
        1
176
     1
 44
0.0
176
     1
173
     0
176
     1
  0
VISUALSTYLE
  5
30
102
{ACAD_REACTORS
330
2A
102
}
330
2A
100
AcDbVisualStyle
  2
3dWireframe
 70
     5
177
     2
291
     0
 71
     0
176
     1
 72
     2
176
     1
 73
     0
176
     1
 90
        0
176
     1
 40
-0.6
176
     1
 41
-30.0
176
     1
 62
     5
 63
     7
421
 16777215
176
     1
 74
     1
176
     1
 91
        4
176
     1
 64
     7
176
     1
 65
   257
176
     1
 75
     1
176
     1
175
     1
176
     1
 42
1.0
176
     1
 92
        0
176
     1
 66
   257
176
     1
 43
1.0
176
     1
 76
     1
176
     1
 77
     6
176
     1
 78
     2
176
     1
 67
     7
176
     1
 79
     5
176
     1
170
     0
176
     1
171
     0
176
     1
290
     0
176
     1
 93
        1
176
     1
 44
0.0
176
     1
173
     0
176
     1
  0
VISUALSTYLE
  5
32
102
{ACAD_REACTORS
330
2A
102
}
330
2A
100
AcDbVisualStyle
  2
Basic
 70
     7
177
     2
291
     1
 71
     1
176
     1
 72
     0
176
     1
 73
     1
176
     1
 90
        0
176
     1
 40
-0.6
176
     1
 41
-30.0
176
     1
 62
     5
 63
     7
421
 16777215
176
     1
 74
     0
176
     1
 91
        4
176
     1
 64
     7
176
     1
 65
   257
176
     1
 75
     1
176
     1
175
     1
176
     1
 42
1.0
176
     1
 92
        8
176
     1
 66
     7
176
     1
 43
1.0
176
     1
 76
     1
176
     1
 77
     6
176
     1
 78
     2
176
     1
 67
     7
176
     1
 79
     5
176
     1
170
     0
176
     1
171
     0
176
     1
290
     0
176
     1
 93
        1
176
     1
 44
0.0
176
     1
173
     0
176
     1
  0
VISUALSTYLE
  5
36
102
{ACAD_REACTORS
330
2A
102
}
330
2A
100
AcDbVisualStyle
  2
Brighten
 70
    12
177
     2
291
     1
 71
     2
176
     1
 72
     2
176
     1
 73
     0
176
     1
 90
        0
176
     1
 40
-0.6
176
     1
 41
-30.0
176
     1
 62
     5
 63
     7
421
 16777215
176
     1
 74
     1
176
     1
 91
        4
176
     1
 64
     7
176
     1
 65
   257
176
     1
 75
     1
176
     1
175
     1
176
     1
 42
1.0
176
     1
 92
        8
176
     1
 66
     7
176
     1
 43
1.0
176
     1
 76
     1
176
     1
 77
     6
176
     1
 78
     2
176
     1
 67
     7
176
     1
 79
     5
176
     1
170
     0
176
     1
171
     0
176
     1
290
     0
176
     1
 93
        1
176
     1
 44
50.0
176
     1
173
     0
176
     1
  0
VISUALSTYLE
  5
3A
102
{ACAD_REACTORS
330
2A
102
}
330
2A
100
AcDbVisualStyle
  2
ColorChange
 70
    16
177
     2
291
     1
 71
     2
176
     1
 72
     2
176
     1
 73
     3
176
     1
 90
        0
176
     1
 40
-0.6
176
     1
 41
-30.0
176
     1
 62
     5
 63
     8
421
  8421504
176
     1
 74
     1
176
     1
 91
        4
176
     1
 64
     7
176
     1
 65
   257
176
     1
 75
     1
176
     1
175
     1
176
     1
 42
1.0
176
     1
 92
        8
176
     1
 66
     8
424
  8421504
176
     1
 43
1.0
176
     1
 76
     1
176
     1
 77
     6
176
     1
 78
     2
176
     1
 67
     7
176
     1
 79
     5
176
     1
170
     0
176
     1
171
     0
176
     1
290
     0
176
     1
 93
        1
176
     1
 44
0.0
176
     1
173
     0
176
     1
  0
VISUALSTYLE
  5
34
102
{ACAD_REACTORS
330
2A
102
}
330
2A
100
AcDbVisualStyle
  2
Conceptual
 70
     9
177
     2
291
     0
 71
     3
176
     1
 72
     2
176
     1
 73
     0
176
     1
 90
        0
176
     1
 40
-0.6
176
     1
 41
-30.0
176
     1
 62
     5
 63
     7
421
 16777215
176
     1
 74
     2
176
     1
 91
        2
176
     1
 64
     7
176
     1
 65
   257
176
     1
 75
     1
176
     1
175
     1
176
     1
 42
40.0
176
     1
 92
        8
176
     1
 66
     7
176
     1
 43
1.0
176
     1
 76
     1
176
     1
 77
     6
176
     1
 78
     2
176
     1
 67
     7
176
     1
 79
     3
176
     1
170
     0
176
     1
171
     0
176
     1
290
     0
176
     1
 93
        1
176
     1
 44
0.0
176
     1
173
     0
176
     1
  0
VISUALSTYLE
  5
35
102
{ACAD_REACTORS
330
2A
102
}
330
2A
100
AcDbVisualStyle
  2
Dim
 70
    11
177
     2
291
     1
 71
     2
176
     1
 72
     2
176
     1
 73
     0
176
     1
 90
        0
176
     1
 40
-0.6
176
     1
 41
-30.0
176
     1
 62
     5
 63
     7
421
 16777215
176
     1
 74
     1
176
     1
 91
        4
176
     1
 64
     7
176
     1
 65
   257
176
     1
 75
     1
176
     1
175
     1
176
     1
 42
1.0
176
     1
 92
        8
176
     1
 66
     7
176
     1
 43
1.0
176
     1
 76
     1
176
     1
 77
     6
176
     1
 78
     2
176
     1
 67
     7
176
     1
 79
     5
176
     1
170
     0
176
     1
171
     0
176
     1
290
     0
176
     1
 93
        1
176
     1
 44
-50.0
176
     1
173
     0
176
     1
  0
VISUALSTYLE
  5
39
102
{ACAD_REACTORS
330
2A
102
}
330
2A
100
AcDbVisualStyle
  2
Facepattern
 70
    15
177
     2
291
     1
 71
     2
176
     1
 72
     2
176
     1
 73
     0
176
     1
 90
        0
176
     1
 40
-0.6
176
     1
 41
-30.0
176
     1
 62
     5
 63
     7
421
 16777215
176
     1
 74
     1
176
     1
 91
        4
176
     1
 64
     7
176
     1
 65
   257
176
     1
 75
     1
176
     1
175
     1
176
     1
 42
1.0
176
     1
 92
        8
176
     1
 66
     7
176
     1
 43
1.0
176
     1
 76
     1
176
     1
 77
     6
176
     1
 78
     2
176
     1
 67
     7
176
     1
 79
     5
176
     1
170
     0
176
     1
171
     0
176
     1
290
     0
176
     1
 93
        1
176
     1
 44
0.0
176
     1
173
     0
176
     1
  0
VISUALSTYLE
  5
2B
102
{ACAD_REACTORS
330
2A
102
}
330
2A
100
AcDbVisualStyle
  2
Flat
 70
     0
177
     2
291
     1
 71
     2
176
     1
 72
     1
176
     1
 73
     1
176
     1
 90
        2
176
     1
 40
-0.6
176
     1
 41
30.0
176
     1
 62
     5
 63
     7
421
 16777215
176
     1
 74
     0
176
     1
 91
        4
176
     1
 64
     7
176
     1
 65
   257
176
     1
 75
     1
176
     1
175
     1
176
     1
 42
1.0
176
     1
 92
        8
176
     1
 66
     7
176
     1
 43
1.0
176
     1
 76
     1
176
     1
 77
     6
176
     1
 78
     2
176
     1
 67
     7
176
     1
 79
     5
176
     1
170
     0
176
     1
171
     0
176
     1
290
     0
176
     1
 93
       13
176
     1
 44
0.0
176
     1
173
     0
176
     1
  0
VISUALSTYLE
  5
2C
102
{ACAD_REACTORS
330
2A
102
}
330
2A
100
AcDbVisualStyle
  2
FlatWithEdges
 70
     1
177
     2
291
     1
 71
     2
176
     1
 72
     1
176
     1
 73
     1
176
     1
 90
        2
176
     1
 40
-0.6
176
     1
 41
30.0
176
     1
 62
     5
 63
     7
421
 16777215
176
     1
 74
     1
176
     1
 91
        4
176
     1
 64
     7
176
     1
 65
   257
176
     1
 75
     1
176
     1
175
     1
176
     1
 42
1.0
176
     1
 92
        0
176
     1
 66
   257
176
     1
 43
1.0
176
     1
 76
     1
176
     1
 77
     6
176
     1
 78
     2
176
     1
 67
     7
176
     1
 79
     5
176
     1
170
     0
176
     1
171
     0
176
     1
290
     0
176
     1
 93
       13
176
     1
 44
0.0
176
     1
173
     0
176
     1
  0
VISUALSTYLE
  5
2D
102
{ACAD_REACTORS
330
2A
102
}
330
2A
100
AcDbVisualStyle
  2
Gouraud
 70
     2
177
     2
291
     1
 71
     2
176
     1
 72
     2
176
     1
 73
     1
176
     1
 90
        2
176
     1
 40
-0.6
176
     1
 41
30.0
176
     1
 62
     5
 63
     7
421
 16777215
176
     1
 74
     0
176
     1
 91
        4
176
     1
 64
     7
176
     1
 65
   257
176
     1
 75
     1
176
     1
175
     1
176
     1
 42
1.0
176
     1
 92
        0
176
     1
 66
     7
176
     1
 43
1.0
176
     1
 76
     1
176
     1
 77
     6
176
     1
 78
     2
176
     1
 67
     7
176
     1
 79
     5
176
     1
170
     0
176
     1
171
     0
176
     1
290
     0
176
     1
 93
       13
176
     1
 44
0.0
176
     1
173
     0
176
     1
  0
VISUALSTYLE
  5
2E
102
{ACAD_REACTORS
330
2A
102
}
330
2A
100
AcDbVisualStyle
  2
GouraudWithEdges
 70
     3
177
     2
291
     1
 71
     2
176
     1
 72
     2
176
     1
 73
     1
176
     1
 90
        2
176
     1
 40
-0.6
176
     1
 41
30.0
176
     1
 62
     5
 63
     7
421
 16777215
176
     1
 74
     1
176
     1
 91
        4
176
     1
 64
     7
176
     1
 65
   257
176
     1
 75
     1
176
     1
175
     1
176
     1
 42
1.0
176
     1
 92
        0
176
     1
 66
   257
176
     1
 43
1.0
176
     1
 76
     1
176
     1
 77
     6
176
     1
 78
     2
176
     1
 67
     7
176
     1
 79
     5
176
     1
170
     0
176
     1
171
     0
176
     1
290
     0
176
     1
 93
       13
176
     1
 44
0.0
176
     1
173
     0
176
     1
  0
VISUALSTYLE
  5
38
102
{ACAD_REACTORS
330
2A
102
}
330
2A
100
AcDbVisualStyle
  2
Linepattern
 70
    14
177
     2
291
     1
 71
     2
176
     1
 72
     2
176
     1
 73
     0
176
     1
 90
        0
176
     1
 40
-0.6
176
     1
 41
-30.0
176
     1
 62
     5
 63
     7
421
 16777215
176
     1
 74
     1
176
     1
 91
        4
176
     1
 64
     7
176
     1
 65
   257
176
     1
 75
     7
176
     1
175
     7
176
     1
 42
1.0
176
     1
 92
        8
176
     1
 66
     7
176
     1
 43
1.0
176
     1
 76
     1
176
     1
 77
     6
176
     1
 78
     2
176
     1
 67
     7
176
     1
 79
     5
176
     1
170
     0
176
     1
171
     0
176
     1
290
     0
176
     1
 93
        1
176
     1
 44
0.0
176
     1
173
     0
176
     1
  0
VISUALSTYLE
  5
33
102
{ACAD_REACTORS
330
2A
102
}
330
2A
100
AcDbVisualStyle
  2
Realistic
 70
     8
177
     2
291
     0
 71
     2
176
     1
 72
     2
176
     1
 73
     0
176
     1
 90
        0
176
     1
 40
-0.6
176
     1
 41
-30.0
176
     1
 62
     5
 63
     7
421
 16777215
176
     1
 74
     1
176
     1
 91
        0
176
     1
 64
     7
176
     1
 65
   257
176
     1
 75
     1
176
     1
175
     1
176
     1
 42
1.0
176
     1
 92
        8
176
     1
 66
     8
424
  7895160
176
     1
 43
1.0
176
     1
 76
     1
176
     1
 77
     6
176
     1
 78
     2
176
     1
 67
     7
176
     1
 79
     5
176
     1
170
     0
176
     1
171
     0
176
     1
290
     0
176
     1
 93
       13
176
     1
 44
0.0
176
     1
173
     0
176
     1
  0
VISUALSTYLE
  5
37
102
{ACAD_REACTORS
330
2A
102
}
330
2A
100
AcDbVisualStyle
  2
Thicken
 70
    13
177
     2
291
     1
 71
     2
176
     1
 72
     2
176
     1
 73
     0
176
     1
 90
        0
176
     1
 40
-0.6
176
     1
 41
-30.0
176
     1
 62
     5
 63
     7
421
 16777215
176
     1
 74
     1
176
     1
 91
        4
176
     1
 64
     7
176
     1
 65
   257
176
     1
 75
     1
176
     1
175
     1
176
     1
 42
1.0
176
     1
 92
       12
176
     1
 66
     7
176
     1
 43
1.0
176
     1
 76
     1
176
     1
 77
     6
176
     1
 78
     2
176
     1
 67
     7
176
     1
 79
     5
176
     1
170
     0
176
     1
171
     0
176
     1
290
     0
176
     1
 93
        1
176
     1
 44
0.0
176
     1
173
     0
176
     1
  0
ENDSEC
  0
EOF
