<svg width="1365" height="467" xmlns="http://www.w3.org/2000/svg" xmlns:xlink="http://www.w3.org/1999/xlink" overflow="hidden"><defs><clipPath id="clip0"><rect x="-96" y="126" width="1365" height="467"/></clipPath></defs><g clip-path="url(#clip0)" transform="translate(96 -126)"><text font-family="Calibri,Calibri_MSFontService,sans-serif" font-weight="700" font-size="221" transform="translate(38.157 400)">DROP<tspan font-size="221" x="726.869" y="1">SVG</tspan></text><path d="M634.885 189.052C640.774 197.698 647.019 205.325 648.568 216.097 651.887 239.189 631.738 262.409 608.917 264.086 593.124 265.247 586.005 256.218 572.962 250.153 572.962 297.478 568.437 347.329 573.132 394.394 574.809 411.204 587.716 424.538 604.922 424.989 622.504 425.45 636.027 411.275 637.711 394.394 642.341 347.982 637.881 298.825 637.881 252.157L682.825 252.157C678.732 266.048 681.827 284.746 681.827 299.235L681.827 365.346C681.827 377.026 680.219 390.045 683.315 401.406 689.677 424.749 718.993 432.742 736.459 415.965 748.652 404.255 745.747 383.763 745.747 368.351L745.747 252.157C760.624 252.157 778.961 255.032 791.687 245.533 811.604 230.666 806.226 199.858 783.7 190.981 770.28 185.693 751.018 189.052 736.759 189.052L634.885 189.052Z" stroke="#000000" stroke-width="8" stroke-miterlimit="8" fill="#FFFFFF" fill-rule="evenodd"/><path d="M596 190 597 191 596 190Z" fill="#868686" fill-rule="evenodd"/><path d="M599.088 191.278C559.393 199.655 573.68 260.554 613.152 251.605 652.619 242.657 638.086 183.048 599.088 191.278Z" stroke="#4472C4" stroke-miterlimit="8" fill="#FFC000" fill-rule="evenodd"/><path d="M610 190 611 191 610 190Z" fill="#646464" fill-rule="evenodd"/><path d="M593 191 594 192 593 191Z" fill="#7E7E7E" fill-rule="evenodd"/><path d="M590 192 591 193 590 192Z" fill="#757575" fill-rule="evenodd"/><path d="M588 193 589 194 588 193Z" fill="#717171" fill-rule="evenodd"/><path d="M587 194 588 195 587 194Z" fill="#6E6E6E" fill-rule="evenodd"/><path d="M585 195 586 196 585 195Z" fill="#6C6C6C" fill-rule="evenodd"/><path d="M584 196 585 197 584 196Z" fill="#6B6B6B" fill-rule="evenodd"/><path d="M583 197 584 198 583 197Z" fill="#676767" fill-rule="evenodd"/><path d="M581 198 582 199 581 198Z" fill="#666666" fill-rule="evenodd"/><path d="M579.75 200 580 200.6 579.75 200M578.75 201.2 579.5 202.1 578.75 201.2M578 202.1 578.75 203 578 202.1Z" fill="#686868" fill-rule="evenodd"/><path d="M577 204 578 205 577 204Z" fill="#6A6A6A" fill-rule="evenodd"/><path d="M576 205 577 206 576 205Z" fill="#6C6C6C" fill-rule="evenodd"/><path d="M634 214 635 215 634 214Z" fill="#6C6C6C" fill-rule="evenodd"/><path d="M646 214 647 215 646 214Z" fill="#A7A7A7" fill-rule="evenodd"/><path d="M802 217 803 218 802 217Z" fill="#737373" fill-rule="evenodd"/><path d="M802 223 803 224 802 223Z" fill="#818181" fill-rule="evenodd"/><path d="M634 227 635 228 634 227Z" fill="#757575" fill-rule="evenodd"/><path d="M646 227 647 228 646 227Z" fill="#9D9D9D" fill-rule="evenodd"/><path d="M573 228 574 229 573 228Z" fill="#868686" fill-rule="evenodd"/><path d="M801 228 802 229 801 228Z" fill="#707070" fill-rule="evenodd"/><path d="M633 230 634 231 633 230Z" fill="#6B6B6B" fill-rule="evenodd"/><path d="M800 231 801 232 800 231Z" fill="#666666" fill-rule="evenodd"/><path d="M576 236 577 237 576 236Z" fill="#717171" fill-rule="evenodd"/><path d="M578 239 579 240 578 239Z" fill="#6D6D6D" fill-rule="evenodd"/><path d="M579 240 580 241 579 240Z" fill="#6C6C6C" fill-rule="evenodd"/><path d="M580 242 581 243 580 242Z" fill="#3B3B3B" fill-rule="evenodd"/><path d="M581 243 582 244 581 243Z" fill="#696969" fill-rule="evenodd"/><path d="M583 244 584 245 583 244Z" fill="#686868" fill-rule="evenodd"/><path d="M584 245 585 246 584 245M585 246 586 247 585 246Z" fill="#6C6C6C" fill-rule="evenodd"/><path d="M587 247 588 248 587 247Z" fill="#6D6D6D" fill-rule="evenodd"/><path d="M588 248 589 249 588 248Z" fill="#717171" fill-rule="evenodd"/><path d="M590 249 591 250 590 249Z" fill="#727272" fill-rule="evenodd"/><path d="M593 250 594 251 593 250Z" fill="#7A7A7A" fill-rule="evenodd"/><path d="M596 251 597 252 596 251Z" fill="#828282" fill-rule="evenodd"/><path d="M774 251 775 252 774 251Z" fill="#686868" fill-rule="evenodd"/><path d="M680 252 681 253 680 252Z" fill="#848484" fill-rule="evenodd"/><path d="M588 261 589 262 588 261Z" fill="#A6A6A6" fill-rule="evenodd"/><path d="M591 262 592 263 591 262Z" fill="#9D9D9D" fill-rule="evenodd"/><path d="M596 263 597 264 596 263Z" fill="#8B8B8B" fill-rule="evenodd"/><path d="M743 394 743 400 744 400 743 394Z" fill="#CBCBCB" fill-rule="evenodd"/><path d="M635 396 636 397 635 396Z" fill="#5F5F5F" fill-rule="evenodd"/><path d="M680 396 680 401 681 401 680 396Z" fill="#7C7C7C" fill-rule="evenodd"/><path d="M742 400 742 404 743 404 742 400Z" fill="#CECECE" fill-rule="evenodd"/><path d="M681 401 681 403.77 681.6 403.77 681 401M681.8 404.385 682 405 681.8 404.385Z" fill="#7F7F7F" fill-rule="evenodd"/><path d="M683 407 684 408 683 407Z" fill="#838383" fill-rule="evenodd"/><path d="M684 409 685 410 684 409Z" fill="#878787" fill-rule="evenodd"/><path d="M685 410 686 411 685 410Z" fill="#9F9F9F" fill-rule="evenodd"/><path d="M686 412 687 413 686 412Z" fill="#8E8E8E" fill-rule="evenodd"/><path d="M578 413 579 414 578 413Z" fill="#363636" fill-rule="evenodd"/><path d="M687 413 688 414 687 413Z" fill="#A1A1A1" fill-rule="evenodd"/><path d="M688 414 689 415 688 414Z" fill="#A3A3A3" fill-rule="evenodd"/><path d="M689 415 690 416 689 415Z" fill="#A4A4A4" fill-rule="evenodd"/><path d="M584 418 585 419 584 418Z" fill="#575757" fill-rule="evenodd"/><path d="M585 419 586 420 585 419Z" fill="#595959" fill-rule="evenodd"/><path d="M587 420 588 421 587 420Z" fill="#5C5C5C" fill-rule="evenodd"/><path d="M589 421 590 422 589 421Z" fill="#616161" fill-rule="evenodd"/><path d="M592 422 593 423 592 422Z" fill="#6B6B6B" fill-rule="evenodd"/><path d="M595 423 596 424 595 423Z" fill="#747474" fill-rule="evenodd"/><path d="M601 424 602 425 601 424Z" fill="#898989" fill-rule="evenodd"/><path d="M605 424 606 425 605 424Z" fill="#656565" fill-rule="evenodd"/></g></svg>